<?xml version="1.0" encoding="UTF-8" standalone="no"?>
<!DOCTYPE svg PUBLIC "-//W3C//DTD SVG 1.1//EN" "http://www.w3.org/Graphics/SVG/1.1/DTD/svg11.dtd">
<svg width="100%" height="100%" viewBox="0 0 2000 2000" version="1.1" xmlns="http://www.w3.org/2000/svg" xmlns:xlink="http://www.w3.org/1999/xlink" xml:space="preserve" xmlns:serif="http://www.serif.com/" style="fill-rule:evenodd;clip-rule:evenodd;stroke-linecap:round;stroke-linejoin:round;stroke-miterlimit:1.5;">
    <g>
        <g transform="matrix(1.10247,0,0,1.19493,0.0741401,-268.713)">
            <path d="M188.732,1068.99L99.065,912.657" style="fill:none;stroke:rgb(68,40,190);stroke-width:2.72px;"/>
        </g>
        <g transform="matrix(1.10247,0,0,1.19493,0.0741401,-268.713)">
            <path d="M178.014,1050.3L179.065,1014.32" style="fill:none;stroke:rgb(68,40,190);stroke-width:2.72px;"/>
        </g>
        <g transform="matrix(1.10247,0,0,1.19493,0.0741401,-268.713)">
            <path d="M159.378,1017.81L123.732,1003.66" style="fill:none;stroke:rgb(68,40,190);stroke-width:2.72px;"/>
        </g>
        <g transform="matrix(1.10247,0,0,1.19493,0.0741401,-268.713)">
            <path d="M142.283,988.007L141.399,957.99" style="fill:none;stroke:rgb(68,40,190);stroke-width:2.72px;"/>
        </g>
        <g transform="matrix(1.10247,0,0,1.19493,0.0741401,-268.713)">
            <path d="M126.012,959.638L100.732,949.99" style="fill:none;stroke:rgb(68,40,190);stroke-width:2.72px;"/>
        </g>
        <g transform="matrix(1.10247,0,0,1.19493,0.0741401,-268.713)">
            <path d="M112.95,936.865L115.399,923.324" style="fill:none;stroke:rgb(68,40,190);stroke-width:2.72px;"/>
        </g>
        <g transform="matrix(1.10247,0,0,1.19493,0.0741401,-268.713)">
            <path d="M442.065,1008.99C510.822,990.553 520.549,891.452 557.732,886.99" style="fill:none;stroke:rgb(68,40,190);stroke-width:2.72px;"/>
        </g>
        <g transform="matrix(1.10247,0,0,1.19493,0.0741401,-268.713)">
            <path d="M455.174,1004.22L475.065,1001.66" style="fill:none;stroke:rgb(68,40,190);stroke-width:2.72px;"/>
        </g>
        <g transform="matrix(1.10247,0,0,1.19493,0.0741401,-268.713)">
            <path d="M480.089,986.69L481.399,961.657" style="fill:none;stroke:rgb(68,40,190);stroke-width:2.72px;"/>
        </g>
        <g transform="matrix(1.10247,0,0,1.19493,0.0741401,-268.713)">
            <path d="M496.086,967.767L523.732,948.324" style="fill:none;stroke:rgb(68,40,190);stroke-width:2.72px;"/>
        </g>
        <g transform="matrix(1.10247,0,0,1.19493,0.0741401,-268.713)">
            <path d="M518.585,930.463L517.399,907.324" style="fill:none;stroke:rgb(68,40,190);stroke-width:2.72px;"/>
        </g>
        <g transform="matrix(1.10247,0,0,1.19493,0.0741401,-268.713)">
            <path d="M537.559,900.182L548.399,897.99" style="fill:none;stroke:rgb(68,40,190);stroke-width:2.72px;"/>
        </g>
    </g>
    <g id="Flor-1" serif:id="Flor 1">
        <g id="Camada1">
            <path d="M766.01,1574.54C782.173,1613.35 789.682,1654.74 792.51,1697.54C832.135,1672.47 866.719,1630.12 897.01,1573.04C906.881,1700.37 873.308,1792.39 776.51,1833.04C701.374,1830.45 638.297,1784.69 604.51,1634.04C642.01,1661.25 681.83,1685.85 730.01,1701.04C732.235,1659.39 738.381,1617.53 766.01,1574.54Z" style="fill:rgb(255,156,156);stroke:black;stroke-width:8.37px;"/>
        </g>
        <g id="Camada11" serif:id="Camada1" transform="matrix(0.669289,0,0,0.734154,260.078,486.028)">
            <path d="M766.01,1574.54C782.173,1613.35 789.682,1654.74 792.51,1697.54C832.135,1672.47 866.719,1630.12 897.01,1573.04C906.881,1700.37 873.308,1792.39 776.51,1833.04C701.374,1830.45 638.297,1784.69 604.51,1634.04C642.01,1661.25 681.83,1685.85 730.01,1701.04C732.235,1659.39 738.381,1617.53 766.01,1574.54Z" style="fill:rgb(255,169,169);"/>
        </g>
        <g id="Camada2">
            <path d="M778.01,1833.54L790.51,2003.04" style="fill:none;stroke:black;stroke-width:8.37px;"/>
            <path d="M782.906,1899.93C697.322,1852.45 610.26,1851.52 522.01,1888.04C517.441,1924.58 753.883,1980.78 782.906,1899.93Z" style="fill:rgb(138,255,140);stroke:black;stroke-width:8.37px;"/>
            <path d="M788.51,1982.04C839.103,1887.01 905.748,1825.08 999.01,1818.04C995.437,1919.43 842.338,2031.99 788.51,1982.04Z" style="fill:rgb(138,255,140);stroke:black;stroke-width:8.37px;"/>
        </g>
    </g>
    <g id="Planta">
        <g transform="matrix(1.10247,0,0,1.19493,0.0741401,-268.713)">
            <path d="M-0.724,1328.13C60.714,1148.63 180.229,1021.79 431.943,1014.79" style="fill:none;stroke:black;stroke-width:7.28px;"/>
        </g>
        <g transform="matrix(1.10247,0,0,1.19493,0.0741401,-268.713)">
            <path d="M74.599,1179.41C159.897,1172.67 216.609,1203.74 258.568,1254.34C162.665,1270.48 96.5,1251.27 74.599,1179.41Z" style="fill:rgb(180,167,236);stroke:black;stroke-width:7.28px;"/>
        </g>
        <g transform="matrix(1.10247,0,0,1.19493,0.0741401,-268.713)">
            <path d="M431.068,1015.25C593.485,1025.95 540.36,893.115 576.068,875.752C517.095,878.724 468.042,922.28 431.068,1015.25Z" style="fill:rgb(187,173,244);stroke:black;stroke-width:7.28px;"/>
        </g>
        <g transform="matrix(1.10247,0,0,1.19493,0.0741401,-268.713)">
            <path d="M192.443,1073.29C203.452,981.937 160.004,927.085 90.11,889.96C80.032,981.758 106.517,1048.16 192.443,1073.29Z" style="fill:rgb(166,153,222);stroke:black;stroke-width:7.28px;"/>
        </g>
        <g transform="matrix(1.10247,0,0,1.19493,0.0741401,-268.713)">
            <path d="M303.11,1030.63C267.57,1095.13 285.761,1161.12 347.11,1228.29C371.856,1134.13 360.142,1066.12 303.11,1030.63Z" style="fill:rgb(166,153,222);stroke:black;stroke-width:7.28px;"/>
        </g>
        <g transform="matrix(1.10247,0,0,1.19493,0.0741401,-268.713)">
            <path d="M97.266,902.468C134.329,963.386 163.197,1016.85 184.469,1063.42" style="fill:none;stroke:rgb(147,131,216);stroke-width:3.07px;"/>
        </g>
        <g transform="matrix(1.10247,0,0,1.19493,0.0741401,-268.713)">
            <path d="M180.701,1057.5L138.715,1028.43" style="fill:none;stroke:rgb(147,131,216);stroke-width:3.07px;"/>
        </g>
        <g transform="matrix(1.10247,0,0,1.19493,0.0741401,-268.713)">
            <path d="M161.861,1018.74L163.476,982.674" style="fill:none;stroke:rgb(147,131,216);stroke-width:3.07px;"/>
        </g>
        <g transform="matrix(1.10247,0,0,1.19493,0.0741401,-268.713)">
            <path d="M146.789,988.595L105.879,967.063" style="fill:none;stroke:rgb(147,131,216);stroke-width:3.07px;"/>
        </g>
        <g transform="matrix(1.10247,0,0,1.19493,0.0741401,-268.713)">
            <path d="M129.564,953.606L127.41,933.689" style="fill:none;stroke:rgb(147,131,216);stroke-width:3.07px;"/>
        </g>
        <g transform="matrix(1.10247,0,0,1.19493,0.0741401,-268.713)">
            <path d="M115.03,933.689L98.343,925.615" style="fill:none;stroke:rgb(147,131,216);stroke-width:3.07px;"/>
        </g>
    </g>
    <g id="Planta-2" serif:id="Planta 2">
        <g transform="matrix(1.40803,0,0,1.48928,-0.146817,-254.218)">
            <path d="M0.36,287.96C183.505,160.979 221.111,538.37 375.693,608.627" style="fill:none;stroke:black;stroke-width:5.78px;"/>
        </g>
        <g transform="matrix(1.40803,0,0,1.48928,-0.146817,-254.218)">
            <path d="M137.422,291.907C140.704,330.756 121.578,382.055 84.86,443.127" style="fill:none;stroke:black;stroke-width:5.78px;"/>
        </g>
        <g transform="matrix(1.40803,0,0,1.48928,-0.146817,-254.218)">
            <path d="M115.597,385.276L147.86,472.794" style="fill:none;stroke:black;stroke-width:5.78px;"/>
        </g>
        <g transform="matrix(1.40803,0,0,1.48928,-0.146817,-254.218)">
            <path d="M184.542,351.211C215.99,363.65 246.188,377.442 274.934,392.809C301.417,406.966 326.668,422.46 350.526,439.46" style="fill:none;stroke:black;stroke-width:5.78px;"/>
        </g>
        <g transform="matrix(1.40803,0,0,1.48928,-0.146817,-254.218)">
            <path d="M275.793,393.527C298.126,421.927 310.86,450.06 313.993,477.927" style="fill:none;stroke:black;stroke-width:5.78px;"/>
        </g>
        <g transform="matrix(1.40803,0,0,1.48928,-0.146817,-254.218)">
            <path d="M243.185,453.702C251.98,493.991 239.889,543.33 208.685,600.952" style="fill:none;stroke:black;stroke-width:5.78px;"/>
        </g>
        <g transform="matrix(1.40803,0,0,1.48928,-0.146817,-254.218)">
            <path d="M239.185,528.702C238.503,559.163 242.276,587.244 256.935,609.702" style="fill:none;stroke:black;stroke-width:5.78px;"/>
        </g>
        <g transform="matrix(1.40803,0,0,1.48928,-0.146817,-254.218)">
            <path d="M293.56,533.744C303.176,584.05 304.5,628.326 294.56,664.41" style="fill:none;stroke:black;stroke-width:5.78px;"/>
        </g>
        <g transform="matrix(1.40803,0,0,1.48928,-2.0242,-267.125)">
            <ellipse cx="294.226" cy="682.077" rx="12.167" ry="9.667" style="fill:rgb(253,218,42);stroke:black;stroke-width:5.78px;"/>
        </g>
        <g transform="matrix(1.43157,-0.886286,0.723528,1.30746,-549.153,34.0141)">
            <ellipse cx="294.226" cy="682.077" rx="12.167" ry="9.667" style="fill:rgb(253,218,42);stroke:black;stroke-width:5.39px;"/>
        </g>
        <g transform="matrix(0.251919,1.4688,-1.365,0.365346,1145.73,-26.7458)">
            <ellipse cx="294.226" cy="682.077" rx="12.167" ry="9.667" style="fill:rgb(253,218,42);stroke:black;stroke-width:5.52px;"/>
        </g>
        <g transform="matrix(0.251919,1.4688,-1.365,0.365346,1068.29,-213.899)">
            <ellipse cx="294.226" cy="682.077" rx="12.167" ry="9.667" style="fill:rgb(253,218,42);stroke:black;stroke-width:5.52px;"/>
        </g>
        <g transform="matrix(1.40385,0.153444,-0.0486905,1.48839,-262.331,-643.527)">
            <ellipse cx="294.226" cy="682.077" rx="12.167" ry="9.667" style="fill:rgb(253,218,42);stroke:black;stroke-width:5.56px;"/>
        </g>
        <g transform="matrix(1.40803,0,0,1.48928,127.984,-353.504)">
            <ellipse cx="294.226" cy="682.077" rx="12.167" ry="9.667" style="fill:rgb(253,218,42);stroke:black;stroke-width:5.78px;"/>
        </g>
        <g transform="matrix(0.251919,1.4688,-1.365,0.365346,1356.23,-264.286)">
            <ellipse cx="294.226" cy="682.077" rx="12.167" ry="9.667" style="fill:rgb(253,218,42);stroke:black;stroke-width:5.52px;"/>
        </g>
        <g transform="matrix(0.26806,1.56291,-1.78588,0.477993,1583.29,-312.962)">
            <ellipse cx="294.226" cy="682.077" rx="12.167" ry="9.667" style="fill:rgb(253,218,42);stroke:black;stroke-width:4.65px;"/>
        </g>
    </g>
    <g id="Flores-2" serif:id="Flores 2">
        <g transform="matrix(1.44978,0,0,1.22179,-170.697,10.944)">
            <path d="M634.393,-4.256C688.265,80.455 700.985,176.329 706.463,274.325" style="fill:none;stroke:black;stroke-width:6.24px;"/>
        </g>
        <g transform="matrix(1.44978,0,0,1.37535,-277.98,-92.0258)">
            <path d="M738.567,285.943C738.567,256.695 754.048,232.948 773.116,232.948C792.185,232.948 807.666,256.695 807.666,285.943C842.019,276.905 874.693,281.489 880.586,296.173C886.478,310.858 863.371,330.118 829.018,339.156C850.25,362.819 854.963,389.398 839.536,398.473C824.11,407.549 794.348,395.706 773.116,372.043C751.885,395.706 722.123,407.549 706.697,398.473C691.27,389.398 695.983,362.819 717.215,339.156C682.861,330.118 659.755,310.858 665.647,296.173C671.539,281.489 704.214,276.905 738.567,285.943Z" style="fill:rgb(255,156,156);stroke:black;stroke-width:5.92px;"/>
        </g>
        <g transform="matrix(0.43314,0.293162,-0.441748,0.463539,651.323,-23.1438)">
            <path d="M738.567,285.943C738.567,256.695 754.048,232.948 773.116,232.948C792.185,232.948 807.666,256.695 807.666,285.943C842.019,276.905 874.693,281.489 880.586,296.173C886.478,310.858 863.371,330.118 829.018,339.156C850.25,362.819 854.963,389.398 839.536,398.473C824.11,407.549 794.348,395.706 773.116,372.043C751.885,395.706 722.123,407.549 706.697,398.473C691.27,389.398 695.983,362.819 717.215,339.156C682.861,330.118 659.755,310.858 665.647,296.173C671.539,281.489 704.214,276.905 738.567,285.943Z" style="fill:rgb(255,133,133);"/>
        </g>
        <g transform="matrix(1.44978,0,0,1.22179,-170.697,10.944)">
            <ellipse cx="700.866" cy="280.448" rx="10.5" ry="11.25" style="fill:rgb(255,209,97);"/>
        </g>
        <g transform="matrix(0.898047,0.0925426,-0.159466,1.0234,278.394,-87.3374)">
            <path d="M1237.12,330.948C1237.12,330.948 1191.12,423.244 1191.12,462.799C1191.12,484.958 1211.73,502.948 1237.12,502.948C1262.5,502.948 1283.12,484.958 1283.12,462.799C1283.12,423.244 1237.12,330.948 1237.12,330.948Z" style="fill:rgb(142,230,231);stroke:black;stroke-width:8.85px;"/>
        </g>
        <g transform="matrix(0.533939,0.59446,-1.0104,0.600185,1009.15,-566.313)">
            <path d="M1237.12,330.948C1237.12,330.948 1191.12,429.029 1191.12,471.063C1191.12,488.661 1211.73,502.948 1237.12,502.948C1262.5,502.948 1283.12,488.661 1283.12,471.063C1283.12,429.029 1237.12,330.948 1237.12,330.948Z" style="fill:rgb(142,230,231);stroke:black;stroke-width:9.2px;"/>
        </g>
        <g transform="matrix(0.762112,0.397252,-0.684529,0.868493,620.934,-413.255)">
            <path d="M1237.12,330.948C1237.12,330.948 1191.12,425.879 1191.12,466.564C1191.12,486.645 1211.73,502.948 1237.12,502.948C1262.5,502.948 1283.12,486.645 1283.12,466.564C1283.12,425.879 1237.12,330.948 1237.12,330.948Z" style="fill:rgb(142,230,231);stroke:black;stroke-width:9.33px;"/>
        </g>
        <g transform="matrix(1.38802,0,0,1.12877,-447.577,0.736904)">
            <path d="M1329.87,-5.723C1353.07,102.835 1333.99,216.054 1285.47,324.277" style="fill:none;stroke:black;stroke-width:6.62px;"/>
        </g>
        <g transform="matrix(1.38802,0,0,1.12877,-447.577,0.736904)">
            <path d="M1332.05,175.277C1299.02,188.355 1268.44,182.241 1240.08,158.653C1272.61,149.841 1303.52,153.421 1332.05,175.277Z" style="fill:rgb(193,159,227);stroke:black;stroke-width:6.62px;"/>
        </g>
        <g transform="matrix(1.0937,0,0,1.12877,-44.782,-92.1044)">
            <path d="M1332.05,175.277C1299.02,188.355 1268.44,182.241 1240.08,158.653C1272.61,149.841 1303.52,153.421 1332.05,175.277Z" style="fill:rgb(193,159,227);stroke:black;stroke-width:7.53px;"/>
        </g>
        <g transform="matrix(1.0937,0,0,0.723342,-51.8907,-100.941)">
            <path d="M1332.05,175.277C1299.02,188.355 1268.44,182.241 1240.08,158.653C1272.61,149.841 1303.52,153.421 1332.05,175.277Z" style="fill:rgb(193,159,227);stroke:black;stroke-width:9.03px;"/>
        </g>
        <g transform="matrix(1.38802,0,0,1.12877,-447.577,0.736904)">
            <path d="M1311.32,257.704C1328.95,278.103 1352.68,283.489 1381.87,275.444C1366.56,254.342 1344.4,245.915 1311.32,257.704Z" style="fill:rgb(193,159,227);stroke:black;stroke-width:6.62px;"/>
        </g>
        <g transform="matrix(1.38802,0,0,1.12877,-447.577,0.736904)">
            <path d="M1311.32,257.704C1289.9,238.228 1263.96,232.697 1231.87,246.111C1243.56,254.669 1255.79,260.235 1268.66,262.421C1282.15,264.713 1296.34,263.289 1311.32,257.704Z" style="fill:rgb(193,159,227);stroke:black;stroke-width:6.62px;"/>
        </g>
        <path d="M1277.33,280.094L1357,289.094" style="fill:none;stroke:rgb(144,128,215);stroke-width:3.53px;"/>
        <path d="M1383.5,293.594L1458,308.094" style="fill:none;stroke:rgb(144,128,215);stroke-width:3.53px;"/>
        <path d="M1289.58,182.578L1384.38,196.378" style="fill:none;stroke:rgb(144,128,215);stroke-width:3.53px;"/>
        <g transform="matrix(1.38802,0,0,1.12877,-447.577,0.736904)">
            <path d="M1331.08,174.902C1359.74,193.418 1387.51,193.136 1408.83,183.652C1385.71,164.236 1358.87,162.319 1331.08,174.902Z" style="fill:rgb(193,159,227);stroke:black;stroke-width:6.62px;"/>
        </g>
        <g transform="matrix(1.37187,-0.171673,0.211102,1.11564,-451.336,139.216)">
            <path d="M1331.08,174.902C1359.74,193.418 1387.51,193.136 1408.83,183.652C1385.71,164.236 1358.87,162.319 1331.08,174.902Z" style="fill:rgb(193,159,227);stroke:black;stroke-width:6.42px;"/>
        </g>
        <g transform="matrix(1.37187,-0.171673,0.167122,0.883213,-450.106,98.4828)">
            <path d="M1331.08,174.902C1359.74,193.418 1387.51,193.136 1408.83,183.652C1385.71,164.236 1358.87,162.319 1331.08,174.902Z" style="fill:rgb(193,159,227);stroke:black;stroke-width:6.98px;"/>
        </g>
        <path d="M1415.78,199.378L1490.38,205.378" style="fill:none;stroke:rgb(144,128,215);stroke-width:3.53px;"/>
        <path d="M1398.58,103.178L1324.78,89.578" style="fill:none;stroke:rgb(144,128,215);stroke-width:3.53px;"/>
        <path d="M1428.18,104.378L1500.58,101.178" style="fill:none;stroke:rgb(144,128,215);stroke-width:3.53px;"/>
        <path d="M1385.18,22.978L1324.78,16.378" style="fill:none;stroke:rgb(144,128,215);stroke-width:3.53px;"/>
        <path d="M1424.38,22.378L1493.38,17.778" style="fill:none;stroke:rgb(144,128,215);stroke-width:3.53px;"/>
    </g>
    <g id="Flor-3" serif:id="Flor 3">
        <g transform="matrix(1.48695,0,0,1.46338,-758.583,-928.072)">
            <path d="M1359.82,1774.82C1438.95,1844.26 1505.36,1920.06 1557.82,2002.82" style="fill:none;stroke:black;stroke-width:5.65px;"/>
        </g>
        <g transform="matrix(1.48695,0,0,1.45621,-770.479,-885.309)">
            <path d="M1343.87,1708.51C1343.87,1653.77 1349.15,1609.32 1355.65,1609.32C1362.16,1609.32 1367.44,1653.77 1367.44,1708.51C1399.14,1664.22 1429.15,1631.42 1434.42,1635.3C1439.68,1639.18 1418.21,1678.28 1386.51,1722.57C1437.81,1705.66 1481.09,1697.02 1483.1,1703.3C1485.11,1709.57 1445.09,1728.41 1393.79,1745.32C1445.09,1762.24 1485.11,1781.07 1483.1,1787.35C1481.09,1793.63 1437.81,1784.99 1386.51,1768.07C1418.21,1812.36 1439.68,1851.47 1434.42,1855.35C1429.15,1859.23 1399.14,1826.42 1367.44,1782.13C1367.44,1836.88 1362.16,1881.32 1355.65,1881.32C1349.15,1881.32 1343.87,1836.88 1343.87,1782.13C1312.16,1826.42 1282.15,1859.23 1276.89,1855.35C1271.63,1851.47 1293.1,1812.36 1324.8,1768.07C1273.5,1784.99 1230.22,1793.63 1228.21,1787.35C1226.2,1781.07 1266.22,1762.24 1317.52,1745.32C1266.22,1728.41 1226.2,1709.57 1228.21,1703.3C1230.22,1697.02 1273.5,1705.66 1324.8,1722.57C1293.1,1678.28 1271.63,1639.18 1276.89,1635.3C1282.15,1631.42 1312.16,1664.22 1343.87,1708.51Z" style="fill:rgb(180,167,236);stroke:black;stroke-width:5.66px;"/>
        </g>
        <g transform="matrix(1.2,0,0,1.43289,-360.706,-863.597)">
            <ellipse cx="1337.32" cy="1754.82" rx="28.5" ry="24" style="fill:rgb(255,237,0);"/>
        </g>
    </g>
    <g id="Camada14">
        <g transform="matrix(-0.175895,-1.39509,1.20396,-0.151797,-220.24,2006.65)">
            <path d="M200.11,1474.96C237.265,1491.19 268.243,1511.16 292.628,1535.12C319.593,1561.62 338.497,1593.01 348.776,1629.63C277.388,1686.54 202.167,1703.85 125.443,1705.63C134.264,1618.26 150.311,1535.6 200.11,1474.96Z" style="fill:rgb(255,119,235);stroke:black;stroke-width:6.37px;"/>
        </g>
        <g transform="matrix(-0.175895,-1.39509,1.20396,-0.151797,-220.24,2006.65)">
            <path d="M125.443,1704.96C74.258,1788.33 82.179,1758.52 46.785,1854.95" style="fill:none;stroke:black;stroke-width:6.37px;"/>
        </g>
        <g transform="matrix(-0.175895,-1.39509,1.20396,-0.151797,-220.24,2006.65)">
            <path d="M322.151,1503.09L292.651,1535.84" style="fill:none;stroke:black;stroke-width:6.37px;"/>
        </g>
        <g transform="matrix(-0.175895,-1.39509,1.20396,-0.151797,-220.24,2006.65)">
            <path d="M320.303,1497.98C320.303,1500.08 321.428,1502.5 322.636,1504.32C323.602,1505.76 324.451,1507.46 325.636,1508.65C329.276,1512.29 334.221,1507.77 336.303,1504.65C340.227,1498.76 335.606,1485.32 327.636,1485.32C323.073,1485.32 318.777,1492.02 319.636,1496.32C320.321,1499.74 322.575,1502.59 324.969,1504.98" style="fill:rgb(142,230,231);stroke:black;stroke-width:6.35px;"/>
        </g>
        <g transform="matrix(-0.175895,-1.39509,1.20396,-0.151797,-220.24,2006.65)">
            <path d="M289.583,1541.63L132.772,1698.68" style="fill:none;stroke:rgb(171,46,153);stroke-opacity:0.98;stroke-width:2.38px;"/>
        </g>
        <g transform="matrix(-0.175895,-1.39509,1.20396,-0.151797,-176.808,1955.82)">
            <path d="M297.083,1552.63C259.392,1613.06 184.054,1636.34 101.022,1657.43" style="fill:none;stroke:rgb(171,46,153);stroke-opacity:0.98;stroke-width:2.38px;"/>
        </g>
        <g transform="matrix(0.00646009,-1.23103,1.02133,-0.316105,-22.6039,2269.74)">
            <path d="M274.022,1532.86C200.332,1597.21 164.984,1690.58 115.391,1785.08" style="fill:none;stroke:rgb(171,46,153);stroke-opacity:0.98;stroke-width:2.38px;"/>
        </g>
    </g>
    <g id="Camada111" serif:id="Camada11">
        <g transform="matrix(-0.167843,0.985814,-0.985814,-0.167843,1942.73,233.975)">
            <path d="M2001.49,1652.16L1757.49,1514.16C1681.62,1582.55 1594.33,1602.6 1488.24,1542.99" style="fill:none;stroke:black;stroke-width:8.37px;"/>
        </g>
        <g transform="matrix(-0.167843,0.985814,-0.985814,-0.167843,1942.73,233.975)">
            <path d="M1757.49,1514.16C1670.67,1567.96 1588.17,1570.74 1510.24,1519.65" style="fill:none;stroke:black;stroke-width:8.37px;"/>
        </g>
        <g transform="matrix(-0.167843,0.985814,-0.985814,-0.167843,1942.73,233.975)">
            <path d="M1757.49,1514.16C1678.9,1552.55 1601.93,1549.04 1526.91,1494.99" style="fill:none;stroke:black;stroke-width:8.37px;"/>
        </g>
        <g transform="matrix(-0.167843,0.985814,-0.985814,-0.167843,1942.73,233.975)">
            <path d="M1757.49,1514.16C1682.38,1538.34 1610.01,1520.58 1540.24,1462.99" style="fill:none;stroke:black;stroke-width:8.37px;"/>
        </g>
        <g transform="matrix(-0.167843,0.985814,-0.985814,-0.167843,1942.73,233.975)">
            <path d="M1757.49,1514.16C1692.75,1520.36 1631.2,1495.45 1573.57,1432.32" style="fill:none;stroke:black;stroke-width:8.37px;"/>
        </g>
        <g transform="matrix(-0.167843,0.985814,-0.985814,-0.167843,1942.73,233.975)">
            <path d="M1757.49,1514.16C1700.87,1504.33 1648.64,1469.03 1600.91,1407.65" style="fill:none;stroke:black;stroke-width:8.37px;"/>
        </g>
        <g transform="matrix(-0.167843,0.985814,-0.985814,-0.167843,1942.73,233.975)">
            <path d="M1757.49,1514.16C1708.71,1484.04 1663.02,1438.44 1619.57,1381.65" style="fill:none;stroke:black;stroke-width:8.37px;"/>
        </g>
        <g transform="matrix(-0.167843,0.985814,-0.985814,-0.167843,1942.73,233.975)">
            <path d="M1757.49,1514.16C1735.23,1483.63 1712.98,1452.31 1690.72,1420.4C1675.23,1398.19 1659.73,1375.7 1644.24,1352.99" style="fill:none;stroke:black;stroke-width:8.37px;"/>
        </g>
        <g transform="matrix(-0.167843,0.985814,-0.985814,-0.167843,1942.73,233.975)">
            <path d="M1757.49,1514.16C1738.17,1441.97 1711.34,1379.61 1668.91,1337.65" style="fill:none;stroke:black;stroke-width:8.37px;"/>
        </g>
        <g transform="matrix(-0.167843,0.985814,-0.985814,-0.167843,1942.73,233.975)">
            <path d="M1757.49,1514.16C1750.22,1443.23 1734.87,1375.46 1695.57,1316.99" style="fill:none;stroke:black;stroke-width:8.37px;"/>
        </g>
        <g transform="matrix(-0.167843,0.985814,-0.985814,-0.167843,1942.73,233.975)">
            <path d="M1757.49,1514.16C1761.35,1440.91 1754.17,1368.67 1718.91,1298.99" style="fill:none;stroke:black;stroke-width:8.37px;"/>
        </g>
        <g transform="matrix(-0.167843,0.985814,-0.985814,-0.167843,1942.73,233.975)">
            <path d="M1757.49,1514.16C1775.57,1427.11 1775.72,1346.25 1742.24,1276.99" style="fill:none;stroke:black;stroke-width:8.37px;"/>
        </g>
        <g transform="matrix(-0.167843,0.985814,-0.985814,-0.167843,1942.73,233.975)">
            <path d="M1757.49,1514.16C1797.65,1426.89 1803.2,1329.29 1766.91,1259.8" style="fill:none;stroke:black;stroke-width:8.37px;"/>
        </g>
        <g transform="matrix(-0.167843,0.985814,-0.985814,-0.167843,1942.73,233.975)">
            <path d="M1484.74,1541.14C1484.74,1543.51 1487.25,1544.63 1488.91,1542.97C1489.11,1542.77 1488.87,1540.93 1488.74,1540.81C1488.35,1540.42 1488.1,1539.67 1487.74,1539.31C1486.57,1538.13 1484.69,1539.23 1484.07,1540.47C1483.84,1540.94 1484.15,1542.81 1484.57,1542.81" style="fill:rgb(255,227,0);stroke:black;stroke-width:8.37px;"/>
        </g>
        <g transform="matrix(-0.167843,0.985814,-0.985814,-0.167843,1942.73,233.975)">
            <path d="M1506.41,1517.64C1505.49,1519.48 1510.57,1521.45 1510.57,1517.97C1510.57,1517.42 1510.41,1516.99 1510.24,1516.47C1510.07,1515.95 1509.78,1514.91 1509.24,1514.64C1505.53,1512.78 1504.6,1518.81 1507.41,1518.81" style="fill:rgb(255,227,0);stroke:black;stroke-width:8.37px;"/>
        </g>
        <g transform="matrix(-0.167843,0.985814,-0.985814,-0.167843,1942.73,233.975)">
            <path d="M1523.57,1493.81C1523.57,1495.59 1526.85,1495.76 1527.57,1494.31C1527.95,1493.54 1527.65,1492.87 1527.41,1492.14C1527.21,1491.54 1526.97,1491.35 1526.41,1490.97C1525.93,1490.66 1525.62,1490.44 1525.07,1490.31C1521.72,1489.47 1523.99,1494.56 1524.91,1495.47" style="fill:rgb(255,227,0);stroke:black;stroke-width:8.37px;"/>
        </g>
        <g transform="matrix(-0.167843,0.985814,-0.985814,-0.167843,1942.73,233.975)">
            <path d="M1539.91,1463.47C1539.65,1463.73 1540.68,1463.09 1540.91,1462.64C1541.39,1461.67 1540.62,1459.9 1540.24,1459.14C1539.51,1457.68 1535.87,1456.55 1534.91,1458.47C1533.84,1460.61 1535.98,1463.09 1537.41,1463.81C1537.66,1463.93 1538.91,1464.8 1539.24,1464.47C1540.02,1463.69 1540.97,1463.24 1541.74,1462.47" style="fill:rgb(255,227,0);stroke:black;stroke-width:8.37px;"/>
        </g>
        <g transform="matrix(-0.167843,0.985814,-0.985814,-0.167843,1942.73,233.975)">
            <path d="M1572.91,1431.47C1573.2,1431.76 1573.49,1425.93 1571.07,1427.14C1568.1,1428.62 1570.55,1431.45 1571.74,1432.64C1572.23,1433.13 1574.13,1431.14 1573.07,1431.14" style="fill:rgb(255,227,0);stroke:black;stroke-width:8.37px;"/>
        </g>
        <g transform="matrix(-0.167843,0.985814,-0.985814,-0.167843,1942.73,233.975)">
            <path d="M1600.57,1407.31C1600.57,1408.24 1601.07,1406.15 1601.07,1405.64C1601.07,1404.4 1600.69,1402.93 1599.91,1402.14C1599.47,1401.7 1598.18,1400.69 1597.41,1401.47C1595.5,1403.38 1595.85,1406.24 1597.57,1407.97C1598.4,1408.8 1600.91,1407.73 1600.91,1407.64" style="fill:rgb(255,227,0);stroke:black;stroke-width:8.37px;"/>
        </g>
        <g transform="matrix(-0.167843,0.985814,-0.985814,-0.167843,1942.73,233.975)">
            <path d="M1619.07,1380.97C1619.52,1381.16 1619.85,1379.7 1620.07,1379.47C1621.32,1378.22 1618.76,1374.21 1616.91,1375.14C1615.53,1375.83 1613.84,1378.74 1615.41,1380.31C1615.86,1380.76 1617.51,1381.37 1618.07,1380.81C1618.15,1380.73 1619.62,1380.64 1618.91,1380.64" style="fill:rgb(255,227,0);stroke:black;stroke-width:8.37px;"/>
        </g>
        <g transform="matrix(-0.167843,0.985814,-0.985814,-0.167843,1942.73,233.975)">
            <path d="M1643.91,1352.14C1643.7,1352.35 1645.31,1349.88 1644.24,1348.81C1643.45,1348.02 1642.44,1346.27 1640.91,1347.81C1639.24,1349.47 1640.28,1351.84 1641.41,1352.97C1641.89,1353.45 1644.78,1352.85 1644.24,1352.31" style="fill:rgb(255,227,0);stroke:black;stroke-width:8.37px;"/>
        </g>
        <g transform="matrix(-0.167843,0.985814,-0.985814,-0.167843,1942.73,233.975)">
            <path d="M1668.41,1337.14C1668.77,1336.77 1668.95,1336.59 1669.24,1336.31C1670.16,1335.38 1668.07,1332.47 1666.74,1333.81C1666.05,1334.5 1665.18,1336.44 1666.91,1337.31C1667.34,1337.52 1669.24,1337.64 1669.24,1336.97" style="fill:rgb(255,227,0);stroke:black;stroke-width:8.37px;"/>
        </g>
        <g transform="matrix(-0.167843,0.985814,-0.985814,-0.167843,1942.73,233.975)">
            <path d="M1695.41,1315.97C1695.41,1316.2 1695.24,1316.64 1695.24,1316.64C1695.24,1316.64 1696.79,1313.85 1695.91,1312.97C1695.25,1312.32 1694.02,1312.75 1693.24,1313.14C1692.86,1313.33 1692.62,1313.42 1692.41,1313.64C1690.43,1315.61 1695.91,1319.01 1695.91,1316.31" style="fill:rgb(255,227,0);stroke:black;stroke-width:8.37px;"/>
        </g>
        <g transform="matrix(-0.167843,0.985814,-0.985814,-0.167843,1942.73,233.975)">
            <path d="M1718.57,1298.47C1718.29,1298.18 1718.89,1298.65 1719.24,1298.31C1719.47,1298.08 1720.08,1297.14 1719.74,1296.47C1719.36,1295.71 1718.97,1295.87 1718.57,1295.47C1716.85,1293.74 1714.11,1297.24 1716.24,1298.31C1716.8,1298.58 1717.4,1298.64 1718.24,1298.64C1718.76,1298.64 1718.74,1298.31 1719.07,1297.97" style="fill:rgb(255,227,0);stroke:black;stroke-width:8.37px;"/>
        </g>
        <g transform="matrix(-0.167843,0.985814,-0.985814,-0.167843,1944.73,233.771)">
            <path d="M1741.91,1275.81C1742.68,1275.81 1742.41,1274.28 1742.41,1273.64C1742.41,1271.98 1740.22,1270.16 1738.57,1271.81C1737.84,1272.54 1737.09,1274.33 1737.74,1275.64C1738.27,1276.68 1739.48,1276.54 1740.07,1277.14C1740.62,1277.68 1742.51,1276.24 1742.07,1275.81" style="fill:rgb(255,227,0);stroke:black;stroke-width:8.37px;"/>
        </g>
        <g transform="matrix(-0.167843,0.985814,-0.985814,-0.167843,1942.73,233.975)">
            <path d="M1766.41,1259.14C1766.41,1259.37 1766.57,1259.81 1766.57,1259.81C1766.57,1259.81 1767.44,1257.9 1767.91,1256.97C1768.6,1255.58 1767.21,1254.7 1766.41,1254.31C1766.19,1254.2 1764.82,1253.89 1764.57,1254.14C1762.95,1255.76 1764.24,1258.8 1765.91,1259.64C1766.76,1260.07 1767.34,1259.14 1767.91,1259.14" style="fill:rgb(255,227,0);stroke:black;stroke-width:8.37px;"/>
        </g>
    </g>
    <g id="Camada7">
        <g transform="matrix(1.23509,0,0,1.2732,-470.658,-43.9164)">
            <path d="M2002.04,201.749C1869.18,243.559 1759.91,348.271 1667.04,496.749" style="fill:none;stroke:black;stroke-width:6.67px;"/>
        </g>
        <g transform="matrix(1.23509,0,0,1.2732,-470.658,-43.9164)">
            <path d="M1887.33,256.705C1814.57,250.209 1756.46,212.589 1705.04,160.749C1784.53,171.418 1855.91,184.57 1887.33,256.705Z" style="fill:rgb(255,149,169);stroke:black;stroke-width:6.67px;"/>
        </g>
        <g transform="matrix(1.23509,0,0,1.2732,-470.658,-43.9164)">
            <path d="M1797.04,326.749C1801.58,393.987 1822.84,453.51 1862.04,504.749C1891.17,417.961 1866.59,360.203 1797.04,326.749Z" style="fill:rgb(255,149,169);stroke:black;stroke-width:6.67px;"/>
        </g>
        <g transform="matrix(1.23509,0,0,1.2732,-470.658,-43.9164)">
            <path d="M1662.02,594.138C1661.77,594.387 1660.14,594.519 1659.57,594.804C1658.86,595.159 1659.02,596.034 1659.02,596.693C1659.02,597.942 1661.7,599.628 1662.9,599.027C1663.45,598.751 1664.04,598.669 1664.35,598.36C1665.06,597.65 1664.37,594.537 1663.35,594.027C1662.57,593.639 1661.72,593.915 1660.9,593.915" style="fill:rgb(255,232,0);stroke:black;stroke-width:6.67px;"/>
        </g>
        <g transform="matrix(1.23509,0,0,1.2732,-470.658,-43.9164)">
            <path d="M1683.46,595.693C1680.25,595.693 1682.09,601.322 1685.35,599.693C1687.18,598.779 1685.73,595.117 1684.13,594.582C1682.93,594.182 1682.56,596.582 1682.79,596.582" style="fill:rgb(255,232,0);stroke:black;stroke-width:6.67px;"/>
        </g>
        <g transform="matrix(1.23509,0,0,1.2732,-470.658,-43.9164)">
            <path d="M1706.02,588.693C1705.54,589.64 1704.98,590.724 1705.57,591.915C1706.12,593.014 1708.22,593.499 1708.9,592.138C1709.49,590.964 1709.14,588.7 1707.79,588.027C1707.39,587.825 1706.78,587.312 1706.24,587.582C1705.66,587.871 1704.97,589.758 1705.46,590.249" style="fill:rgb(255,232,0);stroke:black;stroke-width:6.67px;"/>
        </g>
        <g transform="matrix(1.23509,0,0,1.2732,-470.658,-43.9164)">
            <path d="M1729.35,579.915C1728.78,579.915 1728.73,581.061 1728.9,581.582C1729.34,582.896 1731.5,584.84 1732.57,582.693C1733.32,581.194 1732.01,577.865 1730.13,578.804C1729.56,579.087 1728.91,581.804 1729.24,581.804" style="fill:rgb(255,232,0);stroke:black;stroke-width:6.67px;"/>
        </g>
        <g transform="matrix(1.23509,0,0,1.2732,-470.658,-43.9164)">
            <path d="M1746.68,566.027C1745.31,566.715 1746.7,568.26 1747.57,568.693C1748.2,569.006 1748.69,568.134 1749.13,567.915C1749.41,567.774 1749.53,567.328 1749.68,567.027C1750.24,565.914 1748.86,563.716 1747.57,564.36C1746.71,564.791 1746.68,565.805 1746.68,566.693" style="fill:rgb(255,232,0);stroke:black;stroke-width:6.67px;"/>
        </g>
        <g transform="matrix(1.23509,0,0,1.2732,-470.658,-43.9164)">
            <path d="M1758.13,542.582C1756.88,545.07 1759.86,546.905 1761.24,544.138C1761.73,543.154 1760.71,540.291 1759.24,541.027C1758.21,541.542 1757.57,542.807 1757.57,544.027" style="fill:rgb(255,232,0);stroke:black;stroke-width:6.67px;"/>
        </g>
        <g transform="matrix(1.23509,0,0,1.2732,-470.658,-43.9164)">
            <path d="M1767.57,520.138C1766.16,520.846 1767.97,524.293 1769.68,522.582C1770.31,521.956 1771.06,519.826 1769.9,519.249C1769.52,519.054 1768.43,518.17 1767.79,518.804C1767.26,519.337 1767.37,520.56 1766.79,521.138" style="fill:rgb(255,232,0);stroke:black;stroke-width:6.67px;"/>
        </g>
        <g transform="matrix(1.23509,0,0,1.2732,-470.658,-43.9164)">
            <path d="M1764.79,498.138C1764.34,497.679 1764.37,498.98 1764.46,499.249C1764.74,500.088 1765.18,502.224 1766.68,501.471C1768.18,500.722 1768.98,497.884 1767.57,496.471C1766.69,495.592 1765.05,495.959 1764.46,497.138C1764.33,497.4 1764.25,499.138 1764.13,499.138" style="fill:rgb(255,232,0);stroke:black;stroke-width:6.67px;"/>
        </g>
        <g transform="matrix(1.23509,0,0,1.2732,-470.658,-43.9164)">
            <path d="M1757.24,472.582C1757.24,475.49 1762.29,474.358 1760.9,471.582C1760.77,471.302 1760.8,470.815 1760.57,470.582C1760.18,470.195 1759.66,469.737 1759.13,469.471C1757.38,468.597 1756.8,472.259 1757.79,473.249" style="fill:rgb(255,232,0);stroke:black;stroke-width:6.67px;"/>
        </g>
        <g transform="matrix(1.23509,0,0,1.2732,-470.658,-43.9164)">
            <path d="M1733.35,449.582C1732.96,449.19 1733.84,452.424 1734.9,451.36C1736.1,450.166 1734.74,448.306 1733.57,447.915C1732.22,447.466 1732.62,450.693 1733.13,450.693" style="fill:rgb(255,232,0);stroke:black;stroke-width:6.67px;"/>
        </g>
        <g transform="matrix(1.23509,0,0,1.2732,-470.658,-43.9164)">
            <path d="M1720.13,444.249C1720.13,444.918 1721.51,446.603 1722.13,445.36C1722.62,444.375 1721.57,441.768 1720.13,442.249C1718.67,442.734 1719.46,445.471 1720.9,445.471" style="fill:rgb(255,232,0);stroke:black;stroke-width:6.67px;"/>
        </g>
        <g transform="matrix(1.23509,0,0,1.2732,-470.658,-43.9164)">
            <path d="M1698.9,436.471C1698.9,436.928 1700.09,438.505 1700.79,437.804C1701.54,437.057 1701.28,435.214 1700.24,434.693C1698.24,433.696 1698.1,436.886 1699.02,437.804" style="fill:rgb(255,232,0);stroke:black;stroke-width:6.67px;"/>
        </g>
        <g transform="matrix(1.23509,0,0,1.2732,-470.658,-43.9164)">
            <path d="M1686.46,434.138C1685.92,434.674 1687.8,435.685 1688.46,435.027C1689.43,434.054 1687.33,431.515 1686.13,431.915C1685.12,432.251 1685.13,433.761 1685.68,434.582C1685.89,434.897 1686.43,435.498 1686.79,435.138" style="fill:rgb(255,232,0);stroke:rgb(10,0,2);stroke-width:6.67px;"/>
        </g>
        <g transform="matrix(1.23509,0,0,1.2732,-470.658,-43.9164)">
            <path d="M1675.9,418.915C1675.9,421.565 1679.92,418.812 1677.57,417.249C1677.24,417.03 1676.79,416.694 1676.35,416.804C1674.59,417.244 1674.86,420.027 1676.68,420.027" style="fill:rgb(255,232,0);stroke:rgb(10,0,2);stroke-width:6.67px;"/>
        </g>
        <g transform="matrix(1.23509,0,0,1.2732,-470.658,-43.9164)">
            <path d="M1654.35,415.138C1655.98,416.765 1658.37,414.227 1656.24,412.804C1655.33,412.195 1652.96,412.638 1653.46,414.138C1653.75,415.008 1654.5,415.283 1655.02,415.804" style="fill:rgb(255,232,0);stroke:rgb(10,0,2);stroke-width:6.67px;"/>
        </g>
        <g transform="matrix(1.23509,0,0,1.2732,-470.658,-43.9164)">
            <path d="M1639.68,413.36C1639.27,413.777 1641.23,414.261 1641.68,413.36C1642.57,411.589 1640.11,410.115 1638.57,411.138C1637.21,412.043 1639.24,414.916 1640.79,413.36" style="fill:rgb(255,232,0);stroke:rgb(10,0,2);stroke-width:6.67px;"/>
        </g>
        <g transform="matrix(1.23509,0,0,1.2732,-470.658,-43.9164)">
            <path d="M1613.68,413.027C1613.23,413.479 1614.57,413.804 1614.9,413.693C1615.92,413.355 1616.6,411.48 1615.24,411.027C1614.56,410.8 1613.09,410.927 1612.79,411.804C1612.55,412.54 1612.93,413.804 1613.79,413.804" style="fill:rgb(255,232,0);stroke:rgb(10,0,2);stroke-width:6.67px;"/>
        </g>
        <g transform="matrix(1.23509,0,0,1.2732,-470.658,-43.9164)">
            <path d="M1585.35,427.471C1584.98,428.218 1586.04,428.626 1586.57,428.36C1588.16,427.567 1587.56,423.862 1585.57,424.36C1583.01,425.001 1584.49,428.165 1585.57,429.249" style="fill:rgb(255,232,0);stroke:rgb(10,0,2);stroke-width:6.67px;"/>
        </g>
        <g transform="matrix(1.23509,0,0,1.2732,-470.658,-43.9164)">
            <path d="M1577.68,439.582C1579.6,441.498 1580.3,435.45 1578.24,436.138C1576.14,436.838 1576.88,440.249 1579.02,440.249" style="fill:rgb(255,232,0);stroke:rgb(10,0,2);stroke-width:6.67px;"/>
        </g>
        <g transform="matrix(1.23509,0,0,1.2732,-470.658,-43.9164)">
            <path d="M1559.13,451.249C1560.95,451.249 1560.5,447.716 1558.24,448.471C1558.06,448.531 1557.54,448.672 1557.46,448.915C1557.17,449.778 1557.18,451.414 1558.35,451.804C1558.84,451.968 1560.02,451.774 1560.02,451.027" style="fill:rgb(255,232,0);stroke:rgb(10,0,2);stroke-width:6.67px;"/>
        </g>
        <g transform="matrix(1.23509,0,0,1.2732,-470.658,-43.9164)">
            <path d="M1558.13,488.36C1558.92,487.564 1557.6,484.423 1556.13,484.915C1555.34,485.179 1555.35,486.567 1555.46,487.138C1555.57,487.689 1555.56,488.462 1556.02,488.915C1557.98,490.881 1560.16,488.06 1558.46,486.36" style="fill:rgb(255,232,0);stroke:rgb(10,0,2);stroke-width:6.67px;"/>
        </g>
        <g transform="matrix(1.23509,0,0,1.2732,-470.658,-43.9164)">
            <path d="M1563.35,519.249C1563.35,518.779 1563.3,517.422 1562.9,517.027C1561.52,515.642 1560.19,517.537 1560.68,519.027C1560.86,519.558 1562.49,521.77 1563.24,521.027C1563.91,520.351 1563.48,519.271 1562.9,518.693" style="fill:rgb(255,232,0);stroke:rgb(10,0,2);stroke-width:6.67px;"/>
        </g>
        <g transform="matrix(1.23509,0,0,1.2732,-470.658,-43.9164)">
            <path d="M1568.13,541.471C1569.27,540.325 1566.27,538.076 1565.24,540.138C1564.14,542.342 1568.57,544.961 1568.57,541.915" style="fill:rgb(255,232,0);stroke:rgb(10,0,2);stroke-width:6.67px;"/>
        </g>
        <g transform="matrix(1.23509,0,0,1.2732,-470.658,-43.9164)">
            <path d="M1581.9,559.471C1581.9,557.796 1579.94,555.146 1579.02,557.915C1578.59,559.202 1581.25,561.352 1582.35,560.804C1583.36,560.3 1581.9,557.035 1581.13,557.804" style="fill:rgb(255,232,0);stroke:rgb(10,0,2);stroke-width:6.67px;"/>
        </g>
        <g transform="matrix(1.23509,0,0,1.2732,-470.658,-43.9164)">
            <path d="M1600.02,570.804C1600.37,570.45 1598.68,568.691 1598.02,570.027C1597.12,571.813 1599.13,573.805 1600.9,572.915C1602.22,572.26 1599.94,570.249 1599.35,570.249" style="fill:rgb(255,232,0);stroke:rgb(10,0,2);stroke-width:6.67px;"/>
        </g>
        <g transform="matrix(1.23509,0,0,1.2732,-470.658,-43.9164)">
            <path d="M1619.9,586.582C1619.81,586.632 1619.5,586.958 1619.46,586.915C1619.23,586.689 1618.37,585.675 1617.79,586.249C1617.37,586.678 1617.88,587.766 1618.13,588.138C1618.88,589.268 1619.56,590.42 1621.02,589.693C1622.36,589.021 1620.63,586.751 1619.79,586.471C1619.51,586.377 1618.68,586.154 1618.68,586.582" style="fill:rgb(255,232,0);stroke:rgb(10,0,2);stroke-width:6.67px;"/>
        </g>
        <g transform="matrix(1.23509,0,0,1.2732,-470.658,-43.9164)">
            <path d="M1636.79,589.915C1632.97,589.915 1636.53,594.627 1638.79,592.36C1640.14,591.018 1637.02,588.574 1635.68,589.915" style="fill:rgb(255,232,0);stroke:rgb(10,0,2);stroke-width:6.67px;"/>
        </g>
        <g transform="matrix(1.23509,0,0,1.2732,-470.658,-43.9164)">
            <path d="M1666.88,496.749L1560.21,450.749" style="fill:none;stroke:black;stroke-width:6.67px;"/>
        </g>
        <g transform="matrix(1.23509,0,0,1.2732,-470.658,-43.9164)">
            <path d="M1666.88,496.749L1558.88,488.082" style="fill:none;stroke:black;stroke-width:6.67px;"/>
        </g>
        <g transform="matrix(1.23509,0,0,1.2732,-470.658,-43.9164)">
            <path d="M1666.88,496.749L1563.88,518.415" style="fill:none;stroke:black;stroke-width:6.67px;"/>
        </g>
        <g transform="matrix(1.23509,0,0,1.2732,-470.658,-43.9164)">
            <path d="M1666.88,496.749L1568.88,541.082" style="fill:none;stroke:black;stroke-width:6.67px;"/>
        </g>
        <g transform="matrix(1.23509,0,0,1.2732,-470.658,-43.9164)">
            <path d="M1666.88,496.749L1582.54,558.749" style="fill:none;stroke:black;stroke-width:6.67px;"/>
        </g>
        <g transform="matrix(1.23509,0,0,1.2732,-470.658,-43.9164)">
            <path d="M1666.88,496.749L1600.21,570.415" style="fill:none;stroke:black;stroke-width:6.67px;"/>
        </g>
        <g transform="matrix(1.23509,0,0,1.2732,-470.658,-43.9164)">
            <path d="M1666.88,496.749L1620.21,586.749" style="fill:none;stroke:black;stroke-width:6.67px;"/>
        </g>
        <g transform="matrix(1.23509,0,0,1.2732,-470.658,-43.9164)">
            <path d="M1666.88,496.749L1637.54,589.749" style="fill:none;stroke:black;stroke-width:6.67px;"/>
        </g>
        <g transform="matrix(1.23509,0,0,1.2732,-470.658,-43.9164)">
            <path d="M1666.88,496.749L1661.88,594.415" style="fill:none;stroke:black;stroke-width:6.67px;"/>
        </g>
        <g transform="matrix(1.23509,0,0,1.2732,-470.658,-43.9164)">
            <path d="M1666.88,496.749L1683.21,595.749" style="fill:none;stroke:black;stroke-width:6.67px;"/>
        </g>
        <g transform="matrix(1.23509,0,0,1.2732,-470.658,-43.9164)">
            <path d="M1666.88,496.749L1705.88,589.082" style="fill:none;stroke:black;stroke-width:6.67px;"/>
        </g>
        <g transform="matrix(1.23509,0,0,1.2732,-470.658,-43.9164)">
            <path d="M1666.88,496.749L1729.21,579.415" style="fill:none;stroke:black;stroke-width:6.67px;"/>
        </g>
        <g transform="matrix(1.23509,0,0,1.2732,-470.658,-43.9164)">
            <path d="M1666.88,496.749L1746.54,565.749" style="fill:none;stroke:black;stroke-width:6.67px;"/>
        </g>
        <g transform="matrix(1.23509,0,0,1.2732,-470.658,-43.9164)">
            <path d="M1666.88,496.749L1757.88,542.749" style="fill:none;stroke:black;stroke-width:6.67px;"/>
        </g>
        <g transform="matrix(1.23509,0,0,1.2732,-470.658,-43.9164)">
            <path d="M1666.88,496.749L1767.21,520.749" style="fill:none;stroke:black;stroke-width:6.67px;"/>
        </g>
        <g transform="matrix(1.23509,0,0,1.2732,-470.658,-43.9164)">
            <path d="M1666.88,496.749L1764.54,498.415" style="fill:none;stroke:black;stroke-width:6.67px;"/>
        </g>
        <g transform="matrix(1.23509,0,0,1.2732,-470.658,-43.9164)">
            <path d="M1666.88,496.749L1757.21,472.415" style="fill:none;stroke:black;stroke-width:6.67px;"/>
        </g>
        <g transform="matrix(1.23509,0,0,1.2732,-470.658,-43.9164)">
            <path d="M1666.88,496.749L1733.21,450.082" style="fill:none;stroke:black;stroke-width:6.67px;"/>
        </g>
        <g transform="matrix(1.23509,0,0,1.2732,-470.658,-43.9164)">
            <path d="M1666.88,496.749L1720.21,445.415" style="fill:none;stroke:black;stroke-width:6.67px;"/>
        </g>
        <g transform="matrix(1.23509,0,0,1.2732,-470.658,-43.9164)">
            <path d="M1666.88,496.749L1699.54,437.415" style="fill:none;stroke:black;stroke-width:6.67px;"/>
        </g>
        <g transform="matrix(1.23509,0,0,1.2732,-470.658,-43.9164)">
            <path d="M1666.88,496.749L1686.88,435.082" style="fill:none;stroke:black;stroke-width:6.67px;"/>
        </g>
        <g transform="matrix(1.23509,0,0,1.2732,-470.658,-43.9164)">
            <path d="M1666.88,496.749L1676.54,420.082" style="fill:none;stroke:black;stroke-width:6.67px;"/>
        </g>
        <g transform="matrix(1.23509,0,0,1.2732,-470.658,-43.9164)">
            <path d="M1666.88,496.749L1655.54,416.082" style="fill:none;stroke:black;stroke-width:6.67px;"/>
        </g>
        <g transform="matrix(1.23509,0,0,1.2732,-470.658,-43.9164)">
            <path d="M1666.88,496.749L1640.54,414.082" style="fill:none;stroke:black;stroke-width:6.67px;"/>
        </g>
        <g transform="matrix(1.23509,0,0,1.2732,-470.658,-43.9164)">
            <path d="M1666.88,496.749L1615.21,413.749" style="fill:none;stroke:black;stroke-width:6.67px;"/>
        </g>
        <g transform="matrix(1.23509,0,0,1.2732,-470.658,-43.9164)">
            <path d="M1666.88,496.749L1586.88,427.415" style="fill:none;stroke:black;stroke-width:6.67px;"/>
        </g>
        <g transform="matrix(1.23509,0,0,1.2732,-470.658,-43.9164)">
            <path d="M1666.88,496.749L1579.54,438.749" style="fill:none;stroke:black;stroke-width:6.67px;"/>
        </g>
    </g>
    <g id="Camada8">
        <g transform="matrix(0.775862,0,0,0.811321,101.618,98.4222)">
            <path d="M738.911,484.537L764.954,557.782L849.233,557.782L781.05,603.049L807.094,676.293L738.911,631.026L670.728,676.293L696.771,603.049L628.588,557.782L712.867,557.782L738.911,484.537Z" style="fill:rgb(255,232,0);stroke:black;stroke-width:10.54px;"/>
        </g>
        <g transform="matrix(0.67067,0.330372,-0.441895,0.897067,631.216,-285.38)">
            <ellipse cx="1157.91" cy="691.537" rx="49.5" ry="19.5" style="stroke:black;stroke-width:9.48px;"/>
        </g>
        <path d="M1022.16,1234.37L1092.83,1198.04L1110.16,1226.37L1038.49,1259.37L1022.16,1234.37Z" style="stroke:black;stroke-width:8.37px;"/>
        <path d="M1038.49,1259.37L1071.83,1327.37" style="fill:none;stroke:black;stroke-width:8.37px;"/>
        <path d="M1110.16,1226.37L1149.49,1292.37" style="fill:none;stroke:black;stroke-width:8.37px;"/>
        <g transform="matrix(0.928769,-0.37066,0.37066,0.928769,-428.262,479.184)">
            <ellipse cx="1057.49" cy="1346.04" rx="22" ry="12.333" style="stroke:black;stroke-width:8.37px;"/>
        </g>
        <g transform="matrix(0.928769,-0.37066,0.37066,0.928769,-351.262,444.184)">
            <ellipse cx="1057.49" cy="1346.04" rx="22" ry="12.333" style="stroke:black;stroke-width:8.37px;"/>
        </g>
        <g transform="matrix(1,0,0,1,-62.4998,32.5)">
            <path d="M1196.3,687.374L1219.79,547.912" style="fill:none;stroke:black;stroke-width:8.37px;"/>
        </g>
        <path d="M1326.66,1012.2L1333.85,1030.86L1357.09,1030.86L1338.29,1042.39L1345.47,1061.05L1326.66,1049.52L1307.85,1061.05L1315.04,1042.39L1296.23,1030.86L1319.48,1030.86L1326.66,1012.2Z" style="fill:rgb(255,232,0);stroke:black;stroke-width:16.43px;"/>
        <path d="M1320.63,781.299L1324.63,993.299" style="fill:none;stroke:black;stroke-width:16.43px;"/>
        <g transform="matrix(0.901647,-0.432472,0.432472,0.901647,-469.665,695.219)">
            <path d="M1293.66,1337.6C1305.03,1309.2 1327.77,1309.2 1339.13,1323.4C1350.5,1337.6 1350.5,1366 1339.13,1394.4C1331.18,1415.7 1310.71,1437 1293.66,1451.2C1276.61,1437 1256.14,1415.7 1248.19,1394.4C1236.82,1366 1236.82,1337.6 1248.19,1323.4C1259.56,1309.2 1282.29,1309.2 1293.66,1337.6Z" style="fill:rgb(255,119,235);stroke:black;stroke-width:8.37px;"/>
        </g>
        <path d="M734.494,781.037C740.921,815.202 745.251,850.005 752.729,883.947" style="fill:none;stroke:black;stroke-width:16.43px;"/>
        <path d="M707.494,796.704C720.213,776.836 741.255,762.249 763.131,753.909C772.072,750.499 785.181,747.044 793.999,752.743C800.833,757.161 803.334,766.03 804.175,773.65C806.101,791.096 803.049,812.657 794.62,828.205C789.367,837.896 774.099,845.157 765.657,834.515C755.966,822.299 774.144,812.923 783.911,811.319C791.425,810.084 799.019,812.208 806.033,814.763C820.566,820.058 834.638,827.841 837.144,844.744C840.388,866.637 819.454,882.836 801.091,888.823C778.012,896.348 746.938,897.132 724.899,886.022C715.199,881.132 707.379,873.41 700.066,865.53" style="fill:none;stroke:black;stroke-width:16.43px;"/>
        <path d="M879.494,807.037C888.772,808.218 898.165,808.256 907.449,807.1C913.642,806.329 919.792,805.016 925.659,802.865C943.231,796.423 948.121,774.574 930.775,763.664C913.957,753.085 889.817,764.832 880.431,780.194C876.438,786.729 874.287,794.575 874.098,802.214C873.58,823.108 889.608,836.496 908.968,840.105C930.388,844.098 952.665,836.942 966.29,819.752" style="fill:none;stroke:black;stroke-width:16.43px;"/>
        <path d="M1040.58,896.621C1026.39,927.483 1024.34,965.366 1021.97,998.939C1021.25,1009.09 1021.45,1019.28 1020.79,1029.43C1020.66,1031.43 1021.37,1038.23 1019.73,1039.84C1015.08,1044.42 1002.81,1037.52 999.288,1034.75C984.353,1023.01 979.92,1001.8 974.519,984.641C972.605,978.56 970.704,972.466 968.605,966.447C967.936,964.528 967.216,962.617 966.425,960.745C965.99,959.718 965.709,956.854 965,957.716C949.423,976.664 954.361,1009.67 954.92,1032.38C955.108,1040.04 958.986,1056.28 953.219,1062.82C948.456,1068.22 938.047,1065.38 933.011,1062.25C921.941,1055.37 916.693,1041.15 918.276,1028.66" style="fill:none;stroke:black;stroke-width:16.43px;"/>
        <path d="M1066.83,933.204C1068.71,968.706 1069.7,1004.77 1073.58,1040.14" style="fill:none;stroke:black;stroke-width:16.43px;"/>
        <path d="M1166.83,919.871C1143.04,926.141 1116.67,943.018 1106.51,966.172C1101.03,978.667 1099.59,994.869 1108.19,1006.39C1113.66,1013.73 1122.84,1016.85 1131.29,1019.22C1152.56,1025.18 1174.7,1023.17 1195.53,1016.33" style="fill:none;stroke:black;stroke-width:16.43px;"/>
        <path d="M1217.83,953.537C1222.96,952.222 1228.04,950.701 1233.18,949.44C1247,946.053 1261.31,943.447 1273.88,936.395C1279.94,932.992 1285.92,927.342 1286.92,920.128C1289.22,903.574 1270.79,896.059 1257.25,897.555C1236.75,899.82 1220.59,914.024 1210.63,931.412C1197.43,954.449 1202.14,983.665 1227.69,995.362C1232.65,997.633 1237.97,998.889 1243.4,999.316C1266.81,1001.15 1289.55,987.496 1303.31,969.191" style="fill:none;stroke:black;stroke-width:16.43px;"/>
        <path d="M1060.63,888.472C1060.41,888.69 1060.97,889.22 1061.11,889.432C1061.79,890.45 1062.56,891.419 1063.19,892.472C1063.71,893.34 1064.39,894.109 1064.95,894.952C1065.23,895.369 1065.59,896.312 1065.59,896.312C1065.59,896.312 1066.32,895.643 1066.47,895.192C1066.72,894.443 1067.37,893.406 1067.83,892.712C1068.75,891.337 1069.7,889.725 1070.55,888.872C1070.63,888.793 1070.73,888.103 1070.63,887.912C1069.93,886.505 1067.97,884.492 1066.39,886.072C1066.13,886.337 1065.64,886.747 1065.43,886.952C1065.37,887.015 1065.23,887.512 1065.11,887.512C1064.92,887.512 1065.12,887.121 1065.03,886.952C1064.88,886.642 1064.79,886.303 1064.63,885.992C1064.27,885.279 1062.3,884.802 1061.67,885.432C1061.3,885.802 1059.93,887.448 1060.47,887.992C1060.8,888.323 1060.41,889.512 1061.03,889.512" style="stroke:black;stroke-width:16.43px;"/>
    </g>
    <g id="Camada9">
        <path d="M1652.47,1115.8C1879.54,1080.07 1821.53,718.064 2001.47,678.799" style="fill:none;stroke:black;stroke-width:8.37px;"/>
        <path d="M1869.87,829.92C1884.57,856.009 1906.21,863.434 1935.13,851.299C1915.17,828.944 1893.39,822.054 1869.87,829.92Z" style="fill:rgb(255,119,235);stroke:black;stroke-width:8.37px;"/>
        <g transform="matrix(0.964342,0.363701,-0.417187,1.10616,370.061,-653.065)">
            <path d="M1869.87,829.92C1884.57,856.009 1906.21,863.434 1935.13,851.299C1915.17,828.944 1893.39,822.054 1869.87,829.92Z" style="fill:rgb(255,119,235);stroke:black;stroke-width:7.55px;"/>
        </g>
        <g transform="matrix(0.825671,0.413403,-0.556477,1.11143,850.981,-976.92)">
            <path d="M1869.87,829.92C1884.57,856.009 1906.21,863.434 1935.13,851.299C1915.17,828.944 1893.39,822.054 1869.87,829.92Z" style="fill:rgb(255,119,235);stroke:black;stroke-width:7.64px;"/>
        </g>
        <path d="M1894.13,774.222C1859,780.222 1835.07,767.555 1822.33,736.222C1850.1,734.566 1874.36,746.01 1894.13,774.222Z" style="fill:rgb(255,119,235);stroke:black;stroke-width:8.37px;"/>
        <g transform="matrix(0.87552,0.483182,-0.483182,0.87552,683.533,-902.273)">
            <path d="M1894.13,774.222C1859,780.222 1835.07,767.555 1822.33,736.222C1850.1,734.566 1874.36,746.01 1894.13,774.222Z" style="fill:rgb(255,119,235);stroke:black;stroke-width:8.37px;"/>
        </g>
        <g transform="matrix(1,0,0,1,-45.3334,112)">
            <path d="M1894.13,774.222C1859,780.222 1835.07,767.555 1822.33,736.222C1850.1,734.566 1874.36,746.01 1894.13,774.222Z" style="fill:rgb(255,119,235);stroke:black;stroke-width:8.37px;"/>
        </g>
        <g transform="matrix(0.974064,0.226274,-0.226274,0.974064,119.896,-162.778)">
            <path d="M1894.13,774.222C1859,780.222 1835.07,767.555 1822.33,736.222C1850.1,734.566 1874.36,746.01 1894.13,774.222Z" style="fill:rgb(255,119,235);stroke:black;stroke-width:8.37px;"/>
        </g>
        <g transform="matrix(0.905393,0.424575,-0.424575,0.905393,323.39,-408.359)">
            <path d="M1894.13,774.222C1859,780.222 1835.07,767.555 1822.33,736.222C1850.1,734.566 1874.36,746.01 1894.13,774.222Z" style="fill:rgb(255,119,235);stroke:black;stroke-width:8.37px;"/>
        </g>
        <g transform="matrix(0.710461,-0.703737,0.703737,0.710461,-238.233,1898.4)">
            <path d="M1894.13,774.222C1859,780.222 1835.07,767.555 1822.33,736.222C1850.1,734.566 1874.36,746.01 1894.13,774.222Z" style="fill:rgb(255,119,235);stroke:black;stroke-width:8.37px;"/>
        </g>
        <path d="M1756.36,1062.5C1734.44,1092.11 1744.43,1116.55 1775.86,1137.5C1779.25,1096.55 1773.63,1070.11 1756.36,1062.5Z" style="fill:rgb(255,119,235);stroke:black;stroke-width:8.37px;"/>
    </g>
    <g id="Camada12">
        <path d="M470.397,1281.18C582.181,1406.79 605.502,1497.58 783.731,1415.18C660.527,1363.72 628.713,1267.08 470.397,1281.18Z" style="fill:rgb(142,230,231);stroke:black;stroke-width:8.37px;"/>
        <path d="M1692.98,846.598C1628.44,919.985 1488.51,915.59 1459.48,1080.1C1555.25,1055.86 1669.26,973.583 1692.98,846.598Z" style="fill:rgb(142,230,231);stroke:black;stroke-width:8.37px;"/>
    </g>
    <g id="Camada15" opacity="0.22">
        <path d="M778.612,1900.51C712.21,1911.24 633.125,1909.67 538.279,1892.84" style="fill:none;stroke:rgb(0,205,4);stroke-width:3.13px;"/>
        <path d="M609.279,1902.84L585.945,1878.51" style="fill:none;stroke:rgb(0,205,4);stroke-width:3.13px;"/>
        <path d="M663.279,1906.84L634.945,1923.84" style="fill:none;stroke:rgb(0,205,4);stroke-width:3.13px;"/>
        <path d="M714.745,1904.58L692.279,1888.51" style="fill:none;stroke:rgb(0,205,4);stroke-width:3.13px;"/>
        <path d="M748.679,1906.84L735.612,1922.84" style="fill:none;stroke:rgb(68,40,190);stroke-width:3.13px;"/>
        <g transform="matrix(1.10247,0,0,1.19493,0.0741401,-268.713)">
            <path d="M81.107,1182.87C151.17,1203.3 205.127,1225.93 245.857,1250.37" style="fill:none;stroke:rgb(68,40,190);stroke-opacity:0.98;stroke-width:2.72px;"/>
        </g>
        <g transform="matrix(1.10247,0,0,1.19493,0.0741401,-268.713)">
            <path d="M95.407,1187.13L112.607,1213.12" style="fill:none;stroke:rgb(68,40,190);stroke-width:2.72px;"/>
        </g>
        <g transform="matrix(1.10247,0,0,1.19493,0.0741401,-268.713)">
            <path d="M128.371,1197.8L161.357,1197.62" style="fill:none;stroke:rgb(68,40,190);stroke-width:2.72px;"/>
        </g>
        <g transform="matrix(1.10247,0,0,1.19493,0.0741401,-268.713)">
            <path d="M170.81,1213.61L185.607,1240.12" style="fill:none;stroke:rgb(68,40,190);stroke-width:2.72px;"/>
        </g>
        <g transform="matrix(1.10247,0,0,1.19493,0.0741401,-268.713)">
            <path d="M200.157,1226.34L220.107,1225.87" style="fill:none;stroke:rgb(68,40,190);stroke-width:2.72px;"/>
        </g>
        <g transform="matrix(1.10247,0,0,1.19493,0.0741401,-268.713)">
            <path d="M226.675,1239.52L231.857,1248.12" style="fill:none;stroke:rgb(68,40,190);stroke-width:2.72px;"/>
        </g>
        <g transform="matrix(1.10247,0,0,1.19493,0.0741401,-268.713)">
            <path d="M305.232,1036.82C322.562,1095.99 334.902,1152.66 341.565,1206.49" style="fill:none;stroke:rgb(68,40,190);stroke-width:2.72px;"/>
        </g>
        <g transform="matrix(1.10247,0,0,1.19493,0.0741401,-268.713)">
            <path d="M308.166,1046.99L298.232,1077.16" style="fill:none;stroke:rgb(68,40,190);stroke-width:2.72px;"/>
        </g>
        <g transform="matrix(1.10247,0,0,1.19493,0.0741401,-268.713)">
            <path d="M318.12,1084.02L340.565,1105.49" style="fill:none;stroke:rgb(68,40,190);stroke-width:2.72px;"/>
        </g>
        <g transform="matrix(1.10247,0,0,1.19493,0.0741401,-268.713)">
            <path d="M325.717,1115.98L313.232,1138.82" style="fill:none;stroke:rgb(68,40,190);stroke-width:2.72px;"/>
        </g>
        <g transform="matrix(1.10247,0,0,1.19493,0.0741401,-268.713)">
            <path d="M333.276,1153.03L346.899,1165.49" style="fill:none;stroke:rgb(68,40,190);stroke-width:2.72px;"/>
        </g>
        <g transform="matrix(1.10247,0,0,1.19493,0.0741401,-268.713)">
            <path d="M337.914,1180.31L331.565,1190.49" style="fill:none;stroke:rgb(68,40,190);stroke-width:2.72px;"/>
        </g>
        <path d="M794.445,1981.51C855.555,1926.93 917.114,1879.09 979.112,1837.84" style="fill:none;stroke:rgb(0,205,4);stroke-width:3.13px;"/>
        <path d="M817.112,1962.51L866.445,1954.84" style="fill:none;stroke:rgb(0,205,4);stroke-width:3.13px;"/>
        <path d="M864.779,1921.51L880.779,1882.84" style="fill:none;stroke:rgb(0,205,4);stroke-width:3.13px;"/>
        <path d="M910.112,1888.18L945.779,1891.84" style="fill:none;stroke:rgb(0,205,4);stroke-width:3.13px;"/>
        <path d="M946.445,1857.84L949.445,1840.51" style="fill:none;stroke:rgb(0,205,4);stroke-width:3.13px;"/>
    </g>
    <g id="Camada16">
        <path d="M485.565,1287.16C614.758,1323.72 665.239,1434.91 748.232,1413.82" style="fill:none;stroke:rgb(69,156,157);stroke-width:3.13px;"/>
        <g transform="matrix(1.10247,0,0,1.19493,-35.158,-244.386)">
            <path d="M536.432,1306.79L584.232,1307.82" style="fill:none;stroke:rgb(69,156,157);stroke-width:2.72px;"/>
        </g>
        <g transform="matrix(1.10247,0,0,1.19493,-70.625,-267.874)">
            <path d="M588.092,1337.73L592.232,1378.49" style="fill:none;stroke:rgb(69,156,157);stroke-width:2.72px;"/>
        </g>
        <g transform="matrix(1.10247,0,0,1.19493,-78.1177,-277.826)">
            <path d="M629.852,1368.78L662.898,1375.16" style="fill:none;stroke:rgb(69,156,157);stroke-width:2.72px;"/>
        </g>
        <g transform="matrix(1,0,0,1,-12.2977,-8.75435)">
            <path d="M667.183,1395.54L692.898,1425.16" style="fill:none;stroke:rgb(69,156,157);stroke-width:3.13px;"/>
        </g>
        <path d="M714.748,1415.43L726.232,1404.49" style="fill:none;stroke:rgb(69,156,157);stroke-width:3.13px;"/>
        <path d="M1682.32,866.574C1638.8,954.985 1518,950.329 1467.82,1070.57" style="fill:none;stroke:rgb(74,151,152);stroke-width:3.13px;"/>
        <path d="M1668.81,888.331L1636.32,901.574" style="fill:none;stroke:rgb(74,151,152);stroke-width:3.13px;"/>
        <path d="M1628.85,925.126L1617.32,953.074" style="fill:none;stroke:rgb(74,151,152);stroke-width:3.13px;"/>
        <path d="M1582.21,953.889L1557.82,943.574" style="fill:none;stroke:rgb(74,151,152);stroke-width:3.13px;"/>
        <path d="M1549.24,974.455L1543.82,1009.07" style="fill:none;stroke:rgb(74,151,152);stroke-width:3.13px;"/>
        <path d="M1513.19,1003.46L1495.82,1003.57" style="fill:none;stroke:rgb(74,151,152);stroke-width:3.13px;"/>
        <path d="M1489.97,1030.47L1489.32,1055.57" style="fill:none;stroke:rgb(74,151,152);stroke-width:3.13px;"/>
        <g transform="matrix(1.10247,0,0,1.19493,0.0741401,-268.713)">
            <path d="M442.107,1009.95C500.268,997.614 526.153,904.444 558.357,885.699" style="fill:none;stroke:rgb(147,131,216);stroke-width:2.72px;"/>
        </g>
        <g transform="matrix(1.10247,0,0,1.19493,0.0741401,-268.713)">
            <path d="M455.42,1005.54L462.857,972.949" style="fill:none;stroke:rgb(147,131,216);stroke-width:2.72px;"/>
        </g>
        <g transform="matrix(1.10247,0,0,1.19493,0.0741401,-268.713)">
            <path d="M478.919,989.264L515.607,980.699" style="fill:none;stroke:rgb(147,131,216);stroke-width:2.72px;"/>
        </g>
        <g transform="matrix(1.10247,0,0,1.19493,0.0741401,-268.713)">
            <path d="M503.107,917.449L498.166,967.242" style="fill:none;stroke:rgb(147,131,216);stroke-width:2.72px;"/>
        </g>
        <g transform="matrix(1.10247,0,0,1.19493,0.0741401,-268.713)">
            <path d="M529.459,919.371L552.107,904.449" style="fill:none;stroke:rgb(147,131,216);stroke-width:2.72px;"/>
        </g>
        <g transform="matrix(1.10247,0,0,1.19493,0.0741401,-268.713)">
            <path d="M544.495,898.233L543.357,890.949" style="fill:none;stroke:rgb(147,131,216);stroke-width:2.72px;"/>
        </g>
        <g transform="matrix(1.10247,0,0,1.19493,0.0741401,-268.713)">
            <path d="M517.813,937.921L533.107,938.699" style="fill:none;stroke:rgb(147,131,216);stroke-width:2.72px;"/>
        </g>
        <g transform="matrix(1.10247,0,0,1.19493,0.0741401,-268.713)">
            <path d="M526.66,923.771L524.607,908.199" style="fill:none;stroke:rgb(147,131,216);stroke-width:2.72px;"/>
        </g>
    </g>
    <g id="Camada17">
        <path d="M1660.05,172.478C1730.16,197.927 1791.72,231.918 1846.72,272.478" style="fill:none;stroke:rgb(213,96,118);stroke-width:3.53px;"/>
        <path d="M1833.67,263.069L1772.38,250.478" style="fill:none;stroke:rgb(213,96,118);stroke-width:3.53px;"/>
        <path d="M1806.36,244.697L1786.38,213.478" style="fill:none;stroke:rgb(213,96,118);stroke-width:3.53px;"/>
        <path d="M1779.32,228.17L1725.05,218.811" style="fill:none;stroke:rgb(213,96,118);stroke-width:3.53px;"/>
        <path d="M1744.93,209.386L1732.38,188.478" style="fill:none;stroke:rgb(213,96,118);stroke-width:3.53px;"/>
        <path d="M1715.18,194.998L1689.38,194.478" style="fill:none;stroke:rgb(213,96,118);stroke-width:3.53px;"/>
        <path d="M1693.95,185.716L1686.04,182.457" style="fill:none;stroke:rgb(213,96,118);stroke-width:3.53px;"/>
        <path d="M1692.38,176.811L1693.95,185.716" style="fill:none;stroke:rgb(213,96,118);stroke-width:3.53px;"/>
        <path d="M1755.88,382.644C1803.25,446.922 1826.07,514.033 1827.22,583.644" style="fill:none;stroke:rgb(213,96,118);stroke-width:3.53px;"/>
        <path d="M1768.55,400.978L1767.55,438.978" style="fill:none;stroke:rgb(213,96,118);stroke-width:3.53px;"/>
        <path d="M1785.55,430.644L1815.88,451.978" style="fill:none;stroke:rgb(213,96,118);stroke-width:3.53px;"/>
        <path d="M1803.88,474.311L1793.55,506.978" style="fill:none;stroke:rgb(213,96,118);stroke-width:3.53px;"/>
        <path d="M1817.22,511.644L1831.88,533.311" style="fill:none;stroke:rgb(213,96,118);stroke-width:3.53px;"/>
        <path d="M1823.88,545.644L1813.55,566.644" style="fill:none;stroke:rgb(213,96,118);stroke-width:3.53px;"/>
    </g>
</svg>
