<?xml version="1.0" encoding="UTF-8" standalone="no"?>
<!DOCTYPE svg PUBLIC "-//W3C//DTD SVG 1.1//EN" "http://www.w3.org/Graphics/SVG/1.1/DTD/svg11.dtd">
<svg width="100%" height="100%" viewBox="0 0 1656 1097" version="1.1" xmlns="http://www.w3.org/2000/svg" xmlns:xlink="http://www.w3.org/1999/xlink" xml:space="preserve" xmlns:serif="http://www.serif.com/" style="fill-rule:evenodd;clip-rule:evenodd;stroke-linejoin:round;stroke-miterlimit:2;">
    <defs>
       <style>
        @media (prefers-color-scheme:light) { svg { fill: #2E3440; } }
        @media (prefers-color-scheme:dark) { svg { fill: #D8DEE9; } }
       </style>
     </defs>
    <g transform="matrix(0.1,0,0,-0.1,-185.125,1594.96)">
        <path d="M3467,15943C3458,15935 3459,15369 3468,15310C3474,15274 3479,15265 3495,15265C3514,15265 3514,15272 3511,15595C3509,15802 3504,15930 3498,15938C3486,15951 3477,15953 3467,15943Z" style="fill-rule:nonzero;"/>
        <path d="M7365,15543C7316,15535 7271,15524 7265,15519C7260,15513 7190,15301 7110,15047L6964,14585L6930,14579C6785,14555 6691,14389 6702,14176C6706,14102 6712,14074 6736,14025C6792,13910 6930,13805 7073,13769C7132,13755 7237,13769 7308,13802C7370,13831 7451,13915 7485,13985C7510,14034 7513,14052 7513,14143C7513,14288 7476,14388 7390,14480L7357,14515L7374,14632L7392,14749L7370,14778C7348,14808 7350,14830 7374,14830C7382,14830 7393,14836 7399,14844C7408,14855 7405,14864 7385,14888C7353,14926 7353,14936 7389,14948C7408,14955 7428,14976 7450,15015L7482,15071L7456,15099C7417,15140 7422,15166 7475,15198C7513,15221 7519,15230 7520,15258C7520,15327 7497,15535 7487,15548C7476,15562 7483,15562 7365,15543ZM7220,14998C7154,14730 7103,14504 7106,14495C7128,14439 7178,14549 7236,14778C7252,14839 7268,14890 7272,14890C7282,14890 7293,14823 7286,14804C7282,14794 7287,14763 7295,14733C7308,14690 7309,14668 7300,14623C7284,14531 7287,14515 7344,14416C7407,14306 7430,14239 7430,14160C7430,14080 7407,14011 7356,13943C7243,13789 7104,13774 6920,13896C6809,13970 6759,14051 6752,14174C6740,14368 6840,14543 6952,14526C6976,14522 6991,14524 6996,14532C7001,14539 7070,14754 7150,15009C7267,15380 7300,15475 7316,15480C7326,15484 7336,15487 7337,15486C7338,15485 7285,15265 7220,14998ZM7434,15399C7445,15288 7443,15276 7400,15219C7365,15172 7360,15159 7360,15110C7360,15062 7355,15049 7325,15011C7306,14987 7290,14973 7290,14979C7290,15018 7410,15460 7420,15460C7424,15460 7430,15432 7434,15399Z" style="fill-rule:nonzero;"/>
        <path d="M6975,14113C6943,14105 6920,14079 6920,14052C6920,13995 7057,13910 7149,13910C7193,13910 7240,13941 7240,13970C7240,13996 7185,14057 7141,14079C7112,14094 7005,14123 6997,14119C6996,14118 6986,14115 6975,14113ZM7114,14034C7218,13981 7192,13936 7079,13975C7034,13991 6970,14035 6970,14050C6970,14073 7055,14063 7114,14034Z" style="fill-rule:nonzero;"/>
        <path d="M11125,15363C11092,15344 10692,15119 10235,14862C9298,14337 9330,14355 9330,14334C9330,14324 9504,14233 9860,14058C10152,13914 10389,13793 10388,13789C10385,13781 10324,13710 9584,12844C9389,12615 9231,12423 9233,12417C9235,12410 9244,12404 9253,12402C9268,12399 11412,13781 11455,13821C11472,13838 11473,13842 11460,13854C11452,13861 11184,13963 10865,14080C10546,14197 10277,14296 10267,14299C10249,14306 10277,14338 11122,15252C11195,15331 11228,15374 11224,15384C11215,15407 11192,15402 11125,15363ZM10839,15078C10771,15005 10645,14874 10560,14786C10311,14527 10135,14316 10142,14281C10147,14256 10324,14184 10645,14075C10966,13966 11232,13872 11238,13865C11247,13856 11189,13795 11109,13729C11001,13639 10896,13567 10685,13440C10592,13383 10427,13280 10320,13210C10213,13140 10053,13038 9965,12984C9786,12875 9710,12822 9565,12706C9510,12663 9474,12638 9486,12651C9758,12963 10453,13787 10454,13799C10455,13811 10312,13886 9932,14077C9592,14247 9414,14341 9422,14347C9446,14362 10955,15209 10959,15210C10961,15210 10907,15151 10839,15078ZM9955,12904C9929,12884 9900,12868 9900,12874C9900,12879 9963,12920 9970,12920C9973,12919 9966,12912 9955,12904ZM9890,12866C9890,12864 9865,12846 9835,12826C9805,12806 9780,12792 9780,12795C9780,12799 9881,12870 9887,12870C9889,12870 9890,12868 9890,12866Z" style="fill-rule:nonzero;"/>
        <path d="M4764,15272C4749,15263 4564,14979 4461,14807C4394,14695 4380,14666 4390,14655C4397,14647 4406,14640 4410,14640C4415,14640 4453,14697 4496,14768C4539,14838 4623,14972 4684,15065C4744,15159 4794,15244 4794,15254C4795,15275 4781,15284 4764,15272Z" style="fill-rule:nonzero;"/>
        <path d="M2090,15255C2084,15247 2081,15237 2084,15232C2087,15227 2152,15183 2227,15134C2303,15086 2427,15004 2503,14952C2579,14900 2648,14860 2658,14862C2710,14872 2658,14915 2335,15124C2098,15277 2105,15273 2090,15255Z" style="fill-rule:nonzero;"/>
        <path d="M3300,15004C3098,14980 3034,14958 2937,14878C2850,14804 2720,14586 2685,14455C2574,14032 2808,13507 3206,13284C3242,13264 3340,13220 3423,13185C3590,13117 3680,13074 3680,13062C3680,13058 3673,13037 3666,13015C3646,12959 3656,12922 3696,12898C3722,12883 3730,12871 3730,12850C3730,12803 3748,12771 3785,12749C3806,12736 3820,12720 3820,12709C3820,12682 3843,12640 3873,12612C3906,12581 3955,12575 4030,12594C4070,12604 4110,12608 4136,12604C4199,12595 4281,12622 4330,12669C4352,12690 4370,12715 4370,12726C4370,12736 4397,12769 4431,12800C4498,12860 4509,12888 4510,13002C4510,13075 4505,13087 4465,13100C4431,13111 4420,13131 4420,13183C4420,13221 4379,13260 4341,13260C4315,13260 4310,13264 4304,13294C4296,13342 4262,13370 4204,13378L4156,13385L4137,13445C4112,13528 4103,13662 4114,13810C4119,13879 4123,14025 4123,14135C4124,14310 4121,14345 4102,14413C4017,14721 3841,14924 3605,14985C3545,15001 3367,15012 3300,15004ZM3611,14901C3756,14855 3868,14751 3950,14585C4030,14422 4045,14356 4045,14150C4044,14054 4041,13887 4036,13780C4026,13565 4034,13489 4074,13388L4097,13331L4073,13295C4049,13259 4048,13259 4028,13277C3993,13308 3902,13453 3870,13528C3796,13702 3789,13837 3839,14090C3877,14279 3877,14371 3839,14460C3787,14582 3662,14621 3572,14545C3543,14521 3541,14521 3500,14535C3417,14564 3351,14549 3291,14487L3258,14452L3224,14472C3197,14488 3178,14491 3139,14488C3071,14481 3025,14437 3003,14358C2990,14313 2982,14300 2963,14295C2890,14277 2847,14209 2847,14115C2847,13990 2939,13891 3160,13780C3377,13672 3478,13573 3614,13339C3663,13254 3718,13166 3737,13144C3783,13085 3761,13082 3659,13135C3613,13159 3512,13204 3435,13235C3205,13328 3114,13387 2994,13521C2806,13731 2709,13969 2709,14225C2708,14355 2730,14456 2779,14555C2880,14759 3047,14888 3251,14919C3351,14934 3534,14925 3611,14901ZM3740,14511C3780,14482 3810,14412 3817,14334C3821,14280 3815,14229 3789,14095C3740,13838 3745,13713 3811,13538C3842,13458 3933,13304 3977,13258C4003,13231 4003,13230 3985,13211C3976,13200 3935,13174 3895,13153L3822,13116L3797,13146C3783,13162 3736,13234 3694,13305C3577,13504 3552,13540 3481,13614C3398,13700 3329,13749 3166,13836C3033,13907 2942,13978 2913,14033C2894,14071 2892,14146 2910,14189C2917,14207 2936,14228 2952,14236C2985,14253 2985,14253 2994,14166C3001,14100 3024,14045 3047,14036C3105,14013 3118,14166 3064,14245C3051,14265 3040,14291 3040,14303C3041,14337 3075,14405 3101,14424C3132,14445 3182,14444 3210,14422C3233,14404 3233,14403 3216,14354C3190,14280 3184,14137 3203,14069C3212,14038 3229,14005 3240,13995C3259,13977 3264,13977 3288,13990C3339,14019 3355,14064 3355,14180C3354,14272 3351,14294 3326,14353L3298,14422L3325,14450C3364,14490 3401,14504 3455,14496C3503,14488 3518,14476 3502,14457C3480,14430 3449,14330 3439,14250C3413,14034 3484,13930 3610,14001C3740,14075 3740,14347 3609,14469C3584,14492 3590,14507 3634,14526C3670,14542 3704,14537 3740,14511ZM3630,14347C3676,14241 3665,14123 3605,14063C3546,14004 3500,14025 3486,14118C3476,14183 3497,14322 3527,14390L3553,14451L3581,14424C3596,14410 3618,14375 3630,14347ZM3307,14200C3312,14124 3295,14043 3275,14047C3269,14047 3259,14065 3252,14087C3236,14132 3241,14278 3260,14325L3272,14355L3287,14315C3295,14293 3304,14241 3307,14200ZM4221,13260C4225,13252 4235,13232 4242,13215C4249,13199 4264,13184 4275,13182C4306,13176 4327,13152 4334,13116C4341,13077 4365,13053 4399,13048C4431,13044 4443,13004 4435,12922C4428,12860 4428,12858 4372,12814C4269,12733 4034,12630 3952,12630C3940,12630 3920,12640 3905,12653C3877,12677 3855,12736 3871,12745C3876,12749 3880,12760 3880,12770C3880,12785 3871,12789 3838,12792C3802,12795 3794,12799 3786,12823C3779,12843 3779,12857 3788,12870C3795,12881 3800,12896 3800,12904C3800,12918 3792,12922 3739,12934C3707,12941 3697,12961 3709,12993C3721,13023 3749,13040 3830,13069C3917,13100 3995,13148 4075,13221C4134,13274 4146,13281 4177,13278C4197,13276 4217,13268 4221,13260Z" style="fill-rule:nonzero;"/>
        <path d="M4165,13188C4140,13136 4065,13083 3974,13050C3925,13033 3894,13029 3838,13032C3770,13035 3765,13034 3762,13014C3758,12988 3781,12980 3867,12980C4018,12980 4220,13107 4220,13202C4220,13246 4189,13238 4165,13188Z" style="fill-rule:nonzero;"/>
        <path d="M4235,13039C4148,12968 4050,12927 3905,12903C3864,12897 3855,12891 3855,12875C3855,12857 3861,12855 3910,12858C3940,12860 3992,12868 4025,12876C4148,12908 4332,13025 4317,13063C4307,13089 4290,13083 4235,13039Z" style="fill-rule:nonzero;"/>
        <path d="M4265,12888C4189,12825 4083,12773 3994,12757C3937,12746 3925,12741 3925,12724C3925,12698 3962,12695 4041,12715C4183,12752 4381,12888 4355,12930C4344,12948 4326,12939 4265,12888Z" style="fill-rule:nonzero;"/>
        <path d="M16991,14829C16980,14812 16946,14748 16913,14688L16855,14578L16705,14581C16558,14585 16555,14585 16555,14564C16555,14550 16591,14511 16663,14446C16722,14392 16770,14346 16770,14344C16770,14341 16737,14283 16696,14214C16626,14096 16614,14060 16645,14060C16655,14060 16873,14213 16945,14270C16951,14275 17007,14231 17080,14164C17256,14002 17266,14008 17185,14223C17155,14304 17130,14372 17130,14375C17130,14378 17193,14412 17271,14450C17378,14504 17411,14525 17408,14538C17405,14553 17387,14555 17248,14558L17091,14561L17086,14588C17083,14603 17073,14662 17065,14720C17056,14778 17047,14833 17044,14843C17036,14869 17012,14863 16991,14829ZM17026,14639C17035,14582 17047,14529 17052,14523C17059,14514 17096,14510 17169,14509L17275,14509L17178,14460C17125,14433 17079,14406 17075,14400C17070,14392 17093,14322 17146,14185C17150,14174 17113,14202 17063,14248C17014,14293 16966,14330 16958,14330C16949,14330 16899,14298 16845,14259C16792,14220 16747,14190 16745,14192C16743,14194 16761,14228 16786,14268C16810,14308 16830,14345 16830,14351C16830,14357 16804,14385 16773,14413C16741,14442 16700,14480 16680,14498L16645,14530L16763,14529C16828,14528 16883,14529 16884,14531C16886,14533 16914,14583 16945,14642C16977,14702 17005,14749 17006,14747C17008,14745 17017,14697 17026,14639Z" style="fill-rule:nonzero;"/>
        <path d="M16094,13956C16031,13936 15969,13888 15904,13812L15846,13743L15760,13748C15642,13754 15584,13735 15514,13666C15469,13620 15462,13607 15452,13552C15440,13484 15450,13398 15476,13348C15484,13333 15490,13319 15490,13318C15490,13316 15465,13314 15434,13313C15391,13312 15367,13305 15331,13283C15241,13227 15155,13082 15143,12964C15130,12844 15208,12750 15318,12750L15357,12750L15353,12703C15347,12642 15379,12578 15439,12533C15557,12442 15818,12434 15985,12516C16040,12543 16145,12639 16156,12672C16165,12701 16173,12693 16199,12634C16230,12563 16303,12483 16372,12445C16423,12416 16429,12415 16560,12415C16670,12415 16709,12419 16773,12438C16925,12481 17020,12551 17020,12618C17020,12631 17023,12640 17028,12638C17168,12567 17166,12568 17288,12566C17397,12565 17409,12567 17456,12592C17524,12628 17659,12755 17681,12805C17703,12853 17705,12921 17686,12958C17658,13011 17585,13060 17533,13060C17506,13060 17506,13060 17552,13108C17623,13180 17645,13230 17645,13320C17645,13385 17640,13405 17612,13463C17551,13585 17430,13647 17264,13638C17189,13634 17175,13630 17135,13602C17110,13584 17088,13570 17086,13570C17084,13570 17079,13591 17075,13617C17060,13722 17012,13804 16955,13824C16917,13838 16772,13831 16680,13810C16590,13791 16546,13772 16525,13743C16517,13732 16510,13743 16496,13790C16474,13863 16442,13898 16362,13936C16294,13969 16163,13979 16094,13956ZM16311,13903C16410,13871 16462,13796 16464,13680C16465,13642 16468,13635 16486,13632C16502,13630 16514,13639 16528,13662C16567,13725 16594,13742 16687,13761C16735,13771 16812,13780 16858,13780C16936,13780 16943,13778 16970,13752C17002,13719 17016,13678 17032,13565C17042,13490 17053,13460 17069,13460C17073,13460 17091,13481 17108,13506C17154,13571 17210,13594 17309,13588C17486,13578 17594,13478 17595,13324C17595,13263 17591,13247 17565,13204C17548,13177 17504,13131 17467,13101C17430,13072 17400,13041 17400,13034C17400,13010 17438,12998 17494,13005C17609,13020 17680,12931 17636,12827C17620,12788 17492,12667 17435,12637C17401,12618 17380,12615 17288,12617C17198,12618 17173,12622 17128,12642C17064,12672 17014,12713 17004,12743C17000,12755 16986,12782 16973,12803C16955,12831 16943,12840 16927,12838C16894,12833 16896,12809 16935,12745C16984,12663 16984,12614 16933,12570C16854,12500 16691,12456 16535,12462C16448,12465 16429,12469 16389,12492C16329,12527 16274,12590 16242,12659C16221,12703 16215,12734 16212,12802C16208,12892 16196,12918 16165,12906C16154,12902 16150,12885 16150,12838C16150,12758 16124,12701 16062,12637C15978,12551 15866,12510 15709,12510C15502,12510 15369,12609 15409,12733C15418,12759 15431,12772 15463,12786C15514,12809 15560,12847 15560,12866C15560,12874 15549,12885 15535,12892C15502,12907 15462,12889 15414,12838C15378,12799 15376,12798 15319,12802C15236,12808 15190,12858 15190,12943C15190,13030 15271,13180 15348,13234C15383,13259 15398,13263 15450,13263C15502,13262 15516,13258 15539,13236C15554,13222 15572,13210 15578,13210C15607,13210 15600,13244 15559,13306C15510,13382 15489,13462 15500,13532C15516,13641 15611,13705 15745,13698C15803,13695 15805,13694 15802,13669C15800,13652 15805,13640 15815,13636C15838,13628 15873,13648 15866,13666C15862,13677 15867,13679 15888,13674C15903,13670 15923,13663 15934,13658C15947,13651 15957,13652 15968,13664C15988,13684 15971,13706 15929,13715C15913,13719 15900,13724 15900,13727C15900,13729 15926,13760 15957,13796C16059,13911 16176,13947 16311,13903Z" style="fill-rule:nonzero;"/>
        <path d="M4348,13869C4249,13761 4231,13735 4247,13719C4255,13711 4284,13738 4354,13816C4407,13875 4450,13929 4450,13936C4450,13969 4425,13953 4348,13869Z" style="fill-rule:nonzero;"/>
        <path d="M1852,13888C1855,13868 1871,13861 2000,13828C2253,13762 2489,13715 2502,13728C2527,13753 2499,13767 2369,13794C2295,13809 2155,13842 2058,13866C1961,13890 1874,13910 1865,13910C1854,13910 1850,13903 1852,13888Z" style="fill-rule:nonzero;"/>
        <path d="M12996,13361C12992,13355 12972,13292 12950,13220C12928,13148 12908,13085 12905,13081C12902,13076 12839,13057 12766,13040C12639,13010 12601,12993 12614,12972C12617,12967 12667,12943 12726,12919C12818,12882 12831,12873 12827,12855C12824,12844 12809,12788 12794,12730C12750,12562 12775,12547 12896,12673C12940,12718 12990,12772 13008,12793C13028,12816 13045,12828 13053,12824C13059,12820 13119,12777 13186,12728C13365,12598 13377,12608 13274,12798L13209,12919L13277,12983C13314,13018 13362,13062 13383,13080C13422,13114 13430,13137 13406,13146C13398,13149 13343,13143 13283,13131C13099,13097 13124,13085 13076,13235C13047,13325 13029,13366 13018,13368C13009,13370 12999,13366 12996,13361ZM13050,13150C13085,13036 13076,13041 13203,13065C13246,13073 13287,13080 13293,13080C13300,13079 13270,13046 13226,13006L13147,12933L13192,12846C13217,12799 13235,12760 13232,12760C13230,12760 13188,12789 13140,12825C13092,12861 13046,12890 13038,12890C13030,12890 12992,12853 12953,12808C12871,12712 12827,12669 12834,12690C12836,12698 12851,12747 12866,12798C12898,12907 12900,12902 12797,12945C12720,12977 12721,12980 12830,13005C12941,13030 12940,13030 12950,13053C12955,13065 12971,13114 12985,13163C13000,13211 13013,13250 13015,13250C13017,13250 13033,13205 13050,13150Z" style="fill-rule:nonzero;"/>
        <path d="M6295,13242C5911,12837 5793,12408 5947,11967C5966,11912 5999,11831 6021,11787C6043,11744 6059,11706 6056,11703C6054,11700 6030,11705 6003,11714C5759,11793 5408,11743 4996,11570C4293,11275 3522,10618 3493,10289L3487,10231L3436,10257C3408,10271 3329,10313 3260,10351C3078,10451 2979,10481 2950,10445C2939,10432 2954,10413 3047,10322C3351,10025 3538,9678 3720,9071C3748,8977 3770,8893 3768,8884C3764,8865 3673,8826 3593,8810C3430,8776 3284,8862 3186,9050C3139,9140 3123,9160 3103,9153C3084,9146 3091,9066 3120,8948C3209,8585 3450,8355 3842,8255L3931,8233L3866,8201C3769,8153 3698,8084 3651,7990C3600,7887 3587,7822 3592,7691C3599,7504 3669,7358 3824,7205C4035,6996 4294,6920 4567,6986C4662,7009 4676,7000 4720,6888C4974,6249 5224,5830 5546,5504C5822,5224 6100,5085 6540,5004C6677,4979 6978,4979 7120,5004C7178,5014 7261,5028 7305,5036C7435,5059 7757,5230 7940,5373C8359,5702 8671,6173 8995,6965C9047,7090 9083,7108 9214,7074C9386,7029 9603,7111 9800,7296C9995,7480 10100,7703 10100,7932C10100,8122 10003,8288 9852,8358C9778,8392 9662,8399 9571,8376C9493,8356 9474,8356 9466,8376C9453,8410 9462,8428 9531,8505C9625,8611 9771,8803 9833,8904C9996,9167 10103,9478 10104,9695C10105,9782 10103,9791 10043,9945C9827,10507 9592,10873 9236,11199C8931,11479 8638,11640 8213,11764C7953,11839 7730,11871 7450,11871C7226,11871 7084,11855 6862,11804L6749,11778L6681,11818C6212,12098 6102,12529 6342,13150C6409,13324 6397,13349 6295,13242ZM7082,9507C7365,9296 7706,9197 8042,9229C8165,9241 8250,9257 8412,9301C8460,9314 8502,9321 8506,9318C8509,9314 8546,9211 8587,9088C8729,8663 8843,8436 8980,8305C9039,8249 9107,8211 9146,8210C9158,8210 9178,8202 9191,8191C9214,8172 9214,8171 9202,8078C9196,8026 9174,7909 9155,7819C8985,7032 8686,6344 8296,5840C8196,5710 7962,5474 7853,5392C7346,5010 6791,4932 6168,5155C5986,5220 5862,5292 5700,5428C5372,5704 5085,6143 4825,6765C4677,7119 4509,7683 4509,7825C4509,7937 4533,7996 4594,8036C4714,8115 4874,8272 4991,8425C5158,8643 5380,9036 5495,9315C5515,9365 5539,9413 5547,9423C5576,9454 5614,9444 5662,9393C5875,9161 5988,9058 6152,8950C6447,8755 6749,8645 7133,8595C7271,8576 7339,8576 7346,8593C7348,8600 7267,8811 7165,9063C7063,9314 6980,9532 6980,9546C6980,9579 6990,9576 7082,9507ZM9797,8325C9850,8309 9881,8280 9928,8198C9988,8092 10010,7905 9975,7775C9955,7698 9893,7569 9839,7489C9737,7338 9526,7156 9421,7126C9303,7093 9221,7111 9169,7183C9144,7218 9140,7232 9140,7289C9140,7397 9251,7913 9305,8057C9345,8161 9399,8229 9490,8286C9575,8339 9697,8355 9797,8325ZM4145,8189C4220,8175 4265,8152 4311,8103C4385,8025 4418,7972 4430,7913C4475,7678 4550,7381 4605,7221C4633,7138 4636,7093 4617,7066C4601,7044 4465,7010 4395,7010C4198,7010 4004,7094 3854,7244C3716,7382 3650,7521 3642,7691C3637,7808 3650,7878 3696,7970C3751,8079 3849,8156 3975,8186C4040,8202 4073,8202 4145,8189Z" style="fill-rule:nonzero;"/>
        <path d="M5845,8704C5601,8675 5350,8602 5350,8559C5350,8533 5376,8535 5452,8564C5628,8633 5769,8655 6040,8655C6254,8655 6380,8642 6515,8606C6573,8591 6590,8594 6590,8620C6590,8641 6572,8647 6440,8674C6289,8704 5983,8720 5845,8704Z" style="fill-rule:nonzero;"/>
        <path d="M7875,8693C7780,8682 7572,8646 7558,8638C7537,8628 7534,8604 7553,8597C7561,8594 7597,8598 7634,8606C7763,8633 7933,8650 8073,8650C8275,8650 8412,8624 8578,8553C8657,8520 8696,8516 8688,8543C8676,8579 8465,8658 8306,8685C8225,8699 7962,8704 7875,8693Z" style="fill-rule:nonzero;"/>
        <path d="M8021,8050C7955,8036 7879,7989 7839,7936C7725,7787 7775,7578 7944,7495C8155,7392 8405,7551 8388,7778C8375,7956 8199,8086 8021,8050Z" style="fill-rule:nonzero;"/>
        <path d="M6015,7990C5951,7965 5884,7900 5853,7833C5788,7692 5853,7520 5999,7448C6065,7415 6206,7415 6267,7448C6331,7481 6378,7527 6408,7584C6445,7654 6447,7773 6412,7840C6356,7948 6270,8002 6145,8007C6083,8009 6054,8006 6015,7990Z" style="fill-rule:nonzero;"/>
        <path d="M7352,6766C7294,6672 7288,6647 7322,6652C7347,6655 7443,6803 7438,6830C7430,6869 7402,6848 7352,6766Z" style="fill-rule:nonzero;"/>
        <path d="M6813,6264C6810,6256 6810,6207 6812,6157C6819,6017 6860,5938 6945,5899C6998,5874 7035,5875 7095,5904C7180,5944 7289,6074 7273,6116C7270,6124 7249,6134 7226,6140C7127,6164 7011,6205 6943,6241C6864,6282 6823,6290 6813,6264ZM7120,6117C7166,6103 7206,6087 7208,6081C7215,6061 7110,5962 7064,5944C7027,5930 7013,5929 6980,5939C6909,5960 6860,6054 6860,6170L6860,6227L6948,6184C6996,6160 7073,6130 7120,6117Z" style="fill-rule:nonzero;"/>
        <path d="M12148,12210C11929,12172 11724,12050 11593,11876C11567,11842 11546,11814 11545,11813C11544,11811 11503,11831 11454,11856C11366,11902 11364,11902 11283,11898C11191,11893 11104,11857 11038,11797C11006,11768 11001,11756 10994,11701C10990,11660 10983,11640 10976,11643C10969,11646 10919,11663 10864,11681C10692,11739 10535,11724 10405,11638C10364,11611 10311,11545 10297,11506C10295,11500 10281,11506 10266,11522C10232,11555 10189,11576 10109,11596C10001,11624 9919,11599 9844,11518C9752,11418 9723,11302 9768,11209C9810,11122 9922,11030 9985,11030C10000,11030 10010,11027 10008,11023C9939,10887 9928,10827 9955,10735C9986,10627 10058,10549 10168,10504C10276,10459 10389,10479 10471,10556C10485,10569 10499,10580 10502,10580C10505,10580 10510,10562 10514,10540C10523,10483 10587,10419 10665,10390C10780,10348 10917,10382 11016,10477L11056,10516L11074,10472C11086,10445 11106,10420 11129,10405C11164,10381 11334,10330 11376,10330C11411,10330 11575,10416 11614,10454C11661,10501 11690,10559 11697,10621C11700,10648 11705,10670 11707,10670C11709,10670 11733,10652 11761,10630C11828,10577 11976,10505 12075,10477L12155,10455L13572,10452L14989,10450L14970,10407C14932,10325 14949,10177 15004,10105C15055,10038 15196,9994 15283,10018C15318,10028 15321,10027 15315,10012C15265,9894 15265,9840 15315,9775C15344,9736 15448,9660 15500,9639C15546,9621 15704,9623 15788,9643L15850,9658L15850,9606C15850,9463 16015,9300 16159,9300C16213,9300 16377,9343 16441,9374C16501,9403 16528,9423 16552,9458L16568,9481L16591,9439C16624,9380 16687,9335 16773,9308C16904,9267 17188,9284 17321,9342C17378,9366 17420,9411 17420,9447C17420,9469 17423,9472 17448,9466C17560,9441 17584,9439 17651,9449C17746,9464 17818,9493 17905,9551C18033,9637 18085,9720 18078,9823C18075,9857 18070,9892 18066,9900C18061,9912 18067,9915 18103,9912C18184,9905 18327,9995 18370,10080C18400,10139 18415,10249 18401,10305C18383,10375 18365,10396 18296,10425L18233,10452L18252,10488C18262,10509 18284,10568 18301,10621C18328,10705 18330,10722 18321,10757C18297,10846 18209,10886 18018,10897L17901,10903L17929,10959C18061,11221 18037,11574 17869,11822C17749,12000 17584,12121 17373,12187L17285,12215L14740,12216C13340,12217 12174,12214 12148,12210ZM17285,12155C17554,12098 17759,11942 17878,11705C18057,11347 17947,10896 17623,10664C17547,10609 17418,10548 17325,10524C17258,10506 17160,10505 14715,10505L12175,10505L12090,10527C11911,10575 11741,10685 11637,10822C11562,10923 11536,10970 11499,11080C11458,11202 11448,11369 11474,11498C11493,11592 11543,11720 11565,11732C11573,11737 11580,11749 11580,11759C11580,11782 11664,11893 11721,11946C11829,12045 11981,12123 12125,12154C12231,12176 17179,12177 17285,12155ZM11432,11812C11516,11768 11516,11769 11473,11665C11424,11549 11415,11499 11415,11330C11415,11188 11418,11168 11444,11085C11485,10954 11534,10864 11617,10766C11645,10732 11650,10719 11650,10676C11650,10557 11599,10486 11466,10419C11377,10374 11371,10374 11253,10409C11139,10443 11104,10484 11091,10600C11086,10646 11082,10655 11065,10655C11046,10655 11038,10639 11025,10579C11013,10515 10886,10431 10791,10423C10689,10414 10582,10473 10563,10548C10560,10563 10562,10611 10568,10654C10576,10709 10577,10737 10570,10744C10553,10761 10528,10738 10499,10681C10432,10549 10319,10500 10190,10549C10070,10595 9995,10699 9995,10821C9995,10875 10001,10897 10030,10954C10052,10998 10076,11030 10097,11044C10118,11057 10130,11073 10130,11088C10130,11114 10116,11116 10067,11095C9989,11063 9928,11086 9848,11179C9797,11239 9784,11292 9806,11355C9842,11461 9924,11543 10005,11556C10037,11560 10069,11556 10118,11541C10199,11517 10233,11492 10260,11439C10284,11393 10306,11389 10321,11428C10373,11564 10417,11606 10548,11647C10652,11679 10719,11676 10861,11629C10958,11597 10987,11579 11032,11522C11052,11498 11080,11502 11080,11530C11080,11539 11071,11573 11060,11606C11033,11684 11040,11729 11086,11770C11152,11827 11206,11848 11297,11849C11350,11850 11369,11845 11432,11812ZM18165,10829C18217,10815 18266,10777 18274,10745C18283,10712 18217,10514 18187,10482C18175,10469 18148,10449 18128,10439C18103,10426 18090,10413 18090,10400C18090,10376 18119,10374 18160,10395C18187,10409 18194,10409 18246,10390C18277,10379 18311,10363 18321,10354C18352,10326 18363,10267 18351,10194C18336,10093 18291,10036 18189,9984C18128,9954 18104,9954 18025,9986C17974,10006 17956,10009 17940,10000C17911,9985 17915,9972 17955,9948C17999,9923 18030,9865 18030,9808C18030,9664 17803,9500 17600,9497C17500,9496 17436,9518 17377,9575C17326,9625 17306,9630 17290,9599C17280,9581 17284,9573 17324,9536C17402,9465 17382,9409 17267,9375C17177,9348 17000,9327 16918,9333C16828,9340 16729,9371 16681,9407C16649,9432 16590,9540 16590,9574C16590,9589 16563,9603 16550,9595C16546,9593 16537,9570 16531,9546C16516,9487 16482,9448 16417,9417C16343,9382 16195,9347 16145,9352C16016,9367 15900,9494 15900,9621C15900,9674 15902,9678 15938,9701C15962,9717 15976,9734 15978,9751C15983,9791 15954,9796 15913,9763C15848,9711 15824,9701 15730,9684C15626,9666 15548,9670 15497,9696C15444,9723 15372,9780 15349,9811C15309,9868 15329,9964 15395,10025C15418,10047 15435,10071 15433,10078C15427,10095 15372,10093 15293,10073C15237,10059 15217,10059 15171,10068C15055,10093 15008,10151 15002,10282C14998,10352 15001,10364 15024,10405L15051,10449L16158,10453C17383,10456 17306,10452 17473,10521C17601,10574 17770,10705 17841,10806C17869,10847 17889,10851 18010,10846C18073,10843 18143,10835 18165,10829Z" style="fill-rule:nonzero;"/>
        <path d="M16762,12149C16575,12118 16376,11999 16255,11848C16136,11698 16078,11530 16078,11335C16078,11095 16160,10906 16338,10738C16742,10357 17415,10478 17655,10975C17722,11112 17734,11171 17735,11340C17735,11500 17719,11572 17658,11695C17492,12026 17129,12210 16762,12149ZM17150,12071C17282,12027 17370,11972 17465,11876C17628,11710 17697,11533 17687,11300C17680,11129 17632,11000 17522,10857C17429,10735 17253,10622 17095,10583C16999,10560 16808,10560 16720,10584C16273,10705 16027,11143 16163,11572C16233,11792 16404,11972 16627,12059C16725,12097 16808,12110 16935,12106C17037,12103 17069,12098 17150,12071Z" style="fill-rule:nonzero;"/>
        <path d="M16737,12034C16491,11975 16289,11775 16219,11525C16191,11425 16189,11268 16214,11165C16276,10907 16499,10690 16757,10635C16913,10602 17070,10623 17220,10696C17301,10736 17329,10756 17405,10834C17531,10961 17590,11082 17610,11256C17637,11498 17540,11738 17353,11893C17281,11952 17156,12014 17070,12035C16989,12053 16815,12053 16737,12034Z" style="fill-rule:nonzero;"/>
        <path d="M13905,11801C13839,11760 13800,11692 13775,11572C13756,11486 13756,11279 13775,11176C13791,11085 13842,10975 13881,10947C13919,10920 13989,10914 14029,10934C14085,10963 14134,11061 14154,11181C14160,11213 14158,11217 14127,11232L14094,11248L14081,11187C14059,11082 14021,11030 13964,11030C13920,11030 13867,11089 13849,11161C13828,11244 13830,11519 13853,11592C13882,11688 13948,11733 14011,11700C14034,11687 14066,11627 14075,11577C14083,11537 14102,11529 14134,11553C14151,11565 14151,11571 14140,11622C14105,11779 13999,11860 13905,11801Z" style="fill-rule:nonzero;"/>
        <path d="M11975,11798C11972,11791 11971,11594 11972,11360L11975,10935L12008,10932L12040,10929L12040,11810L12010,11810C11993,11810 11977,11804 11975,11798Z" style="fill-rule:nonzero;"/>
        <path d="M12114,11795C12107,11778 12116,11579 12126,11523C12130,11500 12138,11490 12151,11490C12174,11490 12182,11538 12184,11692L12185,11805L12152,11808C12129,11810 12118,11806 12114,11795Z" style="fill-rule:nonzero;"/>
        <path d="M12252,11373L12255,10935L12315,10935L12325,11581L12379,11268C12409,11096 12435,10949 12438,10943C12440,10936 12455,10930 12471,10930C12495,10930 12500,10935 12505,10963C12508,10980 12535,11128 12564,11290L12618,11585L12620,10929L12653,10932L12685,10935L12685,11805L12643,11808C12619,11810 12600,11810 12599,11808C12506,11279 12472,11109 12467,11135C12461,11161 12350,11801 12350,11808C12350,11809 12327,11810 12300,11810L12250,11810L12252,11373Z" style="fill-rule:nonzero;"/>
        <path d="M12942,11374L12945,10935L13055,10935C13146,10936 13171,10939 13198,10955C13298,11015 13318,11281 13229,11376C13209,11397 13209,11397 13229,11431C13272,11504 13274,11646 13233,11728C13201,11792 13173,11804 13049,11808L12940,11812L12942,11374ZM13162,11679C13201,11658 13210,11527 13176,11475C13161,11452 13117,11440 13048,11440L13010,11440L13010,11563C13010,11631 13013,11690 13018,11694C13027,11704 13138,11692 13162,11679ZM13179,11302C13225,11256 13229,11140 13186,11075C13171,11052 13164,11050 13090,11050L13010,11050L13010,11330L13081,11330C13145,11330 13154,11327 13179,11302Z" style="fill-rule:nonzero;"/>
        <path d="M13397,11378C13349,11140 13310,10942 13310,10938C13310,10933 13326,10930 13345,10930C13373,10930 13381,10934 13385,10953C13391,10983 13430,11190 13430,11196C13430,11204 13599,11200 13605,11191C13609,11183 13660,10947 13660,10934C13660,10932 13676,10930 13695,10930C13725,10930 13730,10933 13730,10953C13729,10965 13690,11162 13642,11390L13554,11805L13518,11808L13483,11811L13397,11378ZM13555,11470L13586,11305L13522,11302C13486,11300 13456,11301 13454,11303C13452,11305 13464,11375 13480,11460C13497,11544 13510,11625 13511,11639C13512,11681 13521,11646 13555,11470Z" style="fill-rule:nonzero;"/>
        <path d="M14220,11810L14220,10929L14253,10932L14285,10935L14290,11095C14295,11251 14296,11256 14326,11308L14357,11361L14435,11145L14512,10930L14550,10930C14570,10930 14589,10932 14592,10935C14595,10938 14559,11041 14512,11163C14389,11484 14391,11428 14496,11625C14545,11718 14587,11797 14588,11802C14590,11806 14571,11810 14547,11810L14501,11810L14398,11608L14295,11407L14292,11608L14290,11810L14220,11810Z" style="fill-rule:nonzero;"/>
        <path d="M14644,11563C14653,11208 14659,11150 14680,11150C14706,11150 14708,11177 14716,11513L14723,11810L14637,11810L14644,11563Z" style="fill-rule:nonzero;"/>
        <path d="M14642,10998L14645,10935L14715,10935L14718,10998L14721,11060L14639,11060L14642,10998Z" style="fill-rule:nonzero;"/>
        <path d="M12701,9608C12697,9595 12673,9511 12649,9421C12611,9280 12602,9256 12582,9249C12569,9244 12513,9240 12457,9239C12401,9238 12328,9235 12295,9231C12197,9221 12208,9204 12372,9115C12451,9073 12519,9034 12523,9030C12528,9026 12499,8940 12460,8839C12359,8579 12371,8569 12546,8761C12611,8834 12674,8904 12686,8918L12707,8944L12856,8825C12938,8760 13011,8703 13018,8697C13027,8690 13036,8691 13047,8702C13061,8717 13055,8731 12979,8857C12934,8933 12891,9004 12883,9015C12871,9035 12878,9039 13050,9109C13194,9168 13230,9186 13230,9201C13230,9211 13229,9220 13228,9221C13226,9221 13138,9229 13031,9238L12836,9255L12819,9325C12810,9364 12790,9448 12775,9513C12752,9611 12744,9630 12728,9630C12718,9630 12706,9620 12701,9608ZM12822,9209C12837,9205 12901,9199 12964,9195C13028,9191 13080,9184 13080,9181C13080,9177 13023,9151 12953,9123C12883,9095 12822,9066 12817,9059C12811,9049 12827,9013 12869,8942C12903,8886 12930,8837 12930,8835C12930,8832 12882,8868 12824,8915C12766,8962 12712,9000 12705,9000C12698,9000 12650,8953 12599,8895C12548,8838 12504,8793 12502,8795C12500,8797 12519,8853 12545,8919C12571,8985 12589,9044 12585,9049C12582,9055 12538,9082 12487,9109C12339,9189 12339,9189 12445,9190C12495,9190 12558,9193 12587,9196C12647,9204 12638,9187 12691,9385L12724,9505L12760,9361C12793,9225 12797,9216 12822,9209Z" style="fill-rule:nonzero;"/>
    </g>
</svg>
