<?xml version="1.0" encoding="UTF-8" standalone="no"?>
<!DOCTYPE svg PUBLIC "-//W3C//DTD SVG 1.1//EN" "http://www.w3.org/Graphics/SVG/1.1/DTD/svg11.dtd">
<svg width="100%" height="100%" viewBox="0 0 2000 2000" version="1.1" xmlns="http://www.w3.org/2000/svg" xmlns:xlink="http://www.w3.org/1999/xlink" xml:space="preserve" xmlns:serif="http://www.serif.com/" style="fill-rule:evenodd;clip-rule:evenodd;stroke-linecap:round;stroke-linejoin:round;stroke-miterlimit:1.5;">
    <defs>
       <style>
        @media (prefers-color-scheme:light) { svg { fill: #2E3440; } }
        @media (prefers-color-scheme:dark) { svg { fill: #D8DEE9; } }
       </style>
     </defs>
    <path d="M987.176,1168.69C990.962,1173.09 994.261,1177.6 996.592,1182.95C1011.96,1218.21 989.54,1255.2 962.619,1277.17C956.499,1282.17 950.064,1287.12 942.845,1290.44" style="fill:none;stroke:black;stroke-width:4.05px;"/>
    <path d="M943.694,1154.03C940.822,1158.21 938.032,1162.77 936.792,1167.75" style="fill:none;stroke:black;stroke-width:4.05px;"/>
    <path d="M944.123,1156.03C940.191,1160.02 936.071,1165.63 936.031,1171.53" style="stroke:black;stroke-width:4.05px;"/>
    <path d="M998.926,1181.44C1000.98,1187.64 1002.98,1194.08 1003.53,1200.61C1004.99,1218.08 998.705,1239.42 988.933,1254C982.428,1263.71 973.083,1271.68 964.448,1279.43" style="fill:none;stroke:black;stroke-width:4.05px;"/>
    <path d="M910.551,1257.17C909.059,1265.03 906.577,1272.67 905.09,1280.52" style="fill:none;stroke:black;stroke-width:4.05px;"/>
    <path d="M909.551,1263.46C908.401,1268.57 907.784,1273.71 907.043,1278.89" style="fill:none;stroke:black;stroke-width:4.05px;"/>
    <path d="M908.98,1263.6C907.824,1270.68 907.794,1278.52 912.371,1284.4" style="fill:none;stroke:black;stroke-width:4.05px;"/>
    <path d="M911.265,1258.74C909.103,1271.99 911.726,1285.61 925.412,1290.9" style="fill:none;stroke:black;stroke-width:4.05px;"/>
    <path d="M916.551,1289.46C908.03,1285.79 901.38,1292.73 898.323,1299.98" style="fill:none;stroke:black;stroke-width:4.05px;"/>
    <path d="M912.551,1283.6C906.926,1286.7 901.846,1290.87 899.17,1296.89" style="fill:none;stroke:black;stroke-width:4.05px;"/>
    <path d="M940.364,1169.38C931.751,1174.22 925.747,1182.81 923.561,1192.48" style="fill:none;stroke:black;stroke-width:4.05px;"/>
    <path d="M941.364,1169.13C930.218,1176.13 926.454,1189.53 923.687,1201.6C922.766,1205.62 921.656,1209.57 921.013,1213.64" style="fill:none;stroke:black;stroke-width:4.05px;"/>
    <path d="M944.739,1149.38C939.868,1153.91 934.063,1162.08 934.48,1169.2" style="fill:none;stroke:black;stroke-width:4.05px;"/>
    <path d="M946.489,1150.13C943.513,1153.03 940.618,1156.16 938.934,1160.02C938.219,1161.65 937.368,1163.58 938.623,1165.14" style="fill:none;stroke:black;stroke-width:4.05px;"/>
    <path d="M941.114,1160.38C940.208,1161.69 939.438,1163.21 939.774,1164.83" style="fill:none;stroke:black;stroke-width:4.05px;"/>
    <path d="M445.197,1201.95C485.145,1181.96 522.583,1130.61 557.197,1043.95C597.397,1102.01 654.998,1135.22 732.531,1139.95L687.197,1027.95C735.46,1076.71 790.935,1086.52 852.531,1063.28C876.308,1146.53 900.086,1183.37 923.864,1175.95C978.932,1124.55 1006.96,1074.51 1008.7,1025.78C977.866,929.044 928.205,877.499 870.697,844.783C794.926,809.784 731.799,809.105 674.697,824.783C616.078,795.408 604.65,743.824 636.697,671.783C582.248,725.407 577.481,780.492 613.697,836.783C531.679,789.536 341.732,932.999 351.569,977.343C354.073,988.629 306.458,951.605 296.697,956.783C345.108,997.21 364.455,1054.59 380.697,1113.78C341.923,1134.49 324.308,1115.07 311.364,1086.78C317.196,1149.38 359.633,1172.97 419.697,1177.78" style="stroke:black;stroke-width:5.02px;"/>
    <path d="M721.851,1497.42C724.363,1497.42 726.909,1496.48 729.449,1495.41C731.905,1494.38 734.356,1493.22 736.77,1492.74C738.863,1492.32 742.654,1491.13 744.159,1489.62C744.329,1489.45 744.329,1489.18 744.159,1489.01C743.989,1488.84 743.713,1488.84 743.543,1489.01C742.133,1490.42 738.561,1491.5 736.599,1491.89C734.132,1492.38 731.623,1493.56 729.111,1494.61C726.683,1495.63 724.253,1496.55 721.851,1496.55C721.611,1496.55 721.416,1496.74 721.416,1496.98C721.416,1497.22 721.611,1497.42 721.851,1497.42Z"/>
    <path d="M744.564,1490.9C743.725,1491.74 742.04,1492.2 740.802,1492.82C735.378,1495.53 728.827,1495.62 722.412,1496.91C721.221,1497.15 719.97,1497.07 718.718,1496.99C717.394,1496.91 716.067,1496.82 714.8,1497.03C713.956,1497.17 713.051,1497.52 712.151,1497.84C711.326,1498.13 710.506,1498.4 709.747,1498.4C709.507,1498.4 709.312,1498.6 709.312,1498.84C709.312,1499.08 709.507,1499.27 709.747,1499.27C710.596,1499.27 711.518,1498.99 712.442,1498.66C713.292,1498.36 714.145,1498.02 714.944,1497.89C716.146,1497.69 717.406,1497.78 718.663,1497.86C719.992,1497.94 721.319,1498.01 722.582,1497.76C729.076,1496.46 735.701,1496.34 741.192,1493.6C742.51,1492.94 744.286,1492.41 745.18,1491.52C745.35,1491.35 745.35,1491.07 745.18,1490.9C745.01,1490.73 744.734,1490.73 744.564,1490.9Z"/>
    <path d="M740.937,1492.22C740.761,1492.31 740.569,1492.39 740.484,1492.42C739.885,1492.62 739.27,1492.67 738.65,1492.74C737.962,1492.82 737.27,1492.91 736.585,1493.18C733.29,1494.5 729.792,1495.06 726.391,1495.91C725.971,1496.02 725.063,1496.33 724.403,1496.36C724.302,1496.36 724.208,1496.36 724.126,1496.35C724.105,1496.34 724.076,1496.33 724.057,1496.33C724.052,1496.09 723.859,1495.9 723.622,1495.9C723.382,1495.9 723.187,1496.1 723.187,1496.34C723.187,1496.56 723.259,1496.74 723.372,1496.88C723.517,1497.06 723.747,1497.17 724.049,1497.21C724.77,1497.31 726.058,1496.89 726.603,1496.76C730.041,1495.9 733.576,1495.32 736.909,1493.99C737.516,1493.75 738.133,1493.67 738.744,1493.61C739.425,1493.53 740.101,1493.47 740.76,1493.25C740.906,1493.2 741.293,1493.03 741.56,1492.87C741.721,1492.77 741.844,1492.67 741.903,1492.59C742.071,1492.38 742.038,1492.17 741.94,1492.02C741.885,1491.93 741.735,1491.78 741.372,1491.78C741.132,1491.78 740.937,1491.97 740.937,1492.21L740.937,1492.22Z"/>
    <path d="M732.446,1494.42C732.318,1494.28 732.107,1494.23 731.927,1494.32C731.884,1494.34 731.681,1494.44 731.528,1494.54C731.421,1494.61 731.335,1494.68 731.286,1494.75C731.197,1494.86 731.172,1494.98 731.175,1495.07C731.179,1495.19 731.22,1495.3 731.314,1495.39C731.378,1495.46 731.471,1495.52 731.606,1495.53C731.689,1495.55 731.821,1495.54 731.985,1495.5C732.532,1495.36 733.715,1494.82 733.909,1494.74C735.728,1494.01 737.902,1493.41 739.809,1493.14C740.157,1493.09 740.692,1492.89 741.111,1492.72C741.195,1492.69 741.288,1492.65 741.368,1492.62C741.518,1492.67 741.687,1492.64 741.805,1492.52C742.061,1492.26 741.977,1492.03 741.941,1491.95C741.888,1491.84 741.758,1491.66 741.467,1491.69C741.384,1491.7 741.205,1491.75 740.98,1491.84C740.603,1491.98 740.037,1492.23 739.685,1492.28C737.715,1492.56 735.466,1493.18 733.585,1493.93C733.464,1493.98 732.942,1494.22 732.446,1494.42Z"/>
    <path d="M740.099,1492.66C739.679,1492.8 738.97,1493.05 738.677,1493.2C737.372,1493.85 735.72,1494.5 734.287,1494.78C733.945,1494.85 733.622,1494.89 733.362,1494.87C733.303,1494.87 733.23,1494.86 733.172,1494.84C733.228,1494.76 733.32,1494.63 733.43,1494.52C733.6,1494.35 733.6,1494.07 733.43,1493.9C733.26,1493.73 732.984,1493.73 732.814,1493.9C732.479,1494.24 732.321,1494.52 732.27,1494.73C732.208,1494.99 732.263,1495.19 732.385,1495.36C732.492,1495.5 732.67,1495.62 732.92,1495.68C733.28,1495.78 733.846,1495.76 734.457,1495.64C735.962,1495.34 737.697,1494.66 739.067,1493.97C739.451,1493.78 740.327,1493.54 740.697,1493.38C740.925,1493.29 741.044,1493.16 741.078,1493.1C741.169,1492.94 741.155,1492.79 741.085,1492.66C741.049,1492.6 740.992,1492.52 740.888,1492.47C740.835,1492.44 740.712,1492.4 740.497,1492.4C740.319,1492.4 740.166,1492.51 740.099,1492.66Z"/>
    <path d="M739.312,1492.47C738.338,1492.74 735.365,1493.65 734.878,1493.8C734.678,1493.73 734.455,1493.82 734.358,1494.02C734.274,1494.18 734.302,1494.32 734.359,1494.43C734.407,1494.53 734.541,1494.7 734.84,1494.68C735.433,1494.66 739,1493.44 739.728,1493.26C739.855,1493.23 740.801,1493.04 741.175,1492.86C741.467,1492.71 741.557,1492.48 741.557,1492.34C741.557,1492.2 741.499,1491.95 741.165,1491.89C740.997,1491.86 740.355,1491.91 739.959,1491.98C739.74,1492.01 739.582,1492.06 739.552,1492.07C739.398,1492.15 739.309,1492.31 739.312,1492.47ZM735.154,1494.36L735.147,1494.38L735.149,1494.38L735.154,1494.36ZM735.181,1494.24C735.178,1494.28 735.17,1494.32 735.154,1494.36C735.171,1494.32 735.18,1494.28 735.181,1494.24Z"/>
    <path d="M735.677,1493.27C735.67,1493.22 735.656,1493.18 735.636,1493.14C735.529,1492.92 735.267,1492.84 735.052,1492.95C734.663,1493.14 734.559,1493.37 734.541,1493.49C734.509,1493.69 734.614,1494.01 735.067,1494.09C735.67,1494.21 737.492,1494 737.885,1493.87C739.743,1493.25 741.304,1491.99 742.863,1490.95C743.063,1490.81 743.117,1490.54 742.984,1490.34C742.851,1490.14 742.58,1490.09 742.381,1490.22C740.883,1491.22 739.393,1492.45 737.609,1493.05C737.349,1493.13 736.342,1493.26 735.677,1493.27Z"/>
    <path d="M923.339,1194.54C923.169,1194.4 922.918,1194.41 922.759,1194.57C922.589,1194.74 922.589,1195.02 922.759,1195.19C923.035,1195.46 923.299,1195.51 923.517,1195.47C923.724,1195.42 923.928,1195.28 924.086,1195.02C924.497,1194.33 924.645,1192.55 924.645,1192.02C924.645,1188.83 924.744,1185.12 923.467,1182.14C923.049,1181.16 922.42,1179.98 921.574,1179.08C920.975,1178.44 920.268,1177.95 919.458,1177.74C919.18,1177.67 918.353,1177.58 917.689,1177.4C917.514,1177.36 917.352,1177.3 917.219,1177.25C917.203,1177.24 917.186,1177.23 917.169,1177.22C917.252,1177.06 917.225,1176.85 917.089,1176.72C916.919,1176.55 916.643,1176.55 916.473,1176.72C916.274,1176.91 916.216,1177.11 916.219,1177.28C916.225,1177.52 916.368,1177.77 916.686,1177.95C917.304,1178.31 918.838,1178.49 919.247,1178.59C919.898,1178.75 920.458,1179.16 920.94,1179.67C921.714,1180.5 922.284,1181.59 922.667,1182.48C923.9,1185.36 923.774,1188.94 923.774,1192.02C923.774,1192.35 923.718,1193.25 923.553,1193.95C923.538,1194.02 923.521,1194.08 923.503,1194.15C923.465,1194.28 923.389,1194.44 923.339,1194.54Z"/>
    <path d="M921.641,1176.02L921.638,1176.02C921.279,1176.02 921.07,1176.14 920.955,1176.28C920.784,1176.48 920.741,1176.83 920.968,1177.26C921.136,1177.58 921.465,1177.99 921.833,1178.43C921.965,1179.23 922.15,1180.02 922.354,1180.82C922.745,1182.75 923.154,1184.65 923.643,1186.55C923.684,1186.87 923.726,1187.2 923.78,1187.52C923.868,1188.05 924.068,1189.11 924.068,1189.11C924.107,1189.31 924.292,1189.46 924.504,1189.46C924.623,1189.76 924.755,1190.05 924.888,1190.23C925.078,1190.5 925.307,1190.6 925.495,1190.6C925.735,1190.6 925.93,1190.41 925.93,1190.17C925.93,1189.97 925.799,1189.8 925.619,1189.75C925.578,1189.69 925.457,1189.5 925.39,1189.34C925.246,1189.01 925.118,1188.61 925.028,1188.3C925.112,1187.62 925.216,1186.64 925.216,1186.02C925.216,1183.94 924.918,1182.1 924.188,1180.16C924.066,1179.83 923.777,1179.41 923.421,1178.97C923.199,1178.69 922.95,1178.4 922.71,1178.12C922.685,1177.97 922.661,1177.82 922.64,1177.68C922.584,1177.28 922.586,1177.27 922.533,1176.99C922.513,1176.72 922.502,1176.44 922.502,1176.17C922.502,1176.01 922.463,1175.94 922.457,1175.93C922.334,1175.68 922.131,1175.67 921.998,1175.69C921.961,1175.69 921.707,1175.73 921.641,1176.02ZM923.062,1179.92L923.065,1179.94C923.12,1180.21 923.176,1180.49 923.232,1180.77C923.559,1182.02 923.933,1183.27 924.206,1184.5C924.252,1184.71 924.291,1184.92 924.325,1185.12C924.249,1183.51 923.958,1182.02 923.373,1180.46C923.314,1180.3 923.203,1180.12 923.062,1179.92Z"/>
    <path d="M917.214,1177.04L917.213,1177.04L917.213,1177.04L917.211,1177.04C917.01,1177.11 916.888,1177.31 916.923,1177.52C916.958,1177.73 917.14,1177.89 917.352,1177.89C917.352,1177.89 917.404,1177.89 917.494,1177.86L917.494,1177.86L917.497,1177.86C917.539,1177.85 917.765,1177.78 918.006,1177.74C918.133,1177.72 918.266,1177.69 918.358,1177.72C918.902,1177.9 919.584,1178.32 920.111,1178.67C920.668,1179.04 921.052,1179.63 921.367,1180.27C921.712,1180.96 921.97,1181.71 922.238,1182.34C923.321,1184.86 923.865,1188.78 924.206,1191.51C924.223,1191.64 924.298,1191.94 924.379,1192.29C924.266,1192.18 924.093,1192.13 923.929,1192.18C923.701,1192.26 923.578,1192.51 923.654,1192.73C923.698,1192.87 923.879,1193.49 924.08,1193.97C924.185,1194.22 924.302,1194.43 924.406,1194.55C924.543,1194.7 924.696,1194.76 924.821,1194.77C924.962,1194.78 925.104,1194.75 925.231,1194.62C925.41,1194.44 925.515,1194.06 925.482,1193.57C925.429,1192.8 925.108,1191.7 925.07,1191.4C924.72,1188.6 924.149,1184.59 923.038,1182C922.765,1181.36 922.499,1180.59 922.146,1179.88C921.763,1179.11 921.274,1178.4 920.594,1177.95C920.243,1177.71 919.83,1177.46 919.425,1177.25C919.54,1177.21 919.647,1177.18 919.744,1177.16C919.977,1177.1 920.118,1176.87 920.06,1176.63C920.002,1176.4 919.766,1176.26 919.533,1176.32C918.766,1176.51 917.288,1177.01 917.214,1177.04Z"/>
    <path d="M922.751,1183.15C922.767,1183.29 922.778,1183.37 922.778,1183.37C922.81,1183.6 923.025,1183.77 923.261,1183.74C923.497,1183.71 923.667,1183.5 923.642,1183.27C923.642,1183.27 923.616,1183.01 923.568,1182.65C923.534,1182.35 923.502,1181.98 923.502,1181.74C923.502,1180.98 923.444,1180.14 923.346,1179.33L923.348,1179.29C923.394,1179.31 923.443,1179.32 923.495,1179.32C923.735,1179.32 923.93,1179.12 923.93,1178.88C923.93,1178.49 923.943,1176.85 923.628,1176.07C923.497,1175.74 923.299,1175.53 923.085,1175.45C922.9,1175.38 922.686,1175.37 922.443,1175.49C921.972,1175.73 921.658,1176.29 921.51,1177.03C921.234,1178.43 921.489,1180.51 921.489,1181.31C921.489,1182.13 921.633,1183.78 921.633,1183.78C921.651,1183.98 921.804,1184.14 922.003,1184.17C922.202,1184.2 922.395,1184.09 922.47,1183.9C922.47,1183.9 922.606,1183.56 922.751,1183.15ZM922.276,1177.88C922.191,1179.01 922.322,1180.33 922.353,1181.06L922.355,1181.04L922.361,1180.99C922.331,1180.88 922.346,1180.77 922.395,1180.68C922.438,1180.25 922.462,1179.81 922.475,1179.38C922.439,1179.08 922.397,1178.8 922.352,1178.52C922.346,1178.49 922.313,1178.22 922.276,1177.88Z"/>
    <path d="M918.978,1175.28C919.111,1175.67 919.251,1176.08 919.396,1176.49C919.253,1176.32 919.103,1176.16 918.946,1176C918.404,1175.46 917.838,1175.41 917.349,1175.43C917.206,1175.44 917.072,1175.45 916.951,1175.46C916.91,1175.46 916.851,1175.45 916.819,1175.45C916.815,1175.44 916.81,1175.42 916.807,1175.41C916.793,1175.34 916.788,1175.26 916.788,1175.17C916.788,1174.93 916.593,1174.73 916.352,1174.73C916.112,1174.73 915.917,1174.93 915.917,1175.17C915.917,1175.72 916.084,1175.99 916.274,1176.14C916.422,1176.26 916.608,1176.32 916.831,1176.33C917.018,1176.33 917.246,1176.3 917.494,1176.3C917.755,1176.29 918.05,1176.34 918.33,1176.62C920.113,1178.4 920.919,1180.96 921.802,1183.32C922.063,1184.01 922.31,1184.75 922.53,1185.51C922.86,1186.94 923.06,1188.39 923.06,1189.88C923.06,1191.21 922.917,1192.6 922.917,1193.88L922.917,1195.74C922.917,1195.97 923.099,1196.16 923.331,1196.17C923.562,1196.18 923.762,1196.01 923.785,1195.78C923.785,1195.78 923.854,1194.99 924.027,1194.65C924.467,1193.77 924.359,1192.51 924.359,1191.45C924.359,1189.49 923.953,1187.3 923.366,1185.27C922.881,1183.19 922.134,1181.16 921.328,1179.15C921.031,1178.41 920.74,1177.64 920.463,1176.88C920.813,1177.33 921.138,1177.8 921.408,1178.25C922.167,1179.51 922.656,1180.83 923.169,1182.16C923.041,1182.31 923.021,1182.53 923.133,1182.69C923.323,1182.98 923.519,1183.25 923.708,1183.53L923.735,1183.59L923.789,1183.72C923.937,1184.57 924.361,1186.14 924.361,1186.14C924.421,1186.36 924.644,1186.5 924.869,1186.45C925.022,1186.42 925.14,1186.31 925.19,1186.17C925.241,1186.17 925.294,1186.17 925.345,1186.15C925.563,1186.08 925.688,1185.85 925.631,1185.63C925.631,1185.63 925.386,1184.69 925.17,1184.26C925.062,1184.04 924.944,1183.84 924.818,1183.63C924.742,1183.45 924.671,1183.28 924.609,1183.14L924.53,1182.95C924.219,1181.5 923.665,1180.01 923.194,1178.6C923.105,1178.33 922.557,1176.52 922.142,1175.8C922.031,1175.61 921.914,1175.48 921.82,1175.41C921.707,1175.33 921.596,1175.3 921.495,1175.3C921.394,1175.3 921.002,1175.41 921.057,1175.86C921.068,1175.96 921.11,1176.14 921.168,1176.37C920.823,1175.93 920.455,1175.51 920.089,1175.14C920.027,1175.08 919.884,1174.95 919.719,1174.79C919.58,1174.53 919.21,1174.05 919.013,1173.88C918.708,1173.62 918.42,1173.77 918.33,1173.86C918.229,1173.96 918.136,1174.13 918.233,1174.38C918.271,1174.48 918.394,1174.66 918.569,1174.85C918.69,1174.99 918.837,1175.14 918.978,1175.28Z"/>
    <path d="M921.143,1178.61C920.965,1178.51 920.771,1178.42 920.566,1178.34C920.55,1178.32 920.533,1178.3 920.517,1178.29C919.75,1177.52 919.125,1177.35 918.261,1176.92C918.128,1176.85 917.949,1176.81 917.755,1176.8C917.486,1176.58 917.217,1176.38 916.973,1176.24C916.685,1176.07 916.42,1175.97 916.215,1175.95C915.963,1175.92 915.763,1176 915.616,1176.14C915.549,1176.21 915.495,1176.29 915.455,1176.38C915.368,1176.36 915.283,1176.34 915.2,1176.32C914.64,1176.21 914.172,1176.3 913.902,1176.57C913.499,1176.98 913.629,1177.52 914.34,1177.96C914.909,1178.32 915.891,1178.68 916.634,1178.93C916.666,1178.95 916.698,1178.97 916.729,1178.98C917.241,1179.24 917.746,1179.46 918.24,1179.66C918.779,1180.04 919.377,1180.54 919.944,1181.08C921.296,1183.7 922.047,1186.43 922.64,1189.39C922.921,1190.8 922.489,1192.06 922.489,1193.31C922.489,1193.53 922.312,1193.92 922.182,1194.23C922.055,1194.54 921.964,1194.8 921.958,1194.89C921.944,1195.11 922.052,1195.23 922.136,1195.29C922.209,1195.35 922.488,1195.5 922.803,1195.19C923.53,1194.46 924.01,1193.63 924.303,1192.74C924.311,1192.75 924.32,1192.76 924.327,1192.76C924.4,1192.84 924.486,1192.88 924.577,1192.89C924.655,1192.9 924.876,1192.92 925.022,1192.68C925.056,1192.62 925.171,1192.3 925.234,1191.91C925.273,1191.66 925.292,1191.38 925.269,1191.13C925.31,1191.15 925.349,1191.16 925.382,1191.17C925.526,1191.2 925.671,1191.18 925.803,1191.05C925.926,1190.92 926.007,1190.75 926.029,1190.54C926.05,1190.35 926.017,1190.09 925.936,1189.82C925.83,1189.45 925.633,1189.02 925.44,1188.62C925.397,1188.36 925.365,1188.15 925.35,1188.08C925.171,1187.18 924.971,1186.23 924.692,1185.29C925.136,1186.01 925.593,1186.79 925.677,1186.93C925.719,1187.02 925.782,1187.08 925.845,1187.11C925.911,1187.15 925.987,1187.17 926.067,1187.17C926.067,1187.17 926.581,1187.08 926.491,1186.64C926.481,1186.59 926.421,1186.32 926.323,1186.09C926.259,1185.94 926.176,1185.8 926.089,1185.72C925.905,1185.53 925.736,1185.31 925.573,1185.06C925.401,1184.78 925.225,1184.5 925.067,1184.25C924.931,1184.03 924.793,1183.81 924.647,1183.6C924.058,1182.66 923.539,1181.62 922.941,1180.67C922.806,1179.67 922.589,1178.14 922.202,1177.14C922.039,1176.71 921.841,1176.38 921.621,1176.17C921.411,1175.97 921.176,1175.87 920.924,1175.87C920.766,1175.87 920.584,1175.93 920.507,1176.18C920.501,1176.2 920.471,1176.31 920.513,1176.48C920.588,1176.78 920.97,1178.05 921.143,1178.61ZM922.956,1186.81C923.153,1187.6 923.329,1188.4 923.493,1189.22C923.743,1190.47 923.47,1191.62 923.383,1192.73C923.791,1191.67 923.874,1190.49 923.787,1189.28L923.368,1188.02C923.236,1187.62 923.099,1187.22 922.956,1186.81ZM925.021,1192.25C925.051,1192.3 925.069,1192.36 925.072,1192.43C925.069,1192.35 925.047,1192.29 925.021,1192.25ZM921.708,1181.66C921.801,1181.77 921.89,1181.87 921.976,1181.97L921.942,1181.9C921.865,1181.82 921.787,1181.74 921.708,1181.66ZM914.713,1177.14C914.846,1177.24 915.036,1177.36 915.209,1177.45C915.325,1177.5 915.447,1177.56 915.573,1177.61C915.523,1177.5 915.48,1177.39 915.448,1177.29L915.392,1177.27C915.159,1177.2 914.937,1177.15 914.746,1177.14L914.713,1177.14Z"/>
    <path d="M925.503,1176.09C915.717,1250.9 885.947,1345.92 834.793,1413.6C782.326,1483 707.363,1523.65 608.394,1484.22C583.075,1474.13 561.5,1455.31 543.897,1434.75C520.797,1407.78 503.606,1377.25 488.986,1344.99C468.008,1298.7 451.832,1249.18 443.795,1198.93" style="fill:none;stroke:black;stroke-width:5.02px;"/>
    <path d="M903.155,1281.92C902.997,1281.92 902.823,1281.99 902.646,1282.11C902.458,1282.25 902.252,1282.46 902.047,1282.73C901.798,1283.06 901.527,1283.49 901.284,1283.91C900.639,1284.6 900.019,1285.33 899.503,1286.11C899.412,1286.24 898.728,1287.25 898.662,1287.52C898.603,1287.76 898.701,1287.91 898.779,1287.99C898.915,1288.13 899.155,1288.21 899.449,1288.04C899.499,1288.01 899.556,1287.96 899.617,1287.91C899.457,1288.22 899.316,1288.52 899.198,1288.81C899.047,1289.05 898.916,1289.27 898.809,1289.49C898.668,1289.77 898.493,1290.17 898.334,1290.56C898.306,1290.61 898.279,1290.66 898.253,1290.71C898.101,1291.01 897.894,1291.66 897.894,1291.66C897.823,1291.89 897.943,1292.13 898.165,1292.2C898.388,1292.28 898.631,1292.17 898.715,1291.95C898.715,1291.95 898.901,1291.46 899.122,1290.93C899.362,1290.5 899.671,1290.08 899.833,1289.6C899.875,1289.47 899.922,1289.34 899.976,1289.21C900.674,1288.14 901.805,1286.92 902.837,1286.4C905.674,1284.99 909.512,1286.06 911.446,1287.99C911.616,1288.16 911.891,1288.16 912.061,1287.99C912.231,1287.82 912.231,1287.55 912.061,1287.38C910.729,1286.04 908.586,1285.09 906.396,1284.92C906.556,1284.82 906.71,1284.71 906.791,1284.63C907.083,1284.35 906.95,1284.05 906.846,1283.94L906.857,1283.93C906.994,1283.76 907.044,1283.59 907.026,1283.42C907.012,1283.29 906.96,1283.16 906.839,1283.04C906.615,1282.82 906.281,1282.72 905.885,1282.75C906.034,1282.47 906.048,1282.19 905.92,1281.93C905.683,1281.46 905.204,1281.3 904.606,1281.45C904.579,1281.35 904.529,1281.29 904.506,1281.26C904.387,1281.15 904.094,1281.03 903.763,1281.29C903.603,1281.41 903.368,1281.67 903.155,1281.92ZM905.136,1282.31C905.093,1282.25 905.008,1282.26 904.919,1282.27C904.669,1282.3 904.377,1282.44 904.089,1282.61C904.042,1282.64 903.995,1282.66 903.948,1282.69L903.905,1282.75C904.131,1282.75 904.335,1282.79 904.505,1282.88C904.561,1282.84 904.616,1282.81 904.669,1282.77C904.821,1282.66 904.955,1282.56 905.05,1282.44C905.079,1282.41 905.105,1282.38 905.123,1282.34C905.127,1282.33 905.132,1282.32 905.136,1282.31Z"/>
    <path d="M910.143,1286.87C909.872,1286.63 909.594,1286.28 909.434,1285.88C908.726,1284.11 908.367,1282.18 907.955,1280.32C906.863,1275.41 907.142,1271.02 907.96,1266.12C908.087,1265.35 908.287,1264.31 908.607,1263.43C908.802,1262.89 909.035,1262.4 909.338,1262.1C909.508,1261.93 909.508,1261.65 909.338,1261.49C909.168,1261.32 908.892,1261.32 908.723,1261.49C908.344,1261.86 908.032,1262.46 907.788,1263.13C907.45,1264.07 907.236,1265.16 907.101,1265.97C906.264,1270.99 905.988,1275.48 907.105,1280.51C907.527,1282.41 907.901,1284.39 908.626,1286.2C908.949,1287.01 909.637,1287.67 910.114,1287.89C910.474,1288.06 910.775,1288 910.946,1287.86C911.078,1287.76 911.186,1287.59 911.181,1287.32C911.178,1287.13 911.109,1286.85 910.919,1286.47C910.812,1286.26 910.55,1286.17 910.336,1286.28C910.121,1286.39 910.034,1286.65 910.141,1286.86L910.143,1286.87Z"/>
    <path d="M905.194,1271.22C905.136,1271.22 905.077,1271.24 905.018,1271.26C904.773,1271.34 904.541,1271.62 904.426,1272.05C904.338,1272.38 904.299,1272.81 904.275,1273.18C904.19,1273.69 904.149,1274.27 904.124,1274.6C904.114,1274.69 904.105,1274.78 904.097,1274.87C903.786,1276.75 903.763,1278.7 903.973,1280.59C904.003,1280.87 903.98,1281.38 904.061,1281.76C904.114,1282.01 904.214,1282.22 904.348,1282.35C904.45,1282.45 904.562,1282.49 904.677,1282.49C904.738,1282.69 904.805,1282.87 904.877,1283.02C904.99,1283.26 905.128,1283.43 905.253,1283.51C905.448,1283.64 905.648,1283.66 905.85,1283.56C905.949,1283.51 906.038,1283.43 906.111,1283.33C906.25,1283.88 906.39,1284.39 906.468,1284.56C906.588,1284.81 906.79,1284.85 906.865,1284.86C906.99,1284.86 907.109,1284.83 907.213,1284.73C907.397,1284.54 907.5,1284.23 907.497,1283.85C907.494,1283.4 907.352,1282.82 907.267,1282.41C907.431,1282.21 907.532,1281.89 907.552,1281.5C907.588,1280.78 907.379,1279.78 907.338,1279.38C907.153,1277.52 907.045,1275.69 906.708,1273.84C906.685,1273.71 906.639,1273.46 906.569,1273.16C906.63,1272.57 906.715,1271.94 906.812,1271.57C906.825,1271.57 906.837,1271.56 906.85,1271.56C907.065,1271.45 907.152,1271.19 907.044,1270.97C906.916,1270.72 906.73,1270.66 906.603,1270.66C906.48,1270.65 906.276,1270.7 906.132,1270.93C906.009,1270.69 905.807,1270.61 905.655,1270.61C905.618,1270.61 905.268,1270.64 905.214,1271.03C905.209,1271.07 905.202,1271.13 905.194,1271.22ZM905.415,1281.92C905.434,1282 905.455,1282.07 905.476,1282.14C905.476,1282.07 905.474,1282.01 905.473,1281.95L905.448,1281.94C905.439,1281.93 905.431,1281.93 905.422,1281.93L905.415,1281.92Z"/>
    <path d="M908.855,1282.8C909.55,1284.19 910.379,1285.51 911.473,1286.6C911.543,1286.67 911.686,1286.82 911.851,1287.01C911.964,1287.2 912.059,1287.38 912.117,1287.56C912.18,1287.74 912.587,1288.47 912.697,1288.59C912.796,1288.69 912.897,1288.71 912.952,1288.72C913.113,1288.75 913.239,1288.7 913.338,1288.6C913.498,1288.44 913.573,1288.18 913.463,1287.85C913.334,1287.46 912.874,1286.87 912.51,1286.45C912.222,1286.01 911.875,1285.56 911.653,1285.19C911.043,1284.18 910.309,1283.31 909.625,1282.4C909.134,1281.42 908.714,1280.39 908.309,1279.38C907.297,1276.85 907.274,1274.39 907.497,1271.94C907.726,1269.41 908.215,1266.88 908.215,1264.29C908.215,1264.05 908.02,1263.86 907.78,1263.86C907.673,1263.86 907.574,1263.9 907.498,1263.96C907.95,1262.31 908.553,1260.72 909.294,1259.24C909.402,1259.02 909.315,1258.76 909.1,1258.65C908.885,1258.55 908.623,1258.63 908.516,1258.85C905.33,1265.22 904.632,1273.53 907.251,1280.08C907.667,1281.12 908.241,1281.98 908.855,1282.8ZM907.343,1264.55C907.313,1267.03 906.85,1269.44 906.63,1271.86C906.602,1272.18 906.577,1272.49 906.558,1272.8C906.393,1270.05 906.671,1267.23 907.343,1264.55Z"/>
    <path d="M928.343,1178.86L907.905,1279.54L903.843,1287.61C889.352,1326.85 874.321,1358.53 858.869,1384.3C820.862,1447.7 780.306,1475.39 738.968,1492.15" style="fill:none;stroke:black;stroke-width:3.33px;"/>
    <path d="M444.753,1198.34C424.84,1167.81 379.025,1171.93 365.353,1205.61C342.645,1261.54 413.139,1323.25 468.528,1294.07" style="fill:none;stroke:black;stroke-width:5.02px;"/>
    <path d="M925.253,1176.94C936.785,1171.48 946.689,1167.18 959.203,1164.36C966.807,1162.65 973.78,1162.9 979.926,1164.7C997.498,1169.86 1008.31,1187.69 1007.73,1208.59C1006.86,1240.15 985.844,1267.46 959.36,1283C940.786,1293.89 919.917,1296 904.407,1279.8" style="fill:none;stroke:black;stroke-width:5.02px;"/>
    <path d="M866.378,1145.71C831.421,1127.34 793.773,1130.3 756.466,1138.23" style="fill:none;stroke:black;stroke-width:5.02px;"/>
    <path d="M537.003,1144.09C570.847,1128.06 620.834,1128.13 656.95,1138.1" style="fill:none;stroke:black;stroke-width:5.02px;"/>
    <path d="M741.503,1317.59C738.699,1322.92 735.764,1328.18 732.164,1333.02" style="fill:none;stroke:black;stroke-width:5.02px;"/>
    <path d="M724.253,1388.84C711.575,1386.48 696.734,1381.73 686.117,1374.07" style="fill:none;stroke:black;stroke-width:5.02px;"/>
    <path d="M683.587,1374.17C682.768,1382.95 682.97,1394.7 688.523,1402.1C700.915,1418.61 719.41,1403.49 725.182,1389.66" style="fill:none;stroke:black;stroke-width:5.02px;"/>
    <ellipse cx="613.287" cy="1228.47" rx="28.333" ry="27.333" style="stroke:black;stroke-width:5.02px;"/>
    <path d="M311.87,506.056C250.269,538.036 258.503,614.893 305.116,657.713C326.194,677.075 351.964,679.061 374.08,693.918" style="fill:none;stroke:black;stroke-width:5.02px;"/>
    <path d="M311.87,506.056C354.914,497.886 385.503,504.292 402.785,548.618C406.247,557.498 408.314,566.914 409.054,576.408C411.245,604.529 400.209,636.149 412.195,663.074" style="fill:none;stroke:black;stroke-width:7.92px;"/>
    <path d="M373.745,693.431C388.693,690.233 406.913,679.73 413.673,665.314" style="fill:none;stroke:black;stroke-width:5.02px;"/>
    <path d="M403.078,676.764C386.753,658.595 375.56,634.46 378.086,609.58C379.557,595.091 385.351,581.103 384.359,566.366C383.874,559.154 381.298,550.453 374.877,546.223C367.684,541.483 360.198,544.356 355.167,550.928C348.2,560.03 345.509,572.638 345.823,583.891C345.977,589.38 346.28,599.452 353.717,599.653C363.524,599.917 368.483,588.425 368.662,580.132C368.976,565.602 361.221,550.614 345.91,547.771C327.678,544.387 321.219,568.447 321.38,581.889C321.437,586.654 321.995,591.642 323.99,596.024C324.414,596.955 325.564,599.259 326.802,599.486C327.74,599.657 329.439,597.683 329.909,597.083C332.44,593.854 333.393,589.603 333.658,585.587C334.306,575.731 330.802,556.605 318.773,553.848C302.143,550.037 300.177,570.072 301.557,581.477C301.854,583.933 302.709,593.031 306.002,594.283C306.659,594.532 306.604,593.009 306.83,592.344C307.593,590.092 307.798,587.666 307.499,585.312C307.044,581.734 305.652,577.295 302.841,574.806C297.619,570.182 290.765,574.277 288.556,579.975C279.819,602.519 306.464,614.638 322.198,622.184C325.302,623.672 328.296,625.459 331.192,627.317C338.226,631.831 344.737,638.035 350.267,644.286C361.189,656.631 368.974,678.816 380.703,690.399" style="fill:none;stroke:black;stroke-width:5.02px;"/>
    <g transform="matrix(1,0,0,1,195,-4.33334)">
        <ellipse cx="613.287" cy="1228.47" rx="28.333" ry="27.333" style="stroke:black;stroke-width:5.02px;"/>
    </g>
    <path d="M414.57,666.114C413.691,665.235 418.575,664.614 419.57,664.614C422.855,664.614 426.274,666.02 427.57,668.614C428.264,670.002 428.07,672.796 428.07,674.614C428.07,675.012 427.817,676.861 428.07,677.114C428.161,677.205 429.716,676.468 429.82,676.364C430.669,675.515 436.782,676.326 437.57,677.114C440.19,679.734 438.856,683.22 440.07,686.864C440.344,687.684 439.481,690.524 440.07,691.114C440.718,691.762 442.533,690.826 443.07,691.364C443.783,692.077 446.413,692.478 447.57,692.864C450.951,693.991 447.198,712.236 446.47,712.964" style="fill:none;stroke:black;stroke-width:5.02px;"/>
    <path d="M377.987,698.739C381.221,699.945 384.846,700.195 388.263,699.91C391.012,699.682 393.724,698.985 396.338,698.128C405.214,695.221 417.81,689.568 419.998,679.297" style="fill:none;stroke:black;stroke-width:5.02px;"/>
    <path d="M387.32,712.239C401.765,712.046 419.731,705.099 429.505,694.11" style="fill:none;stroke:black;stroke-width:5.02px;"/>
    <path d="M394.27,727.589C408.617,726.814 424.064,718.75 433.516,708.056" style="fill:none;stroke:black;stroke-width:5.02px;"/>
    <path d="M411.685,736.607C420.152,739.213 430.726,734.609 435.035,726.873" style="fill:none;stroke:black;stroke-width:5.02px;"/>
    <path d="M418.685,733.893C422.147,732.661 425.633,731.498 428.941,729.888" style="fill:none;stroke:black;stroke-width:5.02px;"/>
    <path d="M440.72,533.214C452.356,513.362 464.408,493.537 477.636,474.697" style="fill:none;stroke:black;stroke-width:5.02px;"/>
    <path d="M349.22,471.714C348.486,450.282 347.495,428.902 348.046,407.455" style="fill:none;stroke:black;stroke-width:5.02px;"/>
    <path d="M265.22,511.714C247.089,499.751 229.237,487.089 210.665,475.826" style="fill:none;stroke:black;stroke-width:5.02px;"/>
    <path d="M248.72,625.714C228.096,621.806 207.263,616.87 187.012,611.243" style="fill:none;stroke:black;stroke-width:5.02px;"/>
    <path d="M727.938,449.738L747.174,446.714L749.887,475.749C737.448,481.785 737.472,487.49 745.201,492.988L739.776,502.667C730.039,503.296 731.221,507.801 738.147,514.345C728.956,516.504 731.271,520.801 736.57,525.652L732.87,549.546C747.206,561.393 751.554,577.722 747.914,597.635C739.203,616.131 725.441,622.859 707.962,620.923C693.701,616.553 679.106,608.101 673.614,591.364C669.314,574.406 675.105,559.111 681.327,550.756C687.843,545.235 693.992,542.742 697.85,545.312L727.938,449.738Z" style="fill:none;stroke:black;stroke-width:5.02px;"/>
    <path d="M737.345,448.259L712.647,548.638" style="fill:none;stroke:black;stroke-width:5.02px;"/>
    <g transform="matrix(0.413647,0.168505,-0.172379,0.423156,525.747,189.383)">
        <ellipse cx="723.262" cy="679.339" rx="32" ry="13.5" style="fill:none;stroke:black;stroke-width:11.12px;"/>
    </g>
    <path d="M372.82,694.614C369.326,694.614 366.575,702.624 368.32,706.114C369.35,708.172 372.703,708.68 374.57,709.614C375.468,710.063 377.57,709.864 377.57,709.864C377.57,709.864 376.204,712.347 375.57,713.614C374.315,716.125 376.122,719.467 377.07,721.364C377.822,722.866 381.724,723.614 383.32,723.614C384.252,723.614 386.07,723.114 386.07,723.114C386.07,723.114 384.769,723.415 384.32,723.864C383.655,724.529 384.07,727.184 384.07,728.114C384.07,731.079 386.623,735.064 388.82,737.364C397.828,746.796 448.047,720.639 447.57,709.364" style="fill:none;stroke:black;stroke-width:5.02px;"/>
    <g transform="matrix(0.999434,0.0336344,-0.0336344,0.999434,21.2026,-33.6507)">
        <path d="M1115.03,458.819L933.699,568.819L1043.7,618.819L930.366,760.819L1144.37,611.485L1019.03,570.152L1115.03,458.819Z" style="fill:none;stroke:black;stroke-width:5.02px;"/>
    </g>
    <path d="M1109.35,466.03C1094.55,480.084 1081.06,495.621 1066.82,510.239C1048.48,529.059 1029.17,547.798 1014.41,569.669C1013.52,570.983 1013.87,572.771 1015.18,573.658C1016.5,574.545 1018.28,574.199 1019.17,572.884C1033.74,551.297 1052.83,532.826 1070.93,514.25C1085.12,499.685 1098.56,484.2 1113.31,470.198C1114.46,469.106 1114.51,467.286 1113.41,466.136C1112.32,464.985 1110.5,464.938 1109.35,466.03Z"/>
    <path d="M1016.41,574.365C1039.23,585.474 1063.5,591.948 1087.44,599.823C1092.62,601.529 1097.38,604.262 1102.54,606.05C1113.97,610.01 1125.19,613.112 1136.06,618.537C1137.48,619.245 1139.2,618.668 1139.91,617.249C1140.62,615.83 1140.04,614.103 1138.62,613.394C1127.53,607.857 1116.09,604.662 1104.42,600.62C1099.23,598.822 1094.45,596.078 1089.24,594.364C1065.54,586.569 1041.51,580.192 1018.92,569.197C1017.5,568.503 1015.77,569.097 1015.08,570.523C1014.39,571.949 1014.98,573.671 1016.41,574.365Z"/>
    <path d="M1126.1,610.817C1122.15,618.627 1114.78,624.145 1108.13,629.543C1093.04,641.78 1076.09,651.749 1059.35,661.511C1044.02,670.451 1029.65,680.824 1014.73,690.408C1003.36,697.714 991.423,704.024 980.226,711.617C963.193,723.167 947.457,736.293 931.971,749.785C930.775,750.827 930.65,752.644 931.692,753.84C932.734,755.035 934.551,755.16 935.746,754.119C951.058,740.778 966.611,727.794 983.452,716.373C994.609,708.807 1006.5,702.524 1017.84,695.244C1032.69,685.704 1046.99,675.374 1062.25,666.476C1079.24,656.566 1096.43,646.428 1111.75,634.006C1119.01,628.111 1126.91,621.942 1131.23,613.412C1131.94,611.996 1131.38,610.266 1129.96,609.55C1128.55,608.834 1126.82,609.402 1126.1,610.817Z"/>
    <path d="M1134.75,614.329C1127.85,618.115 1121.73,622.841 1115.72,627.891C1114.51,628.912 1114.35,630.726 1115.37,631.94C1116.39,633.154 1118.2,633.311 1119.42,632.29C1125.13,627.484 1130.95,622.97 1137.51,619.367C1138.9,618.604 1139.41,616.855 1138.65,615.465C1137.89,614.075 1136.14,613.565 1134.75,614.329Z"/>
    <path d="M1132,615.217C1126.22,618.862 1120.75,622.803 1115.72,627.428C1114.55,628.501 1114.47,630.32 1115.55,631.488C1116.62,632.656 1118.44,632.734 1119.61,631.661C1124.39,627.271 1129.58,623.538 1135.06,620.078C1136.4,619.232 1136.81,617.456 1135.96,616.115C1135.12,614.773 1133.34,614.371 1132,615.217Z"/>
    <path d="M1127.96,614.557C1122.15,620.036 1116.15,625.298 1110.73,631.178C1109.66,632.344 1109.73,634.164 1110.9,635.238C1112.06,636.313 1113.88,636.238 1114.96,635.072C1120.28,629.291 1126.19,624.124 1131.9,618.738C1133.06,617.65 1133.11,615.83 1132.02,614.676C1130.93,613.522 1129.11,613.469 1127.96,614.557Z"/>
    <g transform="matrix(1,0,0,1.17808,-14.0001,-169.602)">
        <path d="M1813.14,879.381C1813.14,839.091 1774.6,806.381 1727.14,806.381L1243.14,806.381C1195.67,806.381 1157.14,839.091 1157.14,879.381C1157.14,919.67 1195.67,952.381 1243.14,952.381L1727.14,952.381C1774.6,952.381 1813.14,919.67 1813.14,879.381Z" style="fill:none;stroke:black;stroke-width:4.6px;"/>
    </g>
    <g transform="matrix(1.07048,0,0,1.07623,-132.735,-66.7643)">
        <ellipse cx="1703.47" cy="867.047" rx="75.667" ry="74.333" style="fill:none;stroke:black;stroke-width:4.68px;"/>
    </g>
    <g transform="matrix(0.907489,0,0,0.932735,144.59,57.655)">
        <ellipse cx="1703.47" cy="867.047" rx="75.667" ry="74.333" style="fill:rgb(1,0,0);stroke:black;stroke-width:5.46px;"/>
    </g>
    <path d="M1155.55,824.631C1154.59,825.595 1153.18,822.257 1152.05,821.131C1150.12,819.198 1147.34,818.154 1145.05,816.631C1136.43,810.884 1127.65,811.1 1118.55,814.131C1113.19,815.919 1106.76,820.43 1103.55,823.631C1102.28,824.91 1102.7,828.98 1101.55,830.131C1099.28,832.402 1105.05,842.301 1105.05,844.631C1105.05,845.481 1105.55,847.131 1105.55,847.131C1105.55,847.131 1104.82,846.168 1104.55,845.631C1102.99,842.504 1099.09,838.81 1095.55,837.631C1084.84,834.06 1072.06,828.129 1060.05,831.131C1051.98,833.15 1043.73,835.454 1037.55,841.631C1034.57,844.618 1032.74,849.27 1031.05,852.631C1030.28,854.187 1029.55,857.631 1029.55,857.631C1029.55,857.631 1028.89,856.297 1028.55,855.631C1027.62,853.754 1025.83,849.647 1023.55,848.131C1018.13,844.512 1014.23,843.674 1008.05,842.131C991.923,838.098 980.248,853.854 977.054,866.631C974.369,877.37 987.056,891.131 996.054,894.131C998.231,894.856 1011.05,894.091 1011.05,891.131C1011.05,890.499 1005.07,895.85 1004.55,896.631C1001.22,901.626 998.223,907.289 997.054,913.131C993.7,929.903 1006.84,945.889 1023.05,949.131C1033.96,951.312 1040.47,947.717 1048.05,940.131C1051.08,937.109 1051.72,931.464 1054.55,928.631C1054.98,928.206 1055.55,927.131 1055.55,927.131C1055.55,927.131 1055.14,930.863 1054.55,932.631C1053.56,935.623 1052.43,942.249 1053.55,945.631C1056.68,954.996 1062.8,957.816 1072.05,960.131C1082.31,962.695 1094.17,956.515 1101.05,949.631C1103.56,947.122 1106.05,942.17 1106.05,938.631C1106.05,938.558 1106.86,936.631 1106.55,936.631C1105.77,936.631 1106.55,940.352 1106.55,941.131C1106.55,944.934 1108.43,948.275 1109.55,951.631C1112.68,961.025 1127.5,961.779 1134.55,964.131C1139.08,965.64 1145.81,961.504 1149.55,959.631C1165.2,951.809 1168.05,943.184 1168.05,927.131" style="fill:none;stroke:black;stroke-width:5.02px;"/>
    <path d="M1584.22,633.797C1576.56,637.626 1595.54,616.475 1597.72,614.297C1609.59,602.428 1628.75,602.567 1641.72,612.297C1647.55,616.666 1647.27,623.441 1649.22,629.297C1649.57,630.351 1648.37,634.449 1648.72,634.797C1649.08,635.155 1651.36,631.524 1651.72,630.797C1653.06,628.127 1656.61,624.076 1659.72,623.297C1669.13,620.945 1684.47,617.361 1694.22,619.797C1702.93,621.975 1704.27,634.54 1705.72,641.797C1706.35,644.92 1706.72,651.297 1706.72,651.297C1706.72,651.297 1707.39,649.964 1707.72,649.297C1709.76,645.218 1715.03,640.471 1719.72,639.297C1731.45,636.366 1748.57,639.589 1756.22,649.797C1763.33,659.275 1765.37,672.6 1757.72,682.797C1754.95,686.492 1751.75,688.766 1748.72,691.797C1747.89,692.631 1741.65,695.732 1742.72,696.797C1744.49,698.568 1752.09,695.763 1754.22,696.297C1764.73,698.925 1770.64,707.245 1766.22,718.297C1764.62,722.288 1760.71,725.305 1757.72,728.297C1746.45,739.571 1739.84,743.101 1723.72,740.797C1720.11,740.282 1716.11,740.491 1712.72,738.797C1706.17,735.524 1699.13,731.116 1695.72,724.297C1695.28,723.418 1691.81,719.208 1692.72,718.297C1693.38,717.643 1697,723.633 1697.22,724.297C1699.2,730.248 1702.18,738.334 1696.72,743.797C1686.34,754.181 1661.18,758.291 1647.22,756.297C1633.13,754.284 1623.94,742.446 1619.72,729.797C1618.44,725.956 1617.72,721.846 1617.72,717.797L1617.72,711.297C1617.72,711.297 1618.22,712.61 1618.22,713.297C1618.22,716.766 1617.87,719.551 1617.22,722.797C1615.57,731.035 1609.67,737.635 1603.22,742.797C1588.6,754.493 1550.53,756.806 1539.72,738.797C1535.4,731.605 1537.77,723.249 1543.22,717.797C1545.25,715.765 1550.28,710.352 1553.22,713.297C1554.83,714.903 1542.38,720.744 1540.72,721.297C1529.74,724.957 1519.17,722.026 1516.72,709.797C1514.36,698.013 1524.72,679.3 1534.72,673.297C1540.15,670.04 1547.51,670.393 1553.22,672.297C1555.23,672.968 1557.72,676.797 1557.72,676.797C1557.72,676.797 1553.58,670.889 1551.72,667.797C1547.63,660.987 1546.1,653.634 1547.22,645.797C1549.23,631.743 1564.99,625.478 1577.72,627.297C1580.49,627.693 1598.09,632.297 1595.22,632.297" style="fill:none;stroke:black;stroke-width:5.02px;"/>
    <path d="M1783.14,915.381C1782.01,914.982 1785.62,914.894 1786.47,914.047C1788.77,911.749 1797.75,912.714 1801.14,912.714C1813.06,912.714 1835.25,915.057 1829.14,933.381C1827.08,939.544 1825.45,945.421 1822.47,951.381C1820.34,955.634 1811.14,960.047 1811.14,960.047C1811.14,960.047 1814.69,958.27 1816.47,957.381C1820.6,955.318 1827.7,959.567 1831.14,960.714C1840.64,963.881 1838.69,980.736 1836.47,987.381C1833.57,996.091 1823.71,1003.19 1815.14,1006.05C1809.04,1008.08 1802.54,1004.42 1797.8,1002.05C1796.81,1001.55 1794.47,1002.05 1794.47,1002.05C1794.47,1002.05 1796.73,1002.85 1797.8,1003.38C1803.41,1006.18 1807.24,1016.29 1805.8,1022.05C1802.51,1035.23 1790.76,1042.9 1779.14,1048.71C1769.3,1053.63 1753.77,1055.03 1743.8,1050.05C1742.53,1049.41 1728.67,1043.18 1731.14,1040.71C1732.37,1039.48 1743.1,1049.46 1739.14,1057.38C1734.34,1066.98 1710.24,1068.08 1701.14,1069.38C1691.11,1070.81 1674.73,1067.57 1666.47,1061.38C1660.88,1057.19 1659.77,1051.32 1657.14,1046.05C1656.63,1045.03 1656.47,1042.71 1656.47,1042.71C1656.47,1042.71 1654.84,1051.68 1651.8,1054.71C1644.36,1062.15 1632.83,1064.29 1623.14,1066.71C1607.67,1070.58 1594.06,1060.01 1588.47,1046.05C1587.44,1043.47 1587.14,1040.81 1587.14,1038.05C1587.14,1032.42 1588.44,1027.73 1593.14,1025.38C1593.66,1025.12 1594.89,1023.13 1595.8,1024.05C1598.5,1026.74 1584.1,1031.81 1583.14,1032.05C1570.93,1035.1 1555.26,1038.64 1543.8,1030.05C1537.54,1025.35 1527.17,1018.61 1530.47,1008.71C1531.76,1004.86 1532.93,999.585 1535.8,996.714C1536.51,996.007 1541.51,993.755 1541.14,993.381C1539.8,992.039 1528.25,995.601 1526.47,996.047C1517.88,998.195 1504.34,993.122 1500.47,985.381C1497.03,978.504 1495.47,967.382 1499.14,960.047C1501.82,954.682 1504.73,953.381 1501.8,953.381" style="fill:none;stroke:black;stroke-width:5.02px;"/>
    <path d="M1272.64,1039.05L1262.04,1077.78L1225.64,1079.38L1256.5,1096.11L1241.64,1134.38L1270.57,1102.38L1303.3,1128.38L1283.5,1095.18L1320.64,1080.05L1281.5,1076.78L1272.64,1039.05Z" style="fill:none;stroke:black;stroke-width:5.02px;"/>
    <path d="M1301.35,665.422L1310.18,692.839L1339.51,687.339L1317.76,707.422L1331.93,733.839L1303.85,713.172C1303.85,713.172 1283.35,737.422 1280.1,738.922C1276.85,740.422 1286.6,711.172 1286.6,711.172L1263.76,701.672L1292.6,694.672L1301.35,665.422Z" style="fill:none;stroke:black;stroke-width:5.02px;"/>
    <path d="M1702.2,516.397L1706.67,546.197L1738.6,546.397L1709.54,560.897L1721.4,592.597L1695.8,568.964L1664.8,591.597L1680.54,564.931L1656.9,543.631L1686.67,545.031L1702.2,516.397Z" style="fill:none;stroke:black;stroke-width:5.02px;"/>
    <g transform="matrix(0.817762,0,0,1.58658,313.951,-1009.94)">
        <text x="1073.65px" y="1207.67px" style="font-family:'ArialMT', 'Arial', sans-serif;font-size:76px;stroke:black;stroke-width:0.79px;stroke-linecap:butt;stroke-miterlimit:2;">I&apos;M BACK!</text>
    </g>
    <path d="M546.629,1056.29C545.375,1056.82 544.493,1058.06 544.493,1059.5C544.493,1060.65 544.945,1061.39 545.385,1061.89C545.938,1062.52 546.647,1062.92 547.536,1063.05C548.087,1063.13 548.927,1063.13 549.886,1062.6C550.633,1062.19 552.757,1059.92 553.431,1059.25C554.241,1058.43 555.011,1057.59 555.846,1056.87C556.571,1056.25 557.334,1055.69 558.4,1055.69C560.547,1055.69 563.062,1056.47 564.332,1058.16C564.733,1058.69 566.238,1060.38 566.949,1061.16C567.07,1061.34 567.21,1061.52 567.369,1061.67C567.932,1062.24 568.288,1062.42 568.348,1062.46C569.259,1062.97 569.987,1062.92 570.38,1062.88C571.612,1062.77 572.424,1062.15 572.969,1061.31C573.075,1061.15 574.381,1059.22 572.711,1057.18C572.443,1056.85 570.394,1054.65 569.897,1053.98C567.399,1050.65 562.623,1048.74 558.4,1048.74C554.1,1048.74 551.354,1051.48 548.512,1054.33C548.206,1054.63 547.185,1055.7 546.629,1056.29ZM551.445,1059.32L551.449,1059.5C551.449,1059.44 551.448,1059.38 551.445,1059.32ZM551.432,1059.15L551.444,1059.31L551.435,1059.18L551.432,1059.15ZM551.41,1058.98L551.43,1059.14L551.418,1059.03L551.41,1058.98ZM551.383,1058.83L551.407,1058.96L551.396,1058.89L551.383,1058.83ZM551.358,1058.71L551.373,1058.77L551.367,1058.75L551.358,1058.71Z"/>
    <path d="M706.888,1039.57C706.857,1039.85 706.779,1040.61 706.779,1041.07C706.779,1042.99 708.337,1044.55 710.257,1044.55C712.177,1044.55 713.735,1042.99 713.735,1041.07C713.735,1039.81 713.955,1038.74 713.557,1037.54C712.374,1034 709.529,1032.12 705.987,1031.53C701.928,1030.85 696.879,1032.09 693.987,1033.53C685.729,1037.66 682.723,1048.33 683.657,1056.74C683.973,1059.59 684.263,1062.92 686.046,1065.3C687.198,1066.84 689.38,1067.15 690.915,1066C692.451,1064.85 692.763,1062.66 691.611,1061.13C691.221,1060.61 691.075,1059.95 690.954,1059.3C690.75,1058.18 690.688,1057.03 690.571,1055.97C689.928,1050.18 691.414,1042.6 697.098,1039.75C698.689,1038.96 701.266,1038.24 703.631,1038.28C704.975,1038.31 706.377,1038.4 706.888,1039.57Z"/>
    <path d="M691.34,1058.22C691.824,1062.9 692.753,1067.56 694.243,1072.03C694.85,1073.85 696.822,1074.84 698.643,1074.23C700.464,1073.62 701.449,1071.65 700.842,1069.83C700.279,1068.14 699.807,1066.42 699.418,1064.68C700.841,1064.25 701.878,1062.92 701.878,1061.36C701.878,1059.52 700.443,1058.01 698.632,1057.89C698.53,1057.71 698.353,1057.38 698.27,1057.16L698.204,1056.96C697.98,1054.61 697.878,1052.26 697.878,1049.93C697.878,1048.93 697.739,1046.13 697.739,1046.13L697.727,1046.16C697.89,1045.69 697.966,1044.94 698,1044.37C698.225,1043.95 698.424,1043.55 698.545,1043.3L698.675,1043.2C698.722,1043.16 698.769,1043.13 698.817,1043.09L699.553,1042.95C699.637,1042.96 699.72,1042.96 699.804,1042.97L699.819,1042.97L701.762,1043.78C702.555,1044.52 703.895,1045.27 704.956,1045.39C706.246,1045.53 707.386,1045.15 708.288,1044.25C709.369,1043.16 709.651,1041.89 709.116,1040.45C708.933,1039.95 708.52,1039.22 707.673,1038.59C707.16,1038.21 705.798,1037.5 705.351,1037.27C704.249,1036.32 702.229,1035.04 700.251,1034.57C697.981,1034.03 695.806,1034.46 694.226,1036.04C689.682,1040.59 688.875,1048.46 690.74,1055.91C690.917,1056.62 691.108,1057.42 691.34,1058.22Z"/>
    <path d="M840.583,1059.87C838.939,1059.26 837.062,1059.97 836.26,1061.57C836.296,1061.5 836.458,1061.23 836.458,1061.23C836.458,1061.23 835.666,1062.71 835.596,1063.33C835.456,1064.55 835.873,1065.55 836.626,1066.3C836.713,1066.39 836.824,1066.49 836.96,1066.6C837.127,1067.07 837.397,1067.5 837.769,1067.87C838.565,1068.67 839.624,1069.13 840.889,1069.19C841.671,1069.22 843.302,1068.92 843.47,1068.89C844.77,1068.87 846.351,1068.52 847.948,1068.21C848.587,1068.08 849.23,1067.97 849.841,1067.96L849.861,1067.96L849.959,1067.99C850.083,1068.02 850.206,1068.05 850.329,1068.08L850.607,1068.14C852.281,1069.89 853.388,1072.46 854.215,1074.94C854.523,1075.87 854.657,1076.88 854.962,1077.8C855.005,1078.4 855.053,1078.9 855.053,1078.9C855.232,1080.69 856.745,1082.05 858.542,1082.04C860.339,1082.02 861.83,1080.64 861.98,1078.85C861.98,1078.85 861.982,1078.59 861.965,1078.21L861.975,1078.21L861.959,1078.05C861.944,1077.76 861.919,1077.41 861.877,1077.07C861.861,1076.83 861.849,1076.59 861.849,1076.41C861.849,1074.7 861.893,1072.84 861.385,1071.31C860.063,1067.35 857.436,1065.13 855.116,1062.81C855.026,1062.72 854.91,1062.63 854.777,1062.54C853.734,1061.72 852.52,1061.26 851.196,1061.09C848.869,1060.03 846.395,1059.65 843.514,1059.65C842.888,1059.65 841.666,1059.71 840.583,1059.87Z"/>
    <path d="M941.512,1165.55C941.441,1165.35 941.342,1165.05 941.284,1164.85C941.09,1164.19 940.875,1163.5 940.565,1162.81C940.599,1162.51 940.703,1161.65 940.782,1161.34C941.341,1159.11 941.572,1156.5 943.242,1154.83C943.415,1154.66 943.781,1154.33 943.97,1154.16C945.561,1153.84 946.761,1152.43 946.761,1150.75C946.761,1148.83 945.202,1147.27 943.283,1147.27C942.478,1147.27 941.653,1147.48 940.86,1147.89C939.927,1148.37 939.002,1149.23 938.323,1149.91C935.769,1152.47 934.888,1156.23 934.033,1159.65C933.821,1160.5 933.553,1161.95 933.602,1163.16C933.639,1164.08 933.85,1164.91 934.172,1165.55C934.559,1166.33 934.683,1167.13 934.923,1167.82C935.292,1168.89 935.804,1169.81 936.573,1170.58C936.88,1170.89 937.889,1171.57 938.816,1171.99C939.655,1172.38 940.45,1172.56 940.764,1172.59C942.726,1172.75 943.672,1171.61 944.109,1170.85C944.462,1170.24 945.417,1168.46 943.492,1166.54C942.935,1165.98 942.236,1165.65 941.512,1165.55ZM937.755,1170.16C937.865,1170.51 938.067,1170.9 938.433,1171.31C938.127,1170.96 937.901,1170.57 937.755,1170.16Z"/>
    <path d="M941.785,1150.04C941.418,1150.38 940.661,1151.08 940.411,1151.46C939.655,1152.59 938.95,1153.73 938.133,1154.82C935.595,1158.21 935.498,1163.14 937.391,1166.54C938.823,1169.12 941.282,1170.87 944.533,1170.87C946.188,1170.87 947.533,1169.53 947.533,1167.87C947.533,1166.22 946.188,1164.87 944.533,1164.87C943.346,1164.87 942.645,1163.92 942.307,1162.86C941.851,1161.43 941.986,1159.68 942.933,1158.42C943.785,1157.29 944.528,1156.1 945.314,1154.92C945.505,1154.76 946.227,1154.13 946.524,1153.79C947.23,1152.98 947.533,1152.08 947.533,1151.25C947.533,1149.59 946.188,1148.25 944.533,1148.25C943.305,1148.25 942.249,1148.99 941.785,1150.04Z"/>
    <path d="M940.697,1162.42C940.705,1162.53 940.737,1163.02 940.767,1163.28C940.819,1163.72 940.93,1164.14 941.119,1164.52C941.697,1165.67 942.796,1167.09 943.618,1167.91C943.896,1168.19 944.249,1168.4 944.675,1168.53C944.848,1168.59 945.178,1168.63 945.385,1168.66C945.451,1168.7 945.524,1168.74 945.603,1168.77C945.961,1168.92 946.775,1169.17 947.406,1169.21C948.22,1169.27 948.873,1169 949.277,1168.68C950.142,1168.46 950.783,1167.68 950.783,1166.75C950.783,1165.64 949.886,1164.75 948.783,1164.75C948.277,1164.75 947.788,1164.91 947.376,1165.14L947.26,1165.11C947.075,1165 946.868,1164.9 946.641,1164.84C946.514,1164.8 946.304,1164.76 946.119,1164.73C945.629,1164.19 945.079,1163.46 944.744,1162.82C944.735,1162.68 944.704,1162.22 944.675,1161.97C944.625,1161.55 944.524,1161.16 944.353,1160.8C944.36,1160.71 944.408,1160.14 944.501,1159.81C944.833,1158.64 945.482,1157.45 945.696,1157.02C945.714,1156.98 945.786,1156.86 945.863,1156.74C946.121,1156.65 946.364,1156.49 946.572,1156.29C947.352,1155.51 947.352,1154.24 946.572,1153.46C945.855,1152.74 945.019,1152.6 944.107,1152.99C943.763,1153.14 943.349,1153.43 942.99,1153.87C942.589,1154.34 942.215,1155.04 942.119,1155.23C941.798,1155.87 940.767,1157.85 940.455,1159.57C940.258,1160.64 940.343,1161.64 940.697,1162.42ZM943.888,1156.42L943.889,1156.42L943.854,1156.39L943.888,1156.42ZM943.816,1156.36L943.743,1156.29C943.768,1156.31 943.792,1156.33 943.816,1156.36Z"/>
    <path d="M951.256,1164.34C950.603,1164.16 949.809,1164.1 948.985,1164.11C948.444,1164.12 947.563,1164.07 947.304,1164.06C946.124,1162.75 945.696,1160.55 945.915,1158.45C946.138,1156.33 947.047,1154.23 948.927,1153.29C949.914,1152.79 950.315,1151.59 949.821,1150.6C949.328,1149.62 948.125,1149.21 947.138,1149.71C944.052,1151.25 942.303,1154.55 941.937,1158.04C941.577,1161.47 942.588,1165.01 944.618,1167.04C945.298,1167.72 946.446,1168.08 947.794,1168.12C948.36,1168.13 948.969,1168.1 949.531,1168.11C949.763,1168.12 949.983,1168.08 950.138,1168.16C950.42,1168.3 950.928,1168.44 951.54,1168.38C952.227,1168.31 953.118,1167.92 953.358,1167.74C954.046,1167.2 954.158,1166.55 954.158,1166.12C954.158,1165.02 953.261,1164.12 952.158,1164.12C951.833,1164.12 951.527,1164.2 951.256,1164.34Z"/>
    <path d="M460.533,1295.89C460.205,1295.89 459.751,1295.9 459.547,1295.96C459.304,1296.04 459.09,1296.15 458.904,1296.28L458.73,1296.34C458.292,1296.38 457.866,1296.58 457.531,1296.91C456.863,1297.58 456.896,1298.26 456.973,1298.68C457.069,1299.23 457.411,1300.22 458.79,1300.33C458.922,1300.34 459.511,1300.3 460.106,1300.1C460.303,1300.04 460.497,1299.95 460.677,1299.86C461.003,1299.86 461.444,1299.85 461.643,1299.79C461.845,1299.73 462.026,1299.64 462.188,1299.54L463.458,1299.2C463.67,1299.31 463.906,1299.4 464.166,1299.46C464.468,1299.53 465.072,1299.57 465.406,1299.59C465.869,1300 466.373,1300.37 466.878,1300.75C467.498,1301.22 468.145,1301.7 468.556,1302.52C468.752,1302.91 469.021,1303.28 469.319,1303.64C469.486,1303.84 469.776,1304.23 469.848,1304.32C469.898,1305.38 470.774,1306.23 471.845,1306.23C472.949,1306.23 473.845,1305.33 473.845,1304.23C473.845,1303.37 473.551,1302.63 473.088,1301.96C472.792,1301.53 472.354,1301.17 472.134,1300.73C471.519,1299.5 470.669,1298.65 469.752,1297.92C469.11,1297.41 468.426,1296.98 467.859,1296.41C467.529,1296.08 467.077,1295.82 466.509,1295.7C466.188,1295.63 465.495,1295.59 465.211,1295.57C464.71,1295.28 464.005,1295.1 463.175,1295.17C462.243,1295.26 461.06,1295.66 460.533,1295.89ZM460.941,1298.21C460.971,1298.72 460.805,1299.24 460.443,1299.65C460.919,1299.13 460.977,1298.6 460.941,1298.21ZM459.496,1296.4C460.347,1296.6 460.691,1297.2 460.836,1297.67C460.74,1297.4 460.581,1297.13 460.359,1296.91C460.111,1296.66 459.812,1296.49 459.496,1296.4Z"/>
    <path d="M460.077,1296.33C459.586,1296.39 458.96,1296.51 458.718,1296.71C458.34,1297.03 457.945,1297.52 457.945,1298.43C457.945,1299.53 458.841,1300.43 459.945,1300.43C460.298,1300.43 460.629,1300.34 460.916,1300.17C461.192,1300.15 461.465,1300.1 461.639,1300.02C461.867,1299.9 462.731,1299.74 462.942,1299.71C463.445,1299.94 463.972,1300.11 464.508,1300.26C465.052,1300.42 465.62,1300.55 466.136,1300.89C467.031,1301.49 467.717,1302.33 468.376,1303.19C469.222,1304.29 470.017,1305.43 470.931,1306.34C471.711,1307.12 472.979,1307.12 473.759,1306.34C474.54,1305.56 474.54,1304.29 473.759,1303.51C471.963,1301.72 470.619,1299.07 468.354,1297.56C467.601,1297.06 466.806,1296.77 466.007,1296.53C465.506,1296.38 465.002,1296.27 464.54,1296.04C464.067,1295.8 463.429,1295.67 462.72,1295.7C461.794,1295.74 460.703,1296.07 460.077,1296.33ZM461.916,1298.77L461.914,1298.78L461.915,1298.77L461.916,1298.77ZM461.933,1298.64L461.927,1298.69L461.931,1298.66L461.933,1298.64ZM461.942,1298.54L461.938,1298.59L461.942,1298.55L461.942,1298.54Z"/>
    <path d="M463.419,1285.64C463.421,1285.78 463.445,1287.29 463.445,1287.83C463.445,1290.4 462.944,1292.5 461.131,1294.31C460.761,1294.68 459.278,1295.84 458.829,1296.18C458.067,1295.75 457.08,1295.86 456.431,1296.51C455.65,1297.29 455.65,1298.56 456.431,1299.34C457.395,1300.3 458.596,1300.51 459.893,1300.1C461.446,1299.62 463.257,1297.84 463.959,1297.14C466.578,1294.52 467.445,1291.55 467.445,1287.83C467.445,1287.22 467.512,1286.22 467.429,1285.42C467.369,1284.84 467.227,1284.32 467.034,1283.93C466.864,1283.59 466.645,1282.86 466.645,1282.53C466.645,1281.42 465.749,1280.53 464.645,1280.53C463.541,1280.53 462.645,1281.42 462.645,1282.53C462.645,1283.24 463.045,1284.84 463.419,1285.64Z"/>
    <path d="M457.846,1190.58C456.505,1190.58 455.099,1191.31 453.856,1192.51C452.539,1193.78 451.362,1195.56 450.579,1196.6C448.428,1199.47 445.946,1202.33 445.218,1205.97C444.642,1208.85 444.672,1212.62 445.088,1215.53C445.232,1216.54 445.735,1217.57 445.735,1218.58C445.735,1219.68 446.631,1220.58 447.735,1220.58C448.839,1220.58 449.735,1219.68 449.735,1218.58C449.735,1217.38 449.218,1216.15 449.048,1214.96C448.691,1212.46 448.646,1209.22 449.14,1206.75C449.75,1203.7 451.979,1201.4 453.779,1199C454.466,1198.09 455.474,1196.5 456.63,1195.39C457.04,1195 457.404,1194.58 457.846,1194.58C458.95,1194.58 459.846,1193.68 459.846,1192.58C459.846,1191.48 458.95,1190.58 457.846,1190.58Z"/>
    <path d="M461.591,1185.91C450.275,1195.03 444.553,1209.22 447,1223.5C447.187,1224.59 448.222,1225.32 449.309,1225.14C450.397,1224.95 451.129,1223.91 450.943,1222.83C448.742,1209.98 453.921,1197.23 464.1,1189.03C464.96,1188.34 465.096,1187.08 464.403,1186.21C463.711,1185.36 462.451,1185.22 461.591,1185.91Z"/>
    <path d="M425.269,1183.39C432.294,1190.95 440.992,1198.93 444.254,1208.98C444.595,1210.03 445.724,1210.61 446.774,1210.27C447.824,1209.93 448.399,1208.8 448.059,1207.75C444.621,1197.16 435.603,1188.64 428.2,1180.66C427.449,1179.86 426.183,1179.81 425.374,1180.56C424.565,1181.31 424.518,1182.58 425.269,1183.39Z"/>
    <path d="M417.612,669.048C417.736,669.036 417.86,669.028 417.986,669.028C419.53,669.028 421.079,669.883 422.377,670.532C423.162,670.924 423.62,671.627 424.007,672.361C424.58,673.45 424.985,674.642 425.482,675.637C425.665,676.002 425.701,676.575 425.835,677.072C426.049,677.865 426.395,678.552 426.857,679.014C427.638,679.795 428.905,679.795 429.686,679.014C430.431,678.268 430.464,677.078 429.785,676.294C429.753,676.183 429.624,675.734 429.567,675.477C429.433,674.867 429.277,674.283 429.06,673.848C428.551,672.83 428.133,671.612 427.547,670.498C426.773,669.029 425.735,667.739 424.166,666.954C422.356,666.049 420.14,665.028 417.986,665.028C417.197,665.028 416.444,665.314 415.7,665.314C415.066,665.314 413.845,665.731 413.845,665.731C413.046,666.035 412.528,666.815 412.558,667.67C412.588,668.524 413.158,669.266 413.977,669.514C413.977,669.514 415.305,669.886 415.986,669.886C416.656,669.886 417.249,669.555 417.612,669.048Z"/>
    <path d="M431.459,680.075C432.657,680.698 433.72,681.448 434.714,682.443C435.253,682.981 435.58,683.748 435.863,684.524C436.215,685.491 436.472,686.491 436.741,687.328L436.733,687.637C436.62,687.887 436.557,688.165 436.557,688.457C436.557,689.561 437.453,690.457 438.557,690.457C439.134,690.457 439.755,690.255 440.235,689.591C440.396,689.368 440.621,688.905 440.699,688.296C440.791,687.58 440.699,686.558 440.597,686.253C439.92,684.221 439.22,681.292 437.543,679.614C436.17,678.242 434.701,677.221 433.023,676.382C432.585,676.163 432.031,676.047 431.416,676.063C431.118,676.071 430.662,676.128 430.313,676.178C430.009,675.993 429.653,675.886 429.271,675.886C428.167,675.886 427.271,676.782 427.271,677.886C427.271,679.084 427.861,679.739 428.79,680.084C429.138,680.214 429.618,680.284 430.179,680.235C430.51,680.206 431.204,680.111 431.459,680.075ZM438.424,686.462C438.243,686.473 438.064,686.508 437.89,686.572C438.059,686.511 438.238,686.474 438.424,686.462ZM431.269,677.793L431.271,677.886C431.271,677.854 431.271,677.823 431.269,677.793Z"/>
    <path d="M413.562,667.542C413.38,667.487 413.186,667.457 412.986,667.457C411.882,667.457 410.986,668.353 410.986,669.457C410.986,670.234 411.306,670.76 411.746,671.138C412.122,671.462 412.715,671.751 413.558,671.668C414.122,671.613 415.154,671.219 416.19,670.875C416.488,670.776 416.977,670.673 417.162,670.636C419.509,671.763 421.236,671.858 422.625,674.637C423.213,675.813 423.477,676.912 424.054,678.066C424.29,678.537 424.26,679.227 424.415,679.757C424.597,680.379 424.889,680.903 425.286,681.3C425.897,681.911 426.646,682.195 427.495,682.245C427.92,682.269 428.382,682.224 428.843,682.177C428.988,682.163 429.242,682.154 429.331,682.151C430.317,682.64 431.648,683.254 432.197,684.351C432.905,685.768 433.208,687.805 433.744,689.586C434.227,691.193 434.893,692.621 435.857,693.585C436.838,694.566 437.956,694.959 439.156,695.119C440.112,695.246 441.155,695.063 442.091,695.532C442.627,695.8 442.8,696.416 443.054,696.923C443.246,697.307 443.183,697.743 443.205,698.17C443.239,698.819 443.309,699.466 443.517,700.089C444.204,702.15 444.031,704.347 443.734,706.526C443.383,709.105 442.843,711.666 442.843,714.028C442.843,715.132 443.739,716.028 444.843,716.028C445.947,716.028 446.843,715.132 446.843,714.028C446.843,711.835 447.371,709.46 447.698,707.066C448.078,704.274 448.191,701.464 447.312,698.825C447.138,698.304 447.199,697.746 447.157,697.21C447.101,696.489 446.96,695.791 446.632,695.134C446.001,693.874 445.213,692.62 443.88,691.954C442.871,691.449 441.804,691.31 440.74,691.24C440.015,691.192 439.26,691.331 438.686,690.757C437.956,690.028 437.654,688.793 437.324,687.537C436.859,685.769 436.456,683.925 435.774,682.563C434.824,680.662 432.688,679.358 431.023,678.525C430.415,678.222 429.723,678.119 428.995,678.154C428.775,678.164 428.445,678.189 428.175,678.212L428.074,677.695C427.977,677.181 427.838,676.69 427.632,676.277C427.055,675.123 426.791,674.024 426.203,672.848C424.26,668.962 422.072,668.621 418.737,666.954C418.092,666.631 417.197,666.534 416.198,666.731C415.416,666.886 414.187,667.315 413.562,667.542ZM414.979,669.297L414.983,669.349L414.982,669.342L414.979,669.297ZM414.968,669.198L414.974,669.244L414.973,669.231L414.968,669.198ZM414.956,669.118L414.959,669.131L414.958,669.125L414.956,669.118Z"/>
    <path d="M447.692,693.28C447.602,692.259 446.744,691.457 445.7,691.457C445.095,691.457 444.63,691.686 444.264,692.05C443.983,692.331 443.694,692.76 443.666,693.422C443.657,693.629 443.688,694.019 443.862,694.495C444.066,695.055 444.599,696.091 444.7,696.343C445.224,697.652 445.986,698.726 445.986,700.171C445.986,701.275 446.882,702.171 447.986,702.171C449.089,702.171 449.986,701.275 449.986,700.171C449.986,698.189 449.133,696.653 448.414,694.857C448.337,694.664 447.876,693.674 447.692,693.28ZM447.234,694.739C446.89,695.151 446.382,695.423 445.811,695.454C446.426,695.429 446.899,695.187 447.234,694.739Z"/>
    <path d="M406.212,673.273C405.417,673.537 404.843,674.288 404.843,675.171C404.843,676.275 405.739,677.171 406.843,677.171C407.487,677.171 408.428,676.793 409.278,675.874C409.734,675.38 410.231,674.708 410.699,674.096C410.966,673.746 411.178,673.399 411.381,673.264C412.063,672.809 412.841,672.727 413.618,672.602C414.429,672.47 415.247,672.335 416.047,672.069C417.006,671.749 418.018,671.42 418.982,671.338C419.862,671.263 420.687,671.474 421.197,672.494C421.69,673.482 422.893,673.882 423.88,673.389C424.867,672.895 425.268,671.693 424.774,670.705C422.62,666.396 418.484,667.04 414.782,668.274C414.006,668.533 413.201,668.608 412.421,668.747C411.276,668.95 410.175,669.26 409.162,669.936C408.741,670.216 408.189,670.802 407.638,671.514C407.212,672.065 406.43,673.011 406.212,673.273Z"/>
    <path d="M427.04,627.989C433.057,621.339 438.626,614.074 444.971,607.728C445.752,606.948 445.752,605.68 444.971,604.9C444.191,604.119 442.923,604.119 442.143,604.9C435.751,611.292 430.136,618.606 424.074,625.306C423.333,626.124 423.397,627.39 424.215,628.131C425.034,628.871 426.299,628.808 427.04,627.989Z"/>
    <path d="M318.405,503.781C317.673,503.785 316.869,503.814 316.232,504.026C314.842,504.489 313.039,504.843 311.535,505.094C306.651,505.908 301.474,509.304 297.469,511.974C296.55,512.586 296.302,513.829 296.914,514.747C297.527,515.666 298.769,515.914 299.688,515.302C303.264,512.918 307.831,509.766 312.193,509.039C313.892,508.756 315.927,508.344 317.496,507.821C317.854,507.702 318.325,507.781 318.721,507.781C319.102,507.781 319.931,507.556 320.313,507.36C320.694,507.165 320.922,506.926 321.033,506.79C321.816,505.832 321.566,504.96 321.104,504.328C320.922,504.078 320.497,503.495 319.435,503.495C319.058,503.495 318.706,503.6 318.405,503.781ZM318.861,507.411C319.016,507.46 319.205,507.495 319.435,507.495C319.236,507.495 319.043,507.466 318.861,507.411Z"/>
    <path d="M329.137,502.011C320.111,504.77 310.621,506.997 302.251,511.49C290.904,517.582 280.655,529.9 274.771,540.936C274.252,541.91 274.621,543.123 275.595,543.642C276.569,544.161 277.781,543.792 278.301,542.818C283.846,532.417 293.449,520.755 304.143,515.015C312.283,510.645 321.527,508.52 330.306,505.836C331.361,505.514 331.956,504.395 331.634,503.339C331.311,502.283 330.192,501.688 329.137,502.011Z"/>
    <path d="M321.967,500.932C316.997,501.388 312.376,501.892 307.652,503.632C291.189,509.695 281.059,525.527 274.336,540.824C273.892,541.835 274.352,543.016 275.363,543.46C276.373,543.904 277.554,543.444 277.998,542.434C284.302,528.091 293.599,513.07 309.034,507.385C313.42,505.77 317.719,505.339 322.333,504.915C323.432,504.814 324.242,503.84 324.141,502.741C324.04,501.642 323.066,500.831 321.967,500.932Z"/>
    <path d="M741.605,448.235C742.768,453.876 743.445,459.564 743.877,465.304C744.072,467.905 744.504,470.743 743.598,473.258C742.857,475.311 741.211,476.784 739.719,478.352C737.755,480.414 735.999,482.592 735.532,485.566C735.076,488.466 736.015,490.802 737.068,492.99C738.089,495.114 739.38,497.04 737.357,499.762C736.914,500.358 736.392,500.911 735.774,501.325C734.857,501.94 734.612,503.183 735.226,504.1C735.84,505.017 737.084,505.263 738.001,504.649C738.996,503.982 739.854,503.107 740.567,502.148C743.361,498.389 742.655,495.544 741.342,492.662C740.459,490.724 739.072,488.801 739.483,486.187C739.817,484.06 741.211,482.585 742.615,481.11C744.491,479.141 746.43,477.195 747.36,474.615C748.457,471.574 748.102,468.149 747.865,465.004C747.421,459.093 746.72,453.236 745.523,447.427C745.3,446.346 744.242,445.649 743.16,445.872C742.079,446.095 741.382,447.153 741.605,448.235Z"/>
    <path d="M740.645,498.165C737.636,499.325 733.094,501.846 731.115,504.456C730.448,505.336 730.621,506.591 731.5,507.258C732.38,507.925 733.635,507.753 734.302,506.873C735.903,504.762 739.649,502.835 742.083,501.897C743.113,501.5 743.627,500.342 743.23,499.312C742.833,498.282 741.675,497.768 740.645,498.165Z"/>
    <path d="M737.406,486.022C736.785,488.991 736.926,492.673 735.339,495.34C734.208,497.242 732.653,498.768 731.242,500.386C729.558,502.315 728.064,504.36 727.333,507.005C726.743,509.138 727.142,510.865 727.846,512.568C728.341,513.764 729.038,514.938 729.334,516.382C729.491,517.144 729.037,517.904 728.776,518.693C728.438,519.715 728.203,520.745 728.298,521.755C728.489,523.785 729.13,525.684 729.747,527.601C730.258,529.19 730.756,530.794 730.772,532.55C730.796,535.263 730.059,538.124 729.539,540.967C728.938,544.262 728.624,547.533 729.563,550.584C729.888,551.639 731.008,552.232 732.063,551.907C733.118,551.582 733.711,550.462 733.386,549.407C732.632,546.957 732.991,544.331 733.474,541.686C734.04,538.589 734.798,535.469 734.772,532.515C734.752,530.34 734.187,528.345 733.555,526.377C733.027,524.736 732.444,523.118 732.281,521.38C732.199,520.517 732.69,519.66 732.96,518.791C733.297,517.708 733.468,516.628 733.252,515.577C732.961,514.161 732.393,512.943 731.859,511.764C731.336,510.607 730.789,509.514 731.188,508.071C731.75,506.036 732.961,504.5 734.256,503.015C735.823,501.218 737.52,499.497 738.776,497.386C740.58,494.354 740.616,490.215 741.322,486.84C741.548,485.76 740.854,484.699 739.773,484.473C738.693,484.247 737.632,484.941 737.406,486.022Z"/>
    <path d="M729.581,507.89C729.695,508.763 729.812,509.636 729.934,510.508C730.086,511.601 731.097,512.365 732.191,512.212C733.284,512.06 734.048,511.049 733.895,509.955C733.775,509.094 733.66,508.233 733.547,507.371C733.404,506.277 732.399,505.505 731.305,505.648C730.21,505.791 729.438,506.796 729.581,507.89Z"/>
    <path d="M730.572,509.012C731.263,516.621 731.572,524.322 732.587,531.89C732.733,532.984 733.741,533.753 734.835,533.606C735.929,533.46 736.698,532.452 736.551,531.358C735.544,523.847 735.241,516.203 734.556,508.65C734.456,507.551 733.483,506.739 732.383,506.839C731.284,506.939 730.472,507.912 730.572,509.012Z"/>
    <path d="M739.903,492.318C738.562,494.319 737.302,496.339 736.062,498.402C735.493,499.348 735.799,500.578 736.745,501.147C737.691,501.716 738.921,501.41 739.489,500.464C740.696,498.457 741.921,496.491 743.225,494.544C743.84,493.627 743.594,492.384 742.677,491.769C741.76,491.155 740.517,491.401 739.903,492.318Z"/>
    <path d="M739.143,448.236C727.543,481.337 723.873,516.974 710.705,549.612C710.292,550.636 710.787,551.802 711.811,552.215C712.835,552.628 714.001,552.132 714.414,551.109C727.606,518.413 731.297,482.718 742.918,449.559C743.283,448.517 742.734,447.375 741.692,447.01C740.65,446.645 739.508,447.194 739.143,448.236Z"/>
    <path d="M728.919,548.72C733.203,557.248 739.385,564.628 741.982,573.972C746.929,591.771 738.186,608.376 722.666,617.52C721.714,618.081 721.397,619.308 721.958,620.259C722.518,621.21 723.745,621.527 724.696,620.967C741.803,610.888 751.289,592.519 745.836,572.9C743.168,563.303 736.894,555.684 732.493,546.925C731.997,545.938 730.794,545.54 729.808,546.035C728.821,546.531 728.423,547.734 728.919,548.72Z"/>
    <path d="M745.3,588.465C743.398,594.433 740.707,599.933 737.493,605.289C736.925,606.235 737.233,607.465 738.179,608.033C739.126,608.601 740.355,608.293 740.923,607.347C744.297,601.723 747.114,595.946 749.111,589.68C749.446,588.628 748.865,587.502 747.813,587.167C746.761,586.832 745.635,587.414 745.3,588.465Z"/>
    <path d="M907.289,1280.13C906.844,1281.12 906.394,1282.1 905.961,1283.09" style="fill:none;stroke:black;stroke-width:3.33px;"/>
    <path d="M907.956,1281.46C905.666,1285.64 903.534,1290.2 900.584,1293.97C900.354,1294.26 900.74,1293.24 900.824,1292.88C901.017,1292.04 901.228,1291.2 901.447,1290.37C902.099,1287.91 902.976,1285.52 903.991,1283.18" style="fill:none;stroke:black;stroke-width:3.33px;"/>
    <path d="M942.748,1166.34C928.463,1187.8 921.892,1212.64 916.305,1237.52C914.219,1246.8 911.537,1256.01 909.944,1265.4" style="fill:none;stroke:black;stroke-width:3.33px;"/>
    <path d="M939.248,1163.59C928.934,1186.9 923.027,1212.85 917.682,1237.74C914.686,1251.7 910.762,1266.63 912.064,1281.02" style="fill:none;stroke:black;stroke-width:3.33px;"/>
    <path d="M953.65,1167.02C942.594,1171.84 933.157,1178.94 927.681,1190.01" style="fill:none;stroke:black;stroke-width:3.33px;"/>
    <path d="M949.539,1168.02C938.762,1175.19 930.509,1186.14 925.867,1198.13" style="fill:none;stroke:black;stroke-width:3.33px;"/>
</svg>
