<?xml version="1.0" standalone="no"?>
<!DOCTYPE svg PUBLIC "-//W3C//DTD SVG 20010904//EN"
 "http://www.w3.org/TR/2001/REC-SVG-20010904/DTD/svg10.dtd">
<svg version="1.0" xmlns="http://www.w3.org/2000/svg"
 width="1914.355696pt" height="1412.234054pt" viewBox="0 0 1914.355696 1412.234054"
 preserveAspectRatio="xMidYMid meet">
<g transform="translate(-53.459454,1682.962574) scale(0.100000,-0.100000)"
fill="#333333" stroke="none">
<path d="M7657 16817 c-3 -7 -3 -40 -1 -73 l3 -60 -50 -18 c-54 -20 -79 -39
-79 -61 0 -27 33 -34 92 -20 l56 13 12 -62 c13 -69 24 -86 52 -86 28 0 37 37
22 100 -7 30 -10 57 -7 60 2 3 23 9 46 15 39 9 42 12 42 45 l0 35 -57 0 -58
-1 0 41 c0 22 -7 51 -16 63 -17 24 -49 29 -57 9z"/>
<path d="M12140 16280 c-41 -11 -115 -40 -165 -64 -76 -37 -103 -58 -172 -129
-130 -135 -186 -279 -182 -467 4 -156 53 -277 160 -394 139 -153 347 -235 564
-223 179 10 301 65 437 200 99 98 131 148 168 265 36 111 38 187 10 317 -30
137 -84 237 -173 322 -83 79 -154 122 -259 160 -103 36 -280 42 -388 13z m295
-144 c68 -26 175 -92 182 -112 4 -13 -178 -60 -294 -75 -71 -10 -113 -10 -187
-1 -92 12 -250 54 -260 71 -9 14 89 80 150 102 161 56 287 61 409 15z m-561
-210 c100 -60 310 -103 446 -91 83 7 174 24 299 57 82 21 84 21 97 3 8 -10 11
-22 7 -26 -13 -13 -174 -56 -258 -70 -44 -7 -141 -12 -215 -12 -121 -1 -144 2
-220 27 -112 37 -240 96 -240 110 0 10 19 36 26 36 1 0 27 -15 58 -34z m-14
-128 c52 -25 133 -58 180 -74 80 -27 94 -28 255 -28 178 1 288 15 400 54 32
11 61 20 65 20 4 0 11 -17 14 -37 4 -21 9 -45 12 -54 3 -12 -15 -22 -84 -43
-182 -56 -273 -69 -467 -70 -165 0 -189 2 -292 28 -133 33 -223 83 -223 125 0
30 32 133 39 128 3 -2 49 -24 101 -49z m-61 -249 c24 -12 96 -35 160 -52 109
-28 127 -30 301 -31 196 0 275 10 438 58 63 18 82 21 82 10 0 -17 -131 -58
-273 -85 -139 -26 -395 -36 -493 -20 -116 20 -283 71 -288 90 -2 9 -8 32 -11
51 l-7 34 23 -17 c13 -10 44 -27 68 -38z m21 -154 c66 -33 223 -72 342 -85
105 -11 300 0 443 25 43 8 81 12 83 10 5 -5 -72 -94 -96 -110 -23 -17 -212
-35 -356 -35 -90 0 -147 6 -235 25 -113 25 -117 27 -157 71 -40 44 -91 124
-79 124 3 0 28 -11 55 -25z"/>
<path d="M2048 16185 c-31 -17 -45 -53 -109 -270 l-43 -150 -171 -1 c-193 0
-369 -19 -390 -41 -19 -19 -19 -43 0 -70 8 -12 96 -68 196 -124 142 -80 179
-105 174 -118 -4 -9 -31 -85 -61 -169 -60 -170 -74 -233 -54 -257 30 -36 55
-18 237 165 l178 181 124 -151 c69 -84 143 -167 166 -186 66 -54 125 -40 125
29 0 54 -38 247 -66 338 -3 12 7 21 38 34 65 26 256 143 273 168 23 32 19 80
-9 106 -20 19 -37 23 -127 27 -57 2 -145 7 -195 10 l-91 6 -33 186 c-42 237
-44 246 -81 276 -35 30 -44 31 -81 11z m63 -381 c22 -82 45 -154 50 -160 5 -7
51 -22 102 -34 81 -20 132 -40 100 -40 -6 0 -38 -25 -72 -55 -34 -30 -66 -55
-70 -55 -5 0 -14 -14 -21 -30 -11 -26 -9 -38 9 -88 12 -31 30 -86 41 -121 l19
-63 -22 19 c-12 11 -65 57 -117 103 -52 45 -98 91 -102 101 -4 11 -12 19 -17
19 -12 0 -172 -124 -243 -189 -32 -29 -58 -49 -58 -43 0 28 61 236 71 243 23
14 0 35 -150 137 -83 57 -151 107 -151 111 0 10 78 19 232 26 62 3 125 8 139
10 20 3 28 -1 32 -15 3 -12 14 -20 27 -20 17 0 29 18 64 93 24 50 53 118 66
149 13 32 25 56 27 55 2 -2 21 -71 44 -153z"/>
<path d="M18146 16118 c-2 -7 -12 -65 -21 -130 l-18 -116 -56 -12 c-31 -6
-103 -33 -161 -59 -132 -60 -135 -71 -30 -123 41 -21 100 -43 130 -49 l55 -12
-6 -84 c-9 -107 1 -187 21 -191 16 -3 79 82 135 183 16 28 30 52 31 54 2 2 58
-24 125 -58 142 -73 175 -76 173 -21 -1 21 -18 64 -43 108 l-42 73 38 46 c58
69 91 116 98 141 l7 23 -114 -3 c-62 -2 -120 -7 -128 -11 -11 -5 -27 15 -64
86 -27 50 -60 109 -73 130 -23 37 -50 49 -57 25z m142 -287 c11 -6 44 -6 87
-1 114 15 112 18 49 -61 l-56 -71 35 -79 35 -78 -81 44 c-44 24 -88 50 -96 57
-22 18 -65 7 -70 -17 -2 -11 -23 -46 -46 -78 l-44 -59 -6 46 c-4 26 -5 60 -1
76 5 28 3 31 -67 64 -40 19 -84 38 -99 41 -16 4 -28 10 -28 14 0 9 190 76 217
76 20 0 27 9 43 52 10 28 21 71 25 95 l8 42 38 -76 c21 -43 47 -82 57 -87z"/>
<path d="M8864 14963 c-16 -26 -40 -75 -52 -108 l-23 -60 -116 -3 c-65 -2
-121 -6 -125 -8 -30 -19 46 -106 130 -148 36 -18 38 -27 18 -82 -19 -57 -29
-131 -17 -138 21 -13 80 24 131 82 l54 61 48 -41 c26 -22 60 -57 76 -79 31
-45 53 -55 83 -39 20 11 21 17 15 74 -3 33 -9 75 -12 91 -5 27 -1 32 32 50 21
11 55 32 76 48 31 22 38 33 38 61 0 47 -29 66 -100 67 -91 2 -113 10 -121 44
-6 27 -40 117 -59 155 -16 33 -46 22 -76 -27z m106 -246 l30 -13 -31 -28 c-29
-26 -31 -32 -25 -72 l6 -44 -25 16 c-14 9 -29 24 -34 33 -8 14 -14 13 -53 -8
-24 -13 -56 -36 -72 -50 l-29 -26 8 40 c3 22 11 44 16 50 16 16 11 23 -68 80
l-78 57 44 -6 c25 -4 76 -4 114 0 l70 7 21 47 21 48 27 -59 c20 -44 35 -63 58
-72z"/>
<path d="M13492 14998 c-7 -7 -12 -29 -12 -49 0 -36 -1 -37 -47 -45 -39 -7
-49 -14 -51 -31 -3 -20 1 -22 59 -25 l62 -3 20 -57 c25 -78 41 -75 35 7 l-6
64 45 7 c24 3 54 15 66 25 19 16 20 20 7 29 -8 6 -39 9 -69 8 -54 -3 -55 -2
-63 28 -10 40 -30 58 -46 42z"/>
<path d="M10041 14634 c-47 -54 -57 -95 -54 -234 2 -113 35 -250 87 -371 37
-84 39 -122 9 -134 -32 -12 -90 73 -114 169 -21 85 -46 40 -35 -64 3 -33 9
-86 12 -118 l6 -58 -143 -63 c-211 -94 -238 -101 -449 -116 -200 -14 -237 -23
-327 -83 -70 -45 -121 -112 -191 -246 -36 -71 -75 -130 -108 -163 -47 -50 -53
-53 -99 -53 -68 0 -162 58 -262 160 -43 44 -82 80 -86 80 -14 0 4 -170 25
-239 49 -164 113 -257 248 -364 41 -33 78 -67 81 -76 14 -35 32 -252 27 -327
-8 -142 -42 -170 -140 -117 -107 58 -225 191 -288 324 -34 74 -57 238 -40 284
20 53 -11 13 -41 -53 -42 -91 -47 -164 -20 -273 27 -108 121 -300 202 -409 80
-108 214 -242 304 -305 39 -27 72 -50 74 -51 2 -2 -13 -17 -33 -34 -19 -18
-50 -62 -68 -98 -32 -64 -33 -71 -33 -192 0 -111 3 -135 29 -214 51 -155 133
-251 253 -296 79 -29 156 -35 227 -17 75 20 98 10 126 -54 22 -52 20 -88 -8
-112 -10 -8 -104 -31 -212 -51 -273 -51 -353 -74 -554 -160 -226 -97 -296
-133 -375 -191 -214 -157 -360 -356 -786 -1065 -404 -671 -429 -718 -973
-1785 -340 -666 -440 -875 -689 -1430 -96 -214 -230 -511 -297 -660 -68 -148
-145 -319 -171 -380 -26 -60 -61 -137 -77 -170 -66 -133 -212 -487 -258 -624
-90 -272 -105 -345 -104 -516 1 -122 5 -166 23 -235 38 -142 79 -227 164 -339
44 -57 83 -117 88 -133 7 -26 4 -31 -24 -48 -17 -11 -49 -22 -72 -25 -22 -4
-359 -4 -750 -2 -771 4 -788 5 -818 56 -16 27 -15 32 49 217 84 245 130 403
214 742 90 361 116 488 125 594 6 78 5 88 -13 106 -28 28 -60 31 -448 35 -333
4 -341 4 -362 25 -12 12 -28 22 -34 22 -9 0 -12 15 -9 51 10 144 -82 809 -170
1238 -22 106 -39 194 -37 196 2 2 39 -6 83 -17 67 -17 114 -21 285 -22 128 0
235 4 285 12 430 71 745 259 1122 672 128 140 143 162 135 193 -8 29 -41 45
-147 69 -139 30 -359 30 -540 -1 -175 -29 -399 -85 -515 -128 -233 -86 -460
-234 -687 -447 l-79 -74 -58 237 c-32 130 -60 246 -62 259 -10 53 -115 180
-237 289 -77 69 -279 203 -372 248 -137 66 -392 137 -627 176 -165 27 -188 22
-188 -38 0 -49 40 -160 82 -231 38 -65 218 -256 298 -316 210 -160 552 -272
898 -293 56 -3 102 -8 102 -11 0 -48 68 -413 125 -672 41 -184 90 -427 109
-540 35 -199 86 -574 86 -627 0 -19 -35 29 -131 178 -151 235 -180 276 -266
380 -111 133 -376 355 -548 459 -306 185 -816 380 -1146 440 -73 13 -103 5
-114 -29 -12 -37 160 -453 278 -671 105 -197 158 -273 291 -419 211 -234 452
-399 766 -527 l105 -43 -76 -1 c-63 0 -79 -3 -94 -20 -18 -20 -18 -27 9 -238
66 -518 116 -766 266 -1317 36 -135 37 -159 5 -190 -23 -24 -30 -25 -137 -25
-117 0 -142 -7 -175 -50 -23 -29 -15 -79 18 -112 l30 -31 5717 7 c9253 10
12054 16 12083 27 50 19 74 93 44 136 -24 34 -76 43 -251 43 l-161 0 14 43
c12 37 12 192 0 1123 -12 977 -15 1083 -31 1119 -35 83 -118 134 -193 120 -21
-3 -292 -10 -603 -15 -821 -13 -789 -11 -830 -37 -20 -12 -46 -41 -59 -64 -20
-36 -24 -55 -23 -129 l0 -87 -92 -7 c-252 -17 -440 -121 -597 -329 -78 -102
-113 -178 -135 -286 -56 -281 66 -538 339 -716 100 -64 194 -102 372 -146
l124 -31 3 -252 c2 -138 0 -259 -5 -268 -19 -44 39 -43 -1810 -46 -1667 -2
-1758 -2 -1755 15 2 9 17 21 33 25 291 78 401 114 500 163 256 126 411 293
475 515 17 59 23 111 27 245 9 296 -22 432 -368 1615 -100 338 -263 903 -364
1255 -346 1210 -630 2106 -843 2660 -218 569 -295 710 -455 838 -113 90 -178
130 -349 212 -226 108 -353 142 -758 202 -44 7 -57 13 -69 35 -15 26 -13 31
24 108 22 45 49 87 60 93 11 5 57 14 102 18 98 9 167 38 253 105 164 129 255
353 209 518 -19 70 -132 170 -221 197 -18 5 -70 10 -114 10 -76 0 -82 1 -88
22 -21 78 25 260 108 429 103 210 146 395 126 541 -18 127 -96 299 -198 437
-92 124 -392 416 -502 489 -110 73 -306 170 -402 200 -110 33 -255 45 -390 30
-250 -26 -368 17 -486 175 -111 150 -182 358 -182 532 0 40 -4 75 -9 78 -5 4
-27 -15 -50 -40z m-226 -2552 c54 -52 96 -81 180 -124 156 -80 219 -103 395
-149 126 -32 182 -41 299 -48 79 -5 150 -7 158 -4 14 6 17 19 6 25 -14 6 -58
71 -98 141 -43 79 -39 101 18 78 87 -35 201 -72 273 -88 99 -22 358 -24 457
-4 93 18 102 11 151 -124 46 -127 84 -187 149 -235 68 -50 74 -78 47 -233 -32
-193 -115 -409 -286 -751 -69 -137 -184 -304 -256 -371 -152 -143 -273 -214
-490 -287 -113 -38 -133 -42 -252 -46 -150 -5 -187 6 -206 63 -22 66 -92 104
-198 109 -36 1 -67 6 -69 12 -2 5 -13 27 -26 48 -33 58 -64 77 -133 81 -78 4
-87 9 -108 56 -20 44 -52 65 -116 75 -56 9 -97 51 -178 183 -126 204 -209 377
-285 596 -89 257 -110 386 -72 456 11 20 56 67 99 105 98 86 216 219 321 362
74 101 114 141 140 142 6 0 42 -31 80 -68z m-854 -466 c42 -18 63 -59 79 -161
6 -38 27 -138 47 -222 36 -151 37 -152 17 -174 -17 -19 -27 -21 -84 -17 -138
10 -206 79 -244 245 -34 152 -12 264 63 321 47 35 56 36 122 8z m3298 -26 c68
-49 83 -82 78 -168 -6 -102 -54 -198 -140 -279 -35 -33 -83 -69 -107 -81 l-43
-21 -28 21 c-16 12 -31 29 -34 37 -7 25 50 401 68 443 34 79 131 102 206 48z
m-2881 -1062 c28 -46 61 -97 72 -115 l21 -32 -38 -6 c-194 -29 -256 -59 -363
-172 -75 -81 -135 -187 -194 -345 -32 -87 -75 -229 -90 -299 -4 -20 -14 -28
-38 -33 -55 -11 -118 -80 -328 -359 -111 -147 -207 -266 -213 -264 -9 3 -13
71 -14 238 -1 128 -4 242 -7 251 -7 27 -54 24 -65 -4 -5 -13 -19 -156 -31
-318 -12 -176 -28 -319 -37 -355 -18 -63 -110 -191 -512 -710 -202 -261 -216
-277 -416 -495 -376 -408 -442 -486 -820 -985 -485 -640 -646 -845 -661 -845
-9 0 -13 4 -10 8 2 4 65 145 139 312 203 458 268 596 501 1055 385 759 728
1389 1081 1990 393 668 500 828 669 1003 145 151 177 171 485 306 185 82 304
120 575 186 93 23 183 47 200 55 17 7 34 14 37 14 3 1 29 -36 57 -81z m2652
-67 c58 -16 157 -43 220 -60 132 -37 409 -144 522 -203 53 -27 95 -59 131 -98
77 -82 173 -213 206 -279 65 -128 292 -756 474 -1306 148 -447 262 -833 453
-1535 200 -733 263 -954 449 -1575 79 -264 166 -559 194 -656 121 -420 157
-626 148 -838 -6 -140 -22 -215 -69 -310 -57 -118 -229 -266 -386 -332 -96
-40 -423 -137 -501 -149 -113 -17 -452 -49 -591 -57 l-133 -6 6 44 c4 24 9
258 12 519 3 261 8 520 11 576 l6 100 131 46 c191 66 799 307 819 325 14 12
15 20 7 35 -14 26 -18 25 -304 -63 -207 -64 -235 -71 -285 -65 -74 9 -126 44
-139 93 -101 393 -213 852 -228 933 -15 92 -18 172 -18 656 -1 590 0 574 -53
657 -33 50 -77 75 -147 83 -74 9 -118 44 -134 108 -17 70 -13 463 10 918 29
565 17 1138 -25 1228 -6 13 -24 29 -39 34 -24 9 -31 6 -54 -16 -26 -27 -26
-28 -34 -230 -4 -112 -12 -556 -18 -988 -6 -432 -15 -821 -20 -865 -5 -53 -16
-93 -31 -117 l-22 -38 -309 -1 c-170 -1 -312 -2 -316 -3 -5 -1 -627 -5 -1383
-9 -756 -4 -1496 -10 -1645 -13 -304 -7 -311 -5 -299 55 4 19 81 145 173 285
177 266 183 275 340 486 55 74 126 177 158 228 55 90 84 122 168 186 53 40
104 151 120 262 17 115 41 141 174 185 121 40 296 116 409 177 156 84 255 211
312 400 15 49 29 76 43 84 13 7 67 10 139 9 198 -3 366 52 515 170 208 166
385 483 400 716 l6 92 50 51 c105 107 189 123 377 71z m-2562 -208 c2 -14 -29
-66 -92 -155 -94 -133 -183 -284 -173 -294 23 -23 157 127 245 273 84 139 105
154 212 161 90 6 105 -11 105 -117 -1 -67 -6 -89 -49 -196 -27 -66 -89 -202
-138 -303 -49 -100 -88 -187 -86 -193 6 -19 143 151 197 246 54 95 122 258
142 340 16 71 22 79 62 89 50 13 93 -7 106 -48 39 -129 8 -277 -116 -550 -86
-190 -86 -194 -39 -182 31 8 110 111 148 196 50 109 98 265 106 341 6 61 11
75 33 91 23 17 31 18 69 8 23 -6 54 -23 68 -37 23 -23 24 -30 19 -91 -7 -82
-49 -207 -156 -465 -78 -187 -91 -236 -65 -244 20 -7 87 71 120 142 19 39 58
129 87 200 47 116 55 130 77 130 125 0 -2 -415 -164 -536 -58 -44 -258 -148
-495 -258 -160 -75 -178 -81 -238 -81 -54 0 -76 6 -136 36 -134 67 -280 191
-352 299 -53 81 -114 208 -126 266 -15 68 -8 117 36 269 74 254 165 446 262
550 71 77 136 114 223 129 81 13 104 10 108 -16z m2027 -91 c-15 -49 -17 -51
-40 -40 l-24 11 37 42 c20 24 38 42 39 41 2 -2 -4 -26 -12 -54z m-41 -55 c16
-11 16 -15 2 -49 -13 -29 -20 -35 -36 -31 -15 4 -19 11 -15 22 4 9 9 28 12 44
6 30 12 33 37 14z m-55 -169 c-19 -37 -22 -39 -37 -25 -14 15 -14 20 3 57 17
38 19 39 36 24 18 -16 17 -18 -2 -56z m-39 -62 c0 -6 -10 -24 -23 -39 l-23
-29 -13 25 c-12 22 -11 28 10 56 22 29 25 31 36 15 7 -10 13 -23 13 -28z m-80
-77 c9 -16 8 -26 -6 -47 l-18 -27 -13 34 c-11 25 -11 36 -2 47 16 19 26 18 39
-7z m-361 -49 c13 -6 17 -17 14 -34 -7 -33 -81 -62 -212 -81 -152 -23 -177
-21 -217 19 -68 68 -39 85 139 87 67 1 136 5 152 9 44 11 104 11 124 0z m303
-14 c15 -21 15 -25 2 -45 -21 -29 -29 -27 -41 13 -8 24 -7 38 0 45 15 15 20
14 39 -13z m-60 -55 c16 -28 15 -30 -8 -52 -13 -12 -26 -21 -28 -18 -10 12
-13 78 -3 88 16 16 20 14 39 -18z m-62 -91 c0 -9 -59 -45 -65 -38 -1 2 -5 20
-8 40 -5 30 -2 39 16 51 20 13 23 12 39 -15 10 -15 18 -33 18 -38z m-106 -4
c3 -13 9 -31 12 -40 4 -12 -4 -20 -30 -31 -19 -8 -38 -15 -41 -15 -3 0 -5 20
-5 43 0 36 4 46 23 55 32 15 34 15 41 -12z m-98 -56 c12 -43 15 -39 -48 -56
-14 -4 -18 1 -18 18 0 13 -5 30 -10 38 -7 12 -2 18 23 27 18 6 34 12 37 12 3
1 11 -17 16 -39z m-344 5 c9 -4 13 -17 10 -41 -5 -45 -25 -39 -33 9 -6 37 -3
42 23 32z m245 -35 l1 -40 -47 0 -47 0 4 34 c4 36 14 43 62 45 22 1 25 -3 27
-39z m-137 11 c0 -11 3 -26 6 -35 5 -13 -1 -16 -30 -16 -34 0 -36 1 -36 35 0
32 2 35 30 35 23 0 30 -5 30 -19z m-1940 -167 c0 -3 -29 -46 -65 -96 -36 -50
-65 -102 -65 -115 0 -46 34 -22 100 72 l54 76 41 -103 c45 -111 45 -102 -7
-175 -34 -47 -48 -103 -26 -103 24 0 67 38 87 78 l18 35 36 -54 c20 -30 43
-63 51 -74 14 -18 13 -27 -10 -89 -13 -38 -23 -71 -20 -73 3 -3 26 15 53 40
l48 45 25 -21 c14 -12 37 -31 52 -43 26 -21 27 -21 12 -64 -8 -24 -14 -52 -12
-64 3 -18 8 -16 45 20 l43 41 37 -25 c21 -14 41 -28 45 -31 4 -4 -1 -38 -12
-76 -11 -38 -18 -70 -17 -71 1 -2 23 22 47 51 25 30 47 53 50 52 3 -2 24 -12
48 -22 52 -22 63 -53 36 -102 -22 -41 -73 -93 -91 -93 -16 0 -16 0 1 41 34 83
31 87 -22 33 l-50 -51 -59 25 c-72 30 -70 28 -54 54 19 30 31 78 21 78 -5 0
-26 -16 -46 -36 -39 -40 -46 -39 -107 10 l-28 22 21 48 c21 50 25 76 12 76
-14 0 -82 -51 -82 -61 0 -19 -18 -5 -74 59 l-55 64 35 45 c39 50 45 93 15 93
-20 0 -56 -38 -66 -71 -4 -10 -10 -19 -15 -19 -5 0 -36 44 -69 97 l-60 97 32
38 c58 70 76 99 70 114 -12 33 -42 13 -79 -52 l-36 -65 -18 28 c-29 49 -41 98
-34 143 7 42 59 130 96 163 19 16 48 23 48 11z m-27 -622 c130 -195 278 -336
424 -404 93 -44 103 -58 79 -125 -8 -22 -163 -256 -343 -520 -181 -263 -356
-517 -389 -566 -49 -72 -66 -90 -99 -101 -30 -11 -127 -16 -390 -22 -192 -3
-376 -6 -409 -5 -124 4 -205 -30 -243 -103 -16 -28 -17 -100 -18 -791 l0 -760
-23 -85 c-27 -99 -12 -73 -353 -615 -400 -635 -608 -958 -669 -1040 -85 -113
-245 -299 -350 -406 -119 -121 -188 -161 -319 -185 -117 -21 -208 -15 -316 21
-92 30 -126 58 -217 180 -122 163 -162 281 -163 485 0 121 3 148 33 263 85
330 259 745 469 1122 81 145 385 562 996 1365 377 496 568 723 877 1046 171
178 345 406 973 1270 l248 342 69 -134 c37 -74 98 -178 133 -232z m-7187
-1237 c164 -43 277 -84 361 -131 133 -74 278 -179 370 -268 81 -78 94 -95 91
-119 -3 -27 -6 -26 -332 174 -284 174 -336 203 -378 207 -39 4 -48 2 -48 -11
0 -25 53 -62 246 -169 383 -213 444 -250 444 -264 0 -25 -24 -26 -151 -3 -229
40 -432 113 -568 203 -88 59 -225 187 -287 269 -42 55 -94 153 -94 176 0 12
191 -23 346 -64z m2769 -510 c47 -46 36 -73 -72 -183 -291 -293 -569 -445
-918 -503 -105 -18 -460 -18 -477 -1 -20 20 7 36 117 72 305 100 490 178 838
352 206 104 275 147 297 189 10 17 8 17 -44 -1 -30 -10 -143 -58 -253 -106
-390 -171 -1005 -417 -1032 -412 -31 6 -23 38 21 79 205 192 428 330 655 405
213 72 544 132 731 133 107 1 114 0 137 -24z m6545 -131 c1053 -13 1929 -27
1945 -30 72 -15 159 -77 193 -139 15 -27 17 -88 15 -665 -2 -349 -8 -1047 -13
-1550 -10 -882 -12 -916 -31 -956 -12 -26 -30 -46 -47 -53 -18 -7 -530 -15
-1532 -26 -2850 -30 -3414 -34 -3560 -25 -80 5 -194 9 -254 9 l-109 1 7 168
c22 572 29 1037 26 1767 -7 1442 -8 1321 18 1390 13 33 31 71 42 85 l19 25
333 16 c224 11 448 15 683 12 193 -2 1212 -15 2265 -29z m-9923 -634 c57 -17
165 -53 240 -81 394 -147 631 -273 859 -456 233 -189 297 -261 521 -598 166
-250 193 -295 193 -323 0 -19 -6 -22 -40 -22 -36 0 -65 20 -347 233 -169 129
-384 287 -478 352 -518 362 -565 391 -565 351 0 -26 619 -506 962 -745 135
-94 249 -178 252 -186 27 -72 -281 -22 -575 94 -194 76 -309 138 -457 248
-158 116 -335 300 -438 455 -79 117 -198 350 -281 548 -87 208 -86 191 -11
174 35 -8 109 -28 165 -44z m12303 -1016 c0 -3 34 -134 75 -291 74 -280 75
-288 64 -344 -6 -32 -17 -65 -23 -73 -6 -8 -39 -26 -73 -40 l-63 -25 -1 107
c0 59 -4 229 -8 377 -4 149 -6 276 -3 283 4 12 32 18 32 6z m5740 -39 c38 -19
57 -37 79 -77 59 -103 59 -109 63 -1073 l3 -881 -36 -49 c-31 -45 -43 -53
-113 -78 l-79 -27 -558 -7 -558 -6 -35 35 -36 36 0 252 c0 142 -4 259 -10 269
-11 22 -64 45 -84 38 -22 -9 -312 70 -383 104 -77 37 -209 135 -258 192 -97
112 -141 239 -132 382 7 120 35 205 99 295 84 120 173 202 269 248 110 53 178
70 322 78 159 9 157 7 161 152 2 62 7 116 11 120 13 14 188 19 703 20 l523 2
49 -25z m-11639 -291 c-7 -1625 -10 -1874 -21 -1894 -6 -12 -30 -30 -53 -40
-39 -17 -86 -19 -658 -21 -568 -3 -619 -1 -643 14 -14 10 -26 23 -26 30 0 7
46 60 103 117 154 158 408 468 512 625 51 77 227 363 392 635 165 272 305 505
313 516 17 27 63 55 73 45 4 -4 8 -17 8 -27z m-4931 -294 c140 -6 442 -13 670
-17 228 -3 422 -9 431 -14 9 -4 26 -27 39 -51 l23 -44 -52 -204 c-103 -403
-163 -615 -228 -809 -36 -108 -81 -243 -101 -301 -44 -132 -81 -173 -188 -207
-66 -21 -88 -23 -330 -23 -360 0 -375 6 -414 165 -12 50 -37 142 -56 205 -81
279 -157 620 -224 1010 -34 198 -37 229 -25 256 19 45 38 52 124 48 42 -3 191
-9 331 -14z m10293 -1289 c-113 -82 -131 -188 -48 -280 l35 -38 -388 -6 c-657
-11 -3861 -41 -3866 -36 -3 2 -9 72 -14 154 -6 83 -13 160 -17 173 l-7 22 223
0 c220 0 1816 15 3968 38 l154 2 -40 -29z m274 -16 c19 -34 23 -55 23 -141 0
-87 -3 -105 -21 -128 -14 -18 -30 -26 -52 -26 -31 0 -31 0 -9 16 84 59 80 224
-8 298 l-33 27 39 -3 c33 -3 42 -8 61 -43z m-5357 -14 c-15 -29 -12 -210 5
-266 8 -27 13 -50 12 -52 -2 -1 -20 2 -41 8 l-37 10 6 52 c6 48 -16 235 -30
257 -4 6 14 10 45 10 47 0 50 -1 40 -19z m97 -134 c1 -83 6 -164 12 -179 11
-30 10 -31 -38 -22 -25 5 -31 11 -25 23 20 50 23 95 10 193 -8 56 -17 111 -21
121 -6 14 -2 17 26 17 l34 0 2 -153z m82 121 c-12 -45 -12 -285 1 -309 9 -16
7 -19 -15 -19 -24 0 -25 3 -20 33 6 31 -10 257 -22 305 -5 20 -1 22 30 22 35
0 36 0 26 -32z m113 -128 c-2 -101 1 -167 8 -180 10 -18 8 -20 -22 -20 l-33 0
-3 127 c-1 70 -6 151 -11 180 l-8 53 36 0 36 0 -3 -160z m113 133 c-10 -39 -6
-279 5 -309 9 -23 8 -24 -28 -24 l-37 0 3 47 c6 84 -15 295 -30 304 -8 5 7 9
41 9 53 0 53 0 46 -27z m102 -123 c-7 -127 -5 -154 8 -180 l16 -30 -47 0 c-40
0 -45 2 -38 18 4 9 10 74 12 144 3 102 0 134 -12 159 -9 18 -16 34 -16 36 0 1
19 3 43 3 l42 0 -8 -150z m120 2 c1 -81 5 -162 8 -179 6 -33 6 -33 -34 -33
-40 0 -40 0 -30 27 9 24 -7 205 -27 306 -5 26 -4 27 38 27 l43 0 2 -148z m117
126 c-5 -13 -8 -93 -8 -178 l-1 -155 -27 -3 -28 -3 -1 133 c0 73 -4 154 -8
181 l-8 47 44 0 c42 0 44 -1 37 -22z m4498 -25 c35 -38 48 -66 48 -103 0 -127
-174 -176 -240 -67 -57 93 7 194 126 196 32 1 46 -5 66 -26z m-5352 -208 l10
-30 -20 24 c-17 20 -20 37 -19 125 l2 101 8 -95 c5 -52 13 -108 19 -125z"/>
<path d="M9451 11712 c-34 -10 -51 -40 -31 -52 22 -14 573 -13 643 1 129 26 0
47 -333 53 -140 3 -266 2 -279 -2z"/>
<path d="M11062 11699 c-79 -4 -155 -14 -170 -21 -29 -14 -42 -52 -20 -60 13
-5 369 8 535 18 45 3 89 11 99 19 16 11 15 14 -17 31 -41 22 -200 27 -427 13z"/>
<path d="M9902 11233 c-49 -24 -75 -68 -80 -134 -8 -108 59 -184 164 -184 92
0 138 54 139 160 0 76 -24 120 -84 152 -52 27 -93 29 -139 6z"/>
<path d="M11045 11231 c-17 -10 -43 -33 -58 -50 -23 -28 -27 -42 -27 -93 0
-107 72 -188 154 -175 50 8 126 65 143 106 56 133 -95 284 -212 212z"/>
<path d="M10636 10457 c-47 -80 -22 -105 41 -42 39 39 42 78 6 83 -16 2 -28
-7 -47 -41z"/>
<path d="M10297 10193 c-13 -12 -7 -48 12 -79 23 -39 104 -80 184 -94 64 -12
92 -7 107 19 15 29 -9 50 -75 67 -33 9 -92 33 -131 55 -73 40 -86 44 -97 32z"/>
<path d="M10791 5874 c-53 -38 -62 -156 -14 -194 87 -68 199 -22 197 82 -3 92
-113 160 -183 112z m89 -84 c25 -25 26 -52 2 -74 -15 -13 -24 -14 -50 -5 -36
12 -42 40 -16 77 19 27 38 28 64 2z"/>
<path d="M11225 5565 c-117 -27 -368 -104 -475 -146 l-75 -29 -80 40 c-125 63
-246 69 -377 20 -144 -54 -259 -202 -275 -355 l-6 -50 -86 -49 c-143 -81 -392
-250 -463 -315 -110 -101 -125 -186 -40 -227 91 -43 433 32 772 170 l59 24 52
-19 c159 -61 346 -20 471 102 53 52 118 160 118 196 0 14 4 17 165 107 147 83
351 218 424 281 107 92 148 166 122 221 -26 58 -139 68 -306 29z m215 -79 c0
-24 -136 -141 -253 -220 -141 -93 -338 -206 -349 -200 -4 3 -8 15 -8 28 0 39
-31 129 -60 178 l-29 46 87 31 c48 17 132 45 187 61 261 80 425 109 425 76z
m-950 -112 c142 -40 250 -180 250 -324 l0 -47 -142 -68 c-79 -38 -204 -95
-278 -127 l-135 -59 -57 60 c-245 260 14 663 362 565z m-525 -481 c22 -58 52
-108 92 -150 l30 -32 -108 -40 c-267 -100 -563 -165 -585 -130 -10 17 92 108
221 195 130 89 315 204 326 204 3 0 14 -21 24 -47z m724 -34 c-20 -38 -93
-105 -141 -127 -62 -31 -158 -48 -199 -36 l-32 9 79 35 c43 19 129 58 189 87
61 28 111 52 113 52 1 1 -2 -9 -9 -20z"/>
<path d="M9517 5379 c-58 -58 -59 -148 -3 -184 32 -21 107 -21 139 -1 88 58
44 195 -69 213 -29 5 -38 1 -67 -28z m101 -45 c26 -18 30 -75 6 -94 -20 -18
-72 -17 -88 1 -28 29 -29 57 -2 84 29 29 52 31 84 9z"/>
<path d="M10829 4681 c-34 -34 -39 -82 -12 -121 23 -35 33 -40 74 -40 65 0
112 75 83 136 -28 59 -98 71 -145 25z m81 -70 c0 -11 -29 -35 -35 -29 -10 9 7
38 21 38 8 0 14 -4 14 -9z"/>
<path d="M17530 4710 c-25 -5 -82 -13 -128 -19 -122 -15 -254 -75 -353 -159
-45 -39 -115 -170 -124 -237 -10 -62 9 -158 45 -232 57 -115 211 -242 362
-298 40 -15 91 -36 113 -47 22 -11 65 -23 96 -25 49 -5 59 -2 85 20 l29 25 5
444 c3 243 1 457 -3 475 -8 34 -41 64 -67 62 -8 -1 -35 -5 -60 -9z m0 -358 c0
-132 3 -308 7 -392 6 -148 6 -153 -13 -147 -310 96 -484 252 -487 437 -1 62
50 168 100 209 85 70 241 128 351 130 l42 1 0 -238z"/>
<path d="M12726 3154 c-19 -18 -19 -16 -6 -48 6 -18 17 -26 33 -26 45 0 62 43
29 73 -23 21 -36 21 -56 1z"/>
<path d="M6613 13572 c-6 -4 -15 -20 -19 -36 -6 -27 -9 -28 -53 -23 -26 3 -53
2 -61 -3 -22 -14 5 -37 51 -45 l40 -7 -6 -62 c-6 -50 -4 -65 9 -75 36 -30 76
12 76 81 l0 37 49 -6 c56 -6 73 8 45 38 -10 11 -30 19 -51 19 -31 0 -33 2 -33
33 0 44 -21 66 -47 49z"/>
<path d="M18142 13265 c-18 -8 -45 -24 -59 -35 -14 -11 -34 -20 -43 -20 -10 0
-23 -7 -30 -15 -15 -19 -23 -168 -10 -214 21 -80 106 -147 198 -157 38 -5 57
0 101 23 30 15 69 45 85 66 29 36 31 44 31 120 0 64 -5 91 -22 122 -29 54 -70
91 -122 110 -53 19 -86 19 -129 0z m48 -66 c0 -6 -17 -26 -37 -45 -20 -19 -34
-37 -30 -40 10 -11 57 14 57 29 0 8 9 22 20 32 18 17 21 17 45 1 23 -15 68
-76 61 -83 -1 -1 -17 1 -34 6 -18 5 -32 6 -32 1 0 -10 26 -20 55 -20 18 0 24
-7 29 -34 14 -73 -43 -136 -124 -136 -47 0 -71 12 -50 25 17 10 11 61 -9 79
-23 21 -65 18 -69 -6 -2 -11 5 -18 20 -20 15 -2 24 -11 26 -27 4 -23 3 -23
-13 -8 -9 10 -20 17 -24 17 -12 0 -31 47 -31 75 0 21 5 25 33 26 l32 1 -27 11
c-39 15 -36 48 7 92 35 35 95 50 95 24z"/>
<path d="M18227 12993 c-11 -10 -8 -51 3 -58 14 -9 80 33 80 51 0 10 -12 14
-38 14 -21 0 -42 -3 -45 -7z"/>
<path d="M17315 13165 c-85 -17 -229 -88 -307 -149 -78 -62 -162 -166 -203
-251 -54 -112 -70 -183 -69 -320 0 -111 2 -127 35 -220 43 -125 89 -194 191
-290 87 -82 189 -139 308 -171 88 -25 271 -24 360 0 169 46 351 189 446 352
28 48 94 295 94 354 0 63 -26 181 -59 266 -54 139 -197 300 -316 355 -145 67
-355 99 -480 74z m217 -160 l47 -17 -29 -54 c-35 -67 -46 -129 -32 -197 10
-51 10 -52 -28 -95 -72 -81 -60 -136 46 -207 50 -34 65 -53 100 -118 46 -90
67 -113 125 -141 24 -12 53 -35 67 -53 l24 -32 -46 -48 -46 -48 0 48 c0 50
-17 94 -45 117 -8 7 -52 27 -97 45 -71 29 -84 37 -90 62 -9 33 -29 54 -73 74
-20 9 -41 34 -61 73 -35 65 -47 76 -86 76 -19 0 -33 -10 -50 -32 -21 -30 -23
-44 -23 -138 l0 -105 -55 -65 c-35 -41 -65 -89 -79 -128 -13 -34 -27 -62 -31
-62 -21 0 -151 154 -179 213 -57 119 -80 272 -58 380 7 35 10 37 45 37 32 0
44 -8 102 -70 90 -96 150 -114 208 -65 57 48 51 100 -18 188 -22 27 -40 54
-40 59 0 5 22 31 49 57 51 50 84 104 96 161 4 19 14 52 23 74 l15 39 86 -6
c47 -3 107 -13 133 -22z m-352 -32 c0 -46 -25 -102 -64 -143 -24 -25 -50 -56
-60 -70 -32 -48 -16 -107 50 -184 18 -21 31 -43 28 -47 -12 -20 -36 -6 -96 54
-53 53 -73 66 -116 76 -28 7 -52 18 -52 24 1 55 166 243 250 285 54 27 60 27
60 5z m616 -131 c91 -106 132 -194 154 -325 9 -56 -7 -210 -31 -299 l-10 -41
-35 34 c-19 18 -53 43 -76 54 -35 17 -48 32 -79 93 -45 88 -59 105 -126 149
-57 36 -61 44 -38 63 9 7 26 27 38 44 19 27 22 44 22 141 0 103 2 113 28 153
27 42 27 42 57 27 16 -8 59 -50 96 -93z m-374 -582 c9 0 19 -12 23 -27 11 -44
44 -72 112 -93 123 -38 133 -50 133 -160 l0 -47 -60 -27 c-153 -69 -310 -69
-469 0 l-53 24 40 47 c22 27 67 79 101 117 70 79 86 123 76 204 l-7 54 44 -46
c25 -25 52 -46 60 -46z"/>
<path d="M14683 12951 c-10 -11 -40 -89 -67 -174 l-48 -154 -220 -6 c-141 -4
-226 -11 -234 -18 -17 -14 -18 -51 -1 -68 6 -7 76 -49 154 -93 125 -71 141
-83 133 -99 -6 -10 -16 -51 -24 -91 -8 -40 -26 -110 -41 -156 -27 -87 -24
-112 14 -112 8 0 80 64 158 142 l141 141 140 -142 c113 -115 144 -142 163
-139 23 3 24 7 23 68 -1 36 -14 110 -28 164 -14 54 -26 101 -26 105 0 5 18 15
40 24 23 9 81 41 130 72 79 50 90 60 90 86 0 17 -7 32 -17 37 -10 6 -84 13
-164 17 l-146 7 -6 74 c-7 79 -69 288 -95 317 -20 22 -47 22 -69 -2z m33 -218
c9 -63 58 -196 75 -204 43 -21 121 -39 164 -39 l50 -1 -25 -19 c-97 -77 -150
-127 -150 -140 0 -8 11 -49 24 -90 46 -146 47 -144 -40 -60 -43 41 -94 92
-115 113 -41 39 -66 47 -75 22 -11 -29 -199 -189 -202 -172 -4 19 37 178 50
194 5 7 7 16 4 21 -3 5 -60 46 -128 92 -144 98 -132 89 -127 94 10 10 328 16
334 6 22 -36 68 26 110 148 16 45 32 82 36 82 4 0 11 -21 15 -47z"/>
<path d="M5747 11783 c-28 -34 -64 -71 -103 -103 -16 -14 -37 -35 -45 -47
l-15 -22 -115 51 c-129 58 -202 70 -207 33 -3 -22 84 -165 126 -208 l28 -28
-77 -77 c-61 -61 -79 -85 -84 -115 -4 -28 -2 -39 9 -43 9 -3 71 17 138 46 68
29 128 54 133 56 14 6 52 -74 81 -170 13 -44 31 -88 41 -98 17 -19 48 -24 57
-9 13 20 56 183 56 210 l0 28 89 6 c102 8 137 18 145 45 11 33 -5 52 -73 87
-36 19 -85 45 -107 58 l-41 23 19 38 c16 31 38 156 38 218 0 22 -27 48 -51 48
-10 0 -29 -12 -42 -27z m-22 -202 c0 -38 -3 -73 -7 -77 -5 -4 -8 -13 -8 -20 0
-18 58 -71 93 -85 29 -12 29 -12 -34 -32 -35 -10 -69 -23 -75 -28 -7 -5 -15
-39 -19 -76 l-7 -66 -39 69 c-21 38 -39 76 -39 85 0 36 -75 28 -161 -17 -16
-8 -40 -19 -55 -24 -24 -9 -23 -6 18 51 23 34 48 64 55 66 21 8 16 21 -43 114
-31 49 -55 92 -52 94 7 7 222 -75 226 -86 2 -5 7 -9 11 -9 5 0 136 106 136
110 0 0 0 -31 0 -69z"/>
<path d="M18387 11243 c-8 -10 -35 -52 -60 -94 -106 -179 -159 -347 -207 -649
-12 -74 -23 -144 -25 -155 -2 -11 -21 -29 -41 -40 -92 -50 -213 -207 -300
-390 -56 -117 -66 -183 -34 -215 21 -21 27 -21 205 -18 l183 3 6 -60 c3 -33 5
-69 3 -79 -3 -25 35 -45 83 -46 19 -1 52 -4 72 -8 l37 -7 -20 -40 c-10 -22
-46 -76 -79 -120 -116 -154 -203 -387 -157 -422 26 -21 47 -21 83 -3 21 11 39
18 42 16 2 -3 -4 -70 -13 -150 -17 -154 -14 -175 25 -196 30 -16 53 2 94 72
19 35 35 59 36 53 0 -5 11 -80 24 -166 28 -176 52 -255 83 -276 39 -26 57 7
78 143 9 65 23 146 29 179 l13 60 29 -49 c61 -103 87 -131 125 -134 67 -6 71
14 56 312 l-8 159 60 -55 c63 -59 99 -75 131 -58 27 15 26 55 -6 148 -45 132
-174 386 -230 452 -7 8 -15 27 -19 41 -6 25 -4 26 44 32 65 8 151 44 132 56
-14 9 -13 22 11 134 l10 47 187 0 c186 0 188 0 211 25 19 20 22 31 16 65 -17
107 -136 347 -214 431 -57 62 -159 134 -202 144 -25 5 -28 13 -54 132 -47 218
-168 499 -267 622 -27 33 -49 65 -49 70 0 18 -53 51 -80 51 -15 0 -34 -8 -43
-17z m173 -279 c62 -156 126 -404 154 -594 33 -227 57 -473 63 -637 l6 -173
-204 0 c-194 1 -405 12 -415 23 -11 11 18 631 36 774 23 177 62 385 91 481 11
37 50 129 86 204 l66 137 44 -70 c24 -39 57 -104 73 -145z m413 -787 c40 -49
81 -118 116 -195 24 -50 24 -54 8 -87 -28 -58 -74 -72 -159 -49 -26 8 -46 88
-53 216 -5 109 -4 119 15 138 11 11 24 20 29 20 5 0 25 -19 44 -43z m-907 -32
c10 -24 14 -75 14 -177 l0 -142 -37 -38 -37 -38 -98 0 c-96 0 -99 1 -110 26
-11 23 -5 38 50 147 35 67 85 152 112 190 58 78 83 86 106 32z m564 -682 c0
-7 -31 -13 -87 -17 -49 -4 -114 -9 -145 -12 -57 -6 -58 -6 -58 20 l0 26 145
-2 c102 -2 145 -6 145 -15z m59 -140 c34 -68 146 -327 156 -363 7 -22 2 -20
-39 18 -35 33 -54 42 -74 40 -49 -6 -54 -32 -48 -255 2 -112 3 -203 2 -203 -2
0 -20 27 -40 59 -40 66 -88 111 -117 111 -30 0 -49 -41 -72 -162 -12 -62 -23
-106 -24 -98 -2 8 -14 93 -27 189 -25 184 -33 205 -78 193 -11 -3 -34 -26 -50
-51 -17 -25 -28 -37 -25 -26 3 11 11 70 17 132 13 122 6 153 -31 153 -12 0
-34 -10 -51 -21 l-30 -22 7 24 c11 34 78 186 114 257 l30 60 108 6 c59 4 119
8 133 10 14 2 44 4 67 5 42 1 43 0 72 -56z"/>
<path d="M18430 10749 c-61 -25 -100 -85 -100 -154 0 -92 57 -142 152 -133
109 11 159 132 94 230 -33 51 -99 76 -146 57z m83 -87 c8 -9 21 -30 27 -46 23
-61 -31 -116 -99 -101 -40 8 -61 39 -61 87 0 32 5 41 33 58 40 25 79 26 100 2z"/>
<path d="M1840 11134 c0 -8 11 -31 25 -52 24 -35 24 -37 6 -57 -25 -28 -32
-50 -18 -64 15 -15 52 -14 66 2 9 11 19 7 51 -25 23 -21 45 -38 50 -38 17 0
11 54 -9 87 -19 31 -19 32 0 69 10 21 19 44 19 51 0 24 -29 26 -64 5 l-34 -20
-28 29 c-30 31 -64 39 -64 13z"/>
<path d="M4210 10915 c-76 -17 -176 -57 -240 -96 -55 -34 -170 -165 -209 -239
-92 -172 -93 -381 -3 -570 44 -93 165 -218 259 -268 173 -92 423 -96 586 -10
92 49 237 195 276 278 39 82 71 224 71 314 0 84 -44 226 -95 303 -55 84 -150
177 -212 211 -132 70 -317 103 -433 77z m125 -145 c-30 -57 -15 -99 45 -130
52 -27 134 -35 190 -20 l45 13 -61 12 c-56 12 -134 50 -148 73 -3 5 6 19 19
32 l25 23 62 -27 c74 -31 86 -41 154 -121 61 -71 84 -114 115 -215 21 -69 21
-80 11 -173 -13 -109 -49 -213 -72 -210 -8 1 -35 7 -60 14 -81 20 -207 16
-283 -10 -75 -25 -127 -63 -127 -92 0 -26 21 -24 116 7 67 23 96 27 192 26 62
0 116 -2 119 -6 8 -8 -20 -39 -90 -97 -55 -46 -110 -70 -220 -94 l-28 -6 33
30 33 30 -46 1 c-54 0 -80 -20 -59 -45 11 -13 6 -15 -33 -15 -25 0 -49 5 -52
10 -3 6 -2 10 4 10 6 0 18 12 28 26 16 25 16 27 -3 41 -10 7 -32 13 -49 11
-25 -3 -31 -8 -33 -33 -3 -19 2 -34 15 -43 16 -13 15 -14 -12 -8 -115 25 -271
153 -325 267 l-30 64 42 20 c56 25 253 34 281 13 18 -14 18 -16 -9 -47 -16
-19 -50 -51 -77 -72 -27 -22 -45 -39 -40 -39 4 0 37 10 73 22 87 31 143 83
138 130 -2 26 -10 37 -38 50 -51 26 -244 25 -320 -2 -35 -12 -59 -15 -65 -9
-5 5 -9 53 -10 107 0 75 5 111 23 162 l22 65 108 1 c59 1 121 7 137 13 43 17
175 93 175 101 0 4 -28 1 -62 -5 -161 -33 -298 -45 -298 -27 0 17 127 130 162
145 70 29 78 30 78 8 0 -19 26 -41 49 -41 23 0 42 33 36 61 l-7 29 71 0 72 0
-16 -30z"/>
<path d="M4249 10544 c-9 -11 -10 -20 -2 -32 8 -14 33 -18 134 -23 124 -6 179
-15 179 -29 0 -7 -58 -30 -245 -99 -76 -28 -78 -30 -40 -30 73 -1 244 28 302
51 123 49 104 125 -42 163 -83 21 -268 21 -286 -1z"/>
<path d="M4048 10404 c-14 -31 -1 -57 31 -62 28 -4 51 14 51 42 0 50 -62 65
-82 20z"/>
<path d="M4692 10418 c-17 -17 -15 -53 3 -68 38 -31 96 27 65 65 -15 18 -51
20 -68 3z"/>
<path d="M4440 10231 c-8 -17 -7 -24 10 -41 28 -28 63 -11 58 28 -4 35 -51 44
-68 13z"/>
<path d="M4647 10173 c-11 -11 -8 -48 5 -61 30 -30 75 0 64 43 -5 19 -13 25
-35 25 -15 0 -31 -3 -34 -7z"/>
<path d="M15488 9943 l-28 -27 -29 22 c-52 38 -64 28 -31 -26 18 -30 19 -35 5
-48 -45 -46 -36 -76 15 -50 29 14 31 13 50 -14 26 -36 57 -47 78 -27 13 13 13
20 2 47 -7 17 -20 35 -29 40 -14 8 -12 14 17 41 38 35 38 63 2 67 -17 2 -34
-7 -52 -25z"/>
<path d="M18982 9548 c-9 -9 -12 -93 -12 -317 0 -169 3 -316 6 -328 8 -27 40
-39 60 -22 23 19 17 655 -6 669 -20 13 -34 12 -48 -2z"/>
<path d="M5802 9018 c-7 -7 -12 -38 -12 -69 l0 -57 -51 -11 c-107 -23 -115
-51 -15 -51 69 0 76 -6 76 -71 0 -14 9 -34 19 -43 18 -16 20 -16 35 6 9 12 16
42 16 65 l0 43 43 0 c74 0 103 57 41 80 -15 6 -41 8 -59 4 -32 -6 -33 -6 -40
43 -10 66 -27 87 -53 61z"/>
<path d="M16099 8706 c-42 -45 -78 -87 -80 -94 -4 -12 -11 -11 -198 52 -57 19
-108 33 -113 30 -4 -3 -12 -14 -18 -24 -8 -15 -1 -32 36 -87 25 -37 64 -86 86
-109 l39 -41 -70 -75 c-80 -85 -100 -123 -78 -146 12 -11 19 -12 37 -2 13 7
73 29 135 50 l111 37 42 -97 c45 -102 87 -155 115 -144 10 3 19 16 22 28 5 22
25 172 25 186 0 4 30 13 68 20 102 17 143 32 159 56 26 40 11 53 -134 124 -71
34 -70 33 -54 146 5 34 6 86 3 115 -6 48 -10 54 -32 56 -20 2 -41 -15 -101
-81z m46 -223 c3 -13 10 -23 15 -23 13 0 90 -51 90 -59 0 -4 -33 -18 -72 -32
l-73 -25 3 -66 c2 -36 0 -68 -5 -71 -5 -3 -28 32 -51 78 l-41 83 -92 -29 c-50
-17 -93 -28 -95 -27 -2 2 15 26 36 53 22 28 40 59 40 70 0 11 -29 57 -65 103
-36 45 -63 82 -61 82 15 0 177 -55 207 -71 l36 -18 59 60 59 60 3 -73 c1 -40
4 -83 7 -95z"/>
<path d="M18802 8588 c-17 -17 -17 -429 0 -446 17 -17 45 -15 56 4 5 10 7 107
5 223 -4 172 -8 208 -21 219 -20 15 -25 15 -40 0z"/>
<path d="M18120 8425 c-20 -24 -6 -594 15 -615 12 -11 20 -12 33 -4 15 10 17
38 17 313 0 257 -2 303 -15 311 -22 14 -36 12 -50 -5z"/>
<path d="M18407 8099 c-15 -9 -17 -32 -17 -232 0 -231 3 -247 42 -247 36 0 40
32 32 256 -6 183 -9 216 -23 224 -10 5 -24 4 -34 -1z"/>
<path d="M16897 7213 c-2 -4 -7 -25 -11 -45 -6 -30 -11 -38 -29 -38 -12 0 -39
-5 -59 -11 -31 -8 -38 -15 -38 -34 0 -24 3 -25 59 -25 l58 0 9 -62 c8 -58 11
-63 34 -63 23 0 26 5 33 63 l9 62 38 0 c79 0 78 61 -1 70 -43 5 -44 6 -49 45
-4 31 -10 41 -27 43 -11 2 -23 0 -26 -5z"/>
<path d="M18135 7195 c-215 -47 -420 -178 -480 -307 -29 -63 -31 -109 -6 -163
48 -108 170 -147 541 -175 271 -20 283 -47 98 -203 -195 -163 -257 -243 -258
-330 0 -59 22 -98 89 -156 34 -30 68 -66 76 -81 7 -14 20 -74 28 -132 9 -58
21 -117 28 -129 l12 -24 14 33 c75 184 47 331 -78 418 -23 16 -45 37 -49 49
-18 48 32 112 192 247 66 55 133 118 149 140 79 110 27 229 -114 257 -29 6
-132 18 -229 26 -264 23 -339 39 -382 84 -24 25 -28 35 -22 63 15 76 88 144
233 217 113 56 207 80 343 87 90 5 129 3 179 -10 35 -9 65 -15 67 -13 2 2 0
16 -4 32 -10 35 -46 63 -98 75 -57 14 -259 11 -329 -5z"/>
<path d="M19022 6840 c-81 -37 -217 -207 -262 -327 -49 -131 -48 -315 3 -528
25 -106 31 -151 31 -245 0 -105 -2 -123 -32 -205 -49 -135 -47 -126 -26 -119
48 18 76 50 119 137 69 140 71 227 8 477 -23 89 -27 127 -27 245 1 121 4 148
23 198 34 87 112 197 197 276 82 77 92 104 39 109 -17 1 -49 -7 -73 -18z"/>
</g>
</svg>
