<?xml version="1.0" standalone="no"?>
<!DOCTYPE svg PUBLIC "-//W3C//DTD SVG 20010904//EN"
 "http://www.w3.org/TR/2001/REC-SVG-20010904/DTD/svg10.dtd">
<svg version="1.0" xmlns="http://www.w3.org/2000/svg"
 width="400.000000pt" height="400.000000pt" viewBox="0 0 400.000000 400.000000"
 preserveAspectRatio="xMidYMid meet">
<metadata>
Created by potrace 1.14, written by Peter Selinger 2001-2017
</metadata>
<g transform="translate(0.000000,400.000000) scale(0.100000,-0.100000)"
fill="#000000" stroke="none">
<path d="M2096 3630 c-15 -5 -50 -9 -77 -8 -40 0 -75 -12 -191 -67 -79 -37
-159 -77 -178 -90 -22 -15 -58 -25 -99 -30 -53 -5 -72 -12 -107 -41 -24 -20
-52 -50 -62 -69 -13 -20 -33 -37 -55 -44 -31 -11 -35 -16 -41 -57 -10 -76 -51
-139 -112 -174 -37 -20 -58 -40 -67 -63 -8 -17 -46 -64 -84 -103 -49 -49 -79
-90 -99 -134 l-28 -62 31 -27 c22 -18 36 -43 46 -81 9 -30 25 -86 36 -123 13
-46 18 -83 15 -115 -5 -40 1 -64 40 -159 68 -168 85 -242 63 -283 -9 -17 -20
-24 -35 -22 -36 5 -138 -85 -118 -105 2 -3 27 16 54 41 27 25 56 46 65 46 30
0 67 -23 86 -54 11 -17 36 -53 55 -81 20 -27 36 -57 36 -65 0 -13 -1 -13 -10
0 -5 8 -11 12 -13 10 -4 -5 -2 -27 24 -210 6 -42 9 -99 8 -127 -2 -28 2 -57 8
-65 6 -7 14 -29 18 -48 4 -19 11 -41 16 -50 5 -8 22 -45 39 -83 17 -37 34 -67
38 -67 4 0 18 -24 32 -52 23 -49 25 -66 28 -235 l4 -181 -49 -7 c-88 -11 -195
-37 -282 -67 -47 -16 -101 -33 -120 -38 -53 -13 -161 -64 -158 -74 5 -17 230
-145 336 -192 91 -40 270 -104 291 -104 4 0 -1 24 -11 53 -20 56 -24 151 -9
207 5 19 18 69 29 110 25 95 18 247 -24 502 l-4 27 33 -22 c19 -12 32 -25 29
-29 -2 -5 5 -8 16 -8 12 0 21 -5 21 -11 0 -5 -6 -7 -12 -3 -9 5 -8 2 1 -10 11
-13 11 -20 3 -28 -7 -7 -12 -15 -12 -18 0 -6 44 -31 60 -35 25 -6 80 -31 80
-36 0 -4 21 -12 47 -17 51 -11 72 0 51 25 -15 19 0 16 38 -8 40 -24 40 -25 15
-32 -14 -3 -18 -1 -14 9 3 8 -1 14 -10 14 -9 0 -14 -7 -12 -17 2 -10 4 -25 4
-33 1 -10 4 -11 9 -4 13 20 56 38 60 25 2 -6 12 -11 22 -11 10 0 22 -5 25 -10
4 -6 11 -7 17 -4 14 9 59 -17 51 -29 -4 -6 0 -8 11 -4 9 4 15 3 12 -1 -7 -12
6 -28 40 -45 28 -15 84 -104 84 -134 0 -6 7 -16 15 -23 8 -6 21 -37 30 -68 9
-32 24 -65 32 -74 9 -10 13 -26 10 -37 -3 -11 1 -25 9 -32 18 -15 17 -39 -1
-63 -23 -30 -18 -79 9 -111 26 -30 26 -45 0 -45 -8 0 -14 -4 -14 -10 0 -16 45
-12 175 15 138 28 347 94 339 107 -4 5 0 8 7 7 22 -5 90 22 84 32 -4 5 1 6 9
3 34 -13 446 240 425 261 -16 15 -151 57 -181 56 -20 -1 -61 8 -90 19 -66 25
-65 25 -75 -4 l-8 -23 -42 18 c-29 12 -43 24 -43 37 0 11 -7 36 -15 55 -10 26
-15 72 -15 154 0 166 12 229 51 269 26 27 31 40 33 86 1 32 9 65 19 81 9 14
17 35 17 46 0 11 9 25 20 31 16 9 18 8 14 -5 -9 -24 25 -18 46 8 11 12 53 67
95 123 l75 101 0 109 c0 102 -6 141 -31 238 -7 27 -13 35 -19 26 -4 -7 -6 -20
-3 -28 5 -12 2 -12 -16 -3 -32 17 -57 5 -77 -37 l-18 -37 -9 49 c-12 59 1 173
37 346 15 69 29 158 31 199 3 56 9 81 25 103 19 25 21 40 19 121 -2 56 2 101
9 114 18 33 16 296 -2 331 -17 33 -53 67 -86 82 -95 42 -170 106 -170 144 0
27 -39 96 -55 96 -7 0 -17 10 -21 22 -10 31 -29 48 -67 59 -19 5 -39 20 -50
38 -15 26 -24 30 -85 36 -37 4 -76 12 -87 18 -11 6 -63 14 -116 18 -94 7 -95
8 -136 48 -43 43 -73 50 -137 31z m-220 -857 c44 -33 87 -32 266 7 40 8 67 -8
52 -31 -5 -8 -3 -9 6 -4 7 4 16 2 20 -5 9 -14 134 -25 160 -14 33 13 103 13
137 -1 20 -8 64 -15 100 -15 81 0 153 -31 131 -57 -11 -14 -10 -15 9 -9 12 4
24 2 28 -4 3 -5 2 -10 -4 -10 -6 0 -2 -15 8 -32 10 -18 26 -32 35 -32 12 1 16
-7 16 -38 0 -31 3 -38 18 -36 11 2 16 -3 14 -14 -3 -20 17 -63 25 -54 3 3 0
13 -8 22 -12 15 -12 17 1 12 8 -2 22 -25 31 -51 16 -45 16 -46 -2 -36 -21 11
-25 -1 -7 -19 17 -17 12 -16 -73 14 -85 30 -243 40 -271 16 -9 -7 -22 -10 -31
-7 -21 9 -95 -13 -128 -37 -15 -11 -31 -18 -37 -14 -15 9 -23 -165 -10 -228 6
-31 14 -53 19 -51 4 3 16 -8 25 -24 17 -28 19 -29 31 -12 12 18 77 36 66 19
-3 -5 1 -8 8 -7 8 1 30 -5 50 -14 25 -11 56 -15 105 -12 38 2 83 4 99 4 23 1
27 4 15 11 -13 9 -7 14 13 11 4 0 7 5 7 12 0 8 4 7 10 -3 8 -13 10 -12 10 3 0
19 79 60 91 48 4 -3 9 -31 12 -61 4 -30 13 -89 22 -130 26 -117 30 -268 11
-393 -18 -119 -37 -177 -60 -177 -8 0 -16 -4 -18 -9 -1 -5 -12 -11 -23 -13
-11 -1 -23 -10 -27 -18 -4 -8 -7 9 -6 39 1 35 -3 56 -10 59 -7 2 -12 15 -12
28 0 14 -7 39 -16 55 -8 17 -13 37 -10 45 3 8 2 13 -3 9 -5 -3 -22 2 -38 10
-15 8 -76 33 -135 57 -105 41 -107 42 -79 54 15 6 31 19 34 28 6 16 57 23 57
8 0 -5 12 -15 27 -23 14 -8 39 -26 54 -41 15 -16 34 -28 43 -28 9 0 13 -6 10
-15 -4 -9 6 -22 28 -35 18 -11 26 -20 19 -20 -22 0 -1 -17 32 -25 18 -5 27 -3
27 5 0 6 5 8 12 4 8 -5 9 -2 5 9 -4 10 -1 17 6 17 7 1 2 6 -9 13 -20 11 -114
119 -114 131 0 22 -168 136 -201 136 -24 0 -42 -46 -27 -70 19 -29 -3 -47 -37
-32 -13 6 -33 9 -42 6 -15 -5 -15 -4 -3 4 12 9 12 13 -2 29 -8 10 -17 24 -20
32 -3 11 -6 11 -18 -1 -34 -33 -139 -44 -250 -24 -44 8 -122 -10 -92 -21 9 -3
5 -12 -13 -29 -36 -34 -48 -22 -43 42 3 30 3 54 1 54 -2 0 -23 -9 -45 -20 -23
-11 -46 -20 -50 -20 -9 0 -113 -74 -135 -96 -7 -7 -13 -17 -13 -22 0 -6 -6
-12 -12 -14 -10 -4 -10 -10 -1 -31 10 -21 9 -28 -3 -38 -9 -8 -13 -21 -10 -35
4 -13 2 -25 -3 -28 -5 -3 -11 4 -14 15 -6 23 -28 22 -35 -2 -3 -12 -2 -12 7 1
5 8 13 11 17 7 4 -4 2 -13 -4 -19 -17 -17 -15 -33 3 -18 18 15 20 -1 3 -18 -8
-8 -8 -12 -1 -12 13 0 43 44 43 62 0 24 85 137 107 142 12 3 42 21 66 40 46
35 57 36 57 5 0 -10 12 -21 30 -28 17 -5 30 -15 30 -20 0 -6 7 -11 15 -11 23
0 18 -13 -20 -50 -31 -30 -42 -34 -107 -40 -80 -6 -126 -26 -175 -73 -31 -29
-33 -35 -33 -98 0 -39 -5 -71 -11 -75 -15 -9 -3 -81 18 -113 12 -18 17 -21 23
-10 5 7 6 17 4 21 -3 4 0 8 6 8 7 0 10 5 8 12 -11 32 137 115 215 120 18 1 40
6 50 10 10 5 39 13 65 18 26 5 70 16 98 24 46 13 57 13 95 -1 24 -8 60 -13 80
-10 19 3 53 -2 75 -9 21 -8 53 -14 70 -14 17 0 43 -9 58 -21 15 -11 34 -18 42
-15 9 3 21 3 27 -1 7 -4 2 -9 -13 -13 l-25 -6 27 -6 c15 -3 25 -2 23 2 -3 4 8
10 24 12 17 2 29 2 28 -1 -1 -3 7 -19 16 -36 16 -28 17 -29 11 -4 -4 18 0 30
13 40 16 12 17 12 6 -2 -10 -13 -10 -19 2 -35 16 -22 20 -48 5 -39 -5 3 -10 2
-10 -4 0 -5 4 -12 9 -16 16 -9 -7 -61 -33 -74 -12 -7 -31 -26 -40 -42 -10 -17
-20 -28 -23 -25 -3 2 -1 11 3 18 12 19 5 81 -11 97 -12 12 -22 6 -69 -44 -31
-32 -61 -73 -68 -91 -7 -19 -16 -34 -21 -34 -5 0 -4 -7 3 -15 11 -13 10 -14
-4 -9 -9 3 -16 1 -16 -5 0 -6 -15 -11 -34 -11 -19 0 -38 -5 -42 -11 -4 -7 -9
-8 -13 -1 -3 5 -24 17 -45 26 -40 17 -66 9 -66 -19 0 -8 -19 -32 -42 -56 -39
-39 -42 -40 -55 -23 -16 22 -43 27 -50 8 -9 -24 -44 -16 -87 20 -33 27 -46 32
-60 24 -14 -8 -24 -4 -45 16 -29 28 -50 33 -68 15 -8 -8 -18 -1 -37 29 -14 23
-39 55 -56 72 -16 17 -30 40 -30 50 0 14 -7 20 -23 20 -13 0 -28 5 -34 11 -22
22 -34 -1 -17 -33 9 -16 11 -27 5 -24 -6 4 -11 2 -11 -3 0 -19 -22 -12 -27 9
-8 28 -26 25 -52 -11 -28 -37 -44 -33 -51 12 -4 23 -10 33 -20 30 -36 -9 -45
-4 -56 29 -6 18 -21 38 -32 43 -11 5 -23 17 -26 26 -6 18 -26 49 -43 68 -6 7
-14 27 -18 45 -4 18 -13 42 -20 54 -8 12 -16 61 -19 110 -2 49 -8 110 -11 137
-5 32 -3 47 4 47 10 0 -3 34 -19 50 -3 3 -6 30 -7 60 -1 30 -3 69 -4 85 0 17
1 74 3 128 3 80 7 100 20 108 31 17 48 40 48 64 0 19 -4 23 -17 18 -13 -5 -10
2 10 26 15 18 27 36 28 39 1 4 2 26 3 50 2 35 -1 42 -16 42 -17 0 -17 2 2 37
11 21 20 45 20 55 0 9 5 18 11 20 8 3 8 10 -2 25 -11 19 -11 25 5 42 10 11 16
26 13 34 -3 8 5 25 16 39 23 27 151 118 165 118 5 0 21 13 36 29 17 18 34 27
44 24 8 -4 13 -2 10 3 -4 5 17 8 49 6 31 -2 60 1 66 7 14 14 55 3 93 -26z
m944 -193 c0 -5 -2 -10 -4 -10 -3 0 -8 5 -11 10 -3 6 -1 10 4 10 6 0 11 -4 11
-10z m117 -252 c-3 -8 -6 -5 -6 6 -1 11 2 17 5 13 3 -3 4 -12 1 -19z m-99 -65
c23 -9 42 -22 42 -29 0 -8 5 -14 10 -14 6 0 10 -10 9 -22 0 -13 -3 -17 -6 -10
-4 10 -8 10 -19 1 -8 -6 -23 -9 -33 -6 -15 3 -19 0 -18 -14 2 -26 26 -33 48
-13 10 9 22 13 28 10 5 -3 12 2 14 11 3 12 5 8 6 -9 2 -41 -9 -61 -25 -47 -11
9 -14 8 -14 -4 0 -22 -54 -15 -116 14 -34 16 -75 25 -134 28 -80 6 -83 7 -60
20 16 9 53 14 105 14 l80 -1 -39 19 c-22 10 -48 19 -58 19 -10 0 -18 5 -18 10
0 6 -9 10 -20 10 -17 0 -19 3 -10 19 18 35 128 32 228 -6z m-305 -181 c-18 -5
-27 3 -18 17 4 7 10 7 20 -2 11 -10 11 -13 -2 -15z m217 9 c0 -5 12 -11 28
-13 26 -3 26 -4 -15 -26 -30 -16 -59 -22 -101 -22 -108 0 -171 24 -74 28 65 3
103 12 120 28 15 16 42 19 42 5z m354 -418 c4 -9 3 -20 -2 -25 -6 -6 -11 1
-14 16 -6 29 6 35 16 9z m34 -111 c-3 -49 -10 -66 -39 -100 -18 -23 -38 -42
-44 -42 -5 0 -4 5 3 12 19 19 14 30 -8 18 -11 -6 -20 -18 -20 -27 0 -9 -3 -13
-7 -10 -3 4 -11 -3 -17 -14 -6 -12 -15 -21 -20 -20 -5 2 -13 -3 -18 -11 -7 -9
-8 -5 -4 12 2 14 10 54 16 90 13 71 24 92 46 83 7 -3 17 2 20 11 3 9 11 16 16
16 6 0 17 8 24 18 13 16 13 16 14 0 0 -25 21 -23 27 2 10 38 15 20 11 -38z
m-348 -17 c7 -8 8 -15 2 -15 -5 0 -15 7 -22 15 -7 8 -8 15 -2 15 5 0 15 -7 22
-15z m-115 -233 c-3 -3 -11 0 -18 7 -9 10 -8 11 6 5 10 -3 15 -9 12 -12z
m-355 -362 c-23 -14 -4 -23 22 -9 21 11 22 11 9 -4 -7 -10 -20 -17 -27 -17 -8
0 -14 -7 -14 -16 0 -22 -23 -12 -26 12 -3 19 20 44 40 44 6 0 4 -4 -4 -10z
m200 -368 c0 -11 -37 -32 -44 -25 -8 9 14 33 30 33 8 0 14 -3 14 -8z m-15
-132 c-3 -5 -13 -10 -21 -10 -8 0 -12 5 -9 10 3 6 13 10 21 10 8 0 12 -4 9
-10z m-41 -105 c-21 -16 -34 -19 -34 -7 0 8 42 30 49 25 3 -2 -4 -10 -15 -18z
m-18 -90 c-26 -19 -42 -19 -26 0 7 8 20 15 29 15 13 -1 13 -3 -3 -15z"/>
<path d="M2118 2753 c7 -3 16 -2 19 1 4 3 -2 6 -13 5 -11 0 -14 -3 -6 -6z"/>
<path d="M1724 2380 c-108 -24 -173 -59 -208 -109 -26 -37 -30 -71 -8 -71 5 0
27 13 48 28 58 43 78 51 158 72 115 30 206 15 206 -34 0 -17 -13 -22 -95 -32
-74 -9 -68 -8 -80 -15 -5 -4 -27 -9 -48 -13 -56 -10 -89 -27 -83 -43 3 -8 2
-12 -2 -10 -4 3 -12 -1 -19 -8 -18 -20 10 -27 34 -10 10 8 26 15 35 15 9 0 23
6 30 13 33 33 222 47 251 18 9 -9 -4 -10 -53 -7 -64 4 -153 -19 -235 -62 -29
-15 -34 -17 -63 -20 -9 -2 -10 -6 0 -21 9 -15 19 -18 47 -14 53 8 100 21 77
22 -19 1 -19 1 -1 15 17 12 21 12 31 -1 8 -11 27 -15 69 -14 59 1 85 12 85 37
0 17 11 18 42 2 13 -8 22 -20 20 -30 -6 -31 -64 -48 -160 -48 -56 0 -93 -4
-98 -11 -4 -7 -24 -9 -58 -5 -47 7 -50 6 -35 -9 20 -20 168 -40 207 -29 15 4
34 9 42 10 8 1 33 5 55 8 37 7 39 6 21 -8 -18 -15 -18 -16 -2 -16 9 0 14 -4
11 -10 -6 -10 -4 -9 79 28 52 24 120 73 148 106 30 35 23 80 -17 114 -19 17
-31 33 -26 36 5 3 16 22 26 41 13 29 14 39 4 51 -7 8 -19 14 -28 12 -9 -1 -21
0 -26 4 -6 4 -41 14 -79 22 -87 21 -200 19 -302 -4z"/>
<path d="M2167 2295 c-20 -42 -20 -45 -7 -45 5 0 17 16 25 36 17 42 18 44 7
44 -5 0 -16 -16 -25 -35z"/>
<path d="M2901 1463 c-1 -6 -4 -20 -7 -30 -5 -17 -5 -17 6 0 6 10 9 23 6 30
-3 9 -5 9 -5 0z"/>
<path d="M2843 1413 c-15 -5 -17 -23 -4 -23 5 0 11 7 15 15 3 8 4 15 3 14 -1
0 -8 -3 -14 -6z"/>
<path d="M2830 1329 c0 -11 5 -17 10 -14 6 3 10 13 10 21 0 8 -4 14 -10 14 -5
0 -10 -9 -10 -21z"/>
<path d="M2425 1278 c-16 -6 -106 -11 -198 -11 -166 0 -168 -1 -163 -21 5 -20
5 -20 -12 1 -12 17 -21 20 -32 13 -8 -5 -25 -10 -37 -10 -13 0 -23 -5 -23 -11
0 -6 8 -9 18 -7 12 4 27 -5 41 -23 26 -32 86 -43 75 -14 -4 8 -4 15 -1 15 9 0
124 -118 130 -133 6 -16 12 -18 84 -20 23 -1 39 -5 36 -11 -3 -5 -1 -6 5 -2 6
4 9 13 5 21 -6 16 20 17 45 1 25 -15 42 2 42 41 0 37 25 73 49 73 6 0 13 9 16
21 6 17 9 18 23 7 12 -10 14 -10 8 0 -4 7 -2 12 6 12 19 0 41 37 27 46 -8 4
-7 9 2 15 10 6 7 9 -11 9 -15 0 -32 -6 -39 -12 -11 -10 -14 -10 -18 0 -5 14
-36 14 -78 0z m32 -58 c-12 -31 -31 -43 -20 -12 6 17 23 42 28 42 2 0 -2 -13
-8 -30z"/>
<path d="M2640 1210 c0 -5 5 -10 11 -10 5 0 7 5 4 10 -3 6 -8 10 -11 10 -2 0
-4 -4 -4 -10z"/>
<path d="M2380 1061 c0 -6 4 -13 10 -16 6 -3 7 1 4 9 -7 18 -14 21 -14 7z"/>
<path d="M2786 2181 c-3 -5 1 -11 9 -14 9 -4 12 -1 8 9 -6 16 -10 17 -17 5z"/>
<path d="M3010 1531 c0 -5 7 -11 15 -15 8 -3 15 -18 16 -33 l1 -28 10 28 c5
15 7 34 4 42 -6 16 -46 21 -46 6z"/>
<path d="M3013 1904 c-15 -15 -21 -22 -12 -16 8 7 31 18 50 26 27 12 29 15 12
16 -12 0 -35 -12 -50 -26z"/>
<path d="M1023 1753 c-31 -30 -32 -35 -17 -181 4 -40 11 -75 17 -79 5 -3 7 0
5 8 -8 22 28 109 58 140 29 31 80 47 96 31 14 -14 19 -64 7 -56 -14 8 -80 -68
-74 -85 3 -7 -1 -21 -10 -31 -13 -15 -13 -17 0 -17 8 0 15 6 15 14 0 7 5 13
10 13 12 0 -4 -35 -20 -45 -14 -9 -12 -45 3 -42 7 1 11 -7 9 -23 -1 -18 0 -21
7 -11 5 8 19 15 30 16 18 1 21 -4 21 -37 0 -24 4 -37 10 -33 5 3 10 24 10 46
0 30 -4 39 -17 39 -35 0 -45 14 -32 43 7 15 15 27 19 27 3 0 15 7 26 15 18 15
17 16 -15 9 -26 -5 -32 -3 -26 7 6 9 4 11 -7 6 -27 -10 -29 5 -4 24 30 24 37
24 29 2 -6 -16 -4 -16 15 1 12 11 22 26 23 35 0 12 3 11 9 -4 7 -17 9 -14 9
13 1 41 -45 137 -77 163 -37 29 -94 25 -129 -8z m108 -10 c13 -16 12 -17 -3
-4 -10 7 -18 15 -18 17 0 8 8 3 21 -13z"/>
<path d="M941 1655 c-2 -98 23 -208 59 -259 38 -55 176 -186 196 -186 19 0 13
25 -7 26 -30 2 -31 5 -13 26 18 21 18 22 0 8 -16 -13 -20 -12 -31 3 -6 9 -15
14 -18 11 -8 -9 -27 32 -19 41 4 5 2 5 -4 2 -11 -7 -56 37 -92 90 -20 29 -43
123 -62 258 -7 50 -7 50 -9 -20z"/>
</g>
</svg>
